M48
; DRILL file {KiCad 5.1.7-a382d34a8~88~ubuntu20.04.1} date Sun Dec 13 09:42:07 2020
; FORMAT={-:-/ absolute / inch / decimal}
; #@! TF.CreationDate,2020-12-13T09:42:07+11:00
; #@! TF.GenerationSoftware,Kicad,Pcbnew,5.1.7-a382d34a8~88~ubuntu20.04.1
; #@! TF.FileFunction,Plated,1,4,PTH
FMAT,2
INCH
T1C0.0118
T2C0.0236
T3C0.0394
%
G90
G05
T1
X2.0248Y-2.7193
X2.0248Y-3.5756
X2.0248Y-4.4319
X2.0248Y-5.2882
X2.026Y-2.7752
X2.026Y-3.6315
X2.026Y-4.4878
X2.026Y-5.3441
X2.0295Y-2.0177
X2.0295Y-2.5965
X2.0295Y-2.874
X2.0295Y-3.4528
X2.0295Y-3.7303
X2.0295Y-4.3091
X2.0295Y-4.5866
X2.0295Y-5.1654
X2.0335Y-2.498
X2.0335Y-3.3543
X2.0335Y-4.2106
X2.0335Y-5.0669
X2.06Y-2.6526
X2.06Y-3.5089
X2.06Y-4.3652
X2.06Y-5.2215
X2.062Y-2.4449
X2.062Y-3.3012
X2.062Y-4.1575
X2.062Y-5.0138
X2.063Y-2.124
X2.063Y-2.2264
X2.063Y-2.3445
X2.063Y-2.9803
X2.063Y-3.0827
X2.063Y-3.2008
X2.063Y-3.8366
X2.063Y-3.939
X2.063Y-4.0571
X2.063Y-4.6929
X2.063Y-4.7953
X2.063Y-4.9134
X2.065Y-2.5502
X2.065Y-3.4065
X2.065Y-4.2628
X2.065Y-5.1191
X2.0705Y-2.7094
X2.0705Y-3.5657
X2.0705Y-4.422
X2.0705Y-5.2783
X2.0758Y-2.7628
X2.0758Y-3.6191
X2.0758Y-4.4754
X2.0758Y-5.3317
X2.0819Y-2.5961
X2.0819Y-3.4524
X2.0819Y-4.3087
X2.0819Y-5.165
X2.0843Y-2.2882
X2.0843Y-2.4917
X2.0843Y-3.1445
X2.0843Y-3.348
X2.0843Y-4.0008
X2.0843Y-4.2043
X2.0843Y-4.8571
X2.0843Y-5.0606
X2.0866Y-2.3902
X2.0866Y-3.2465
X2.0866Y-4.1028
X2.0866Y-4.9591
X2.0925Y-2.0413
X2.0925Y-2.8976
X2.0925Y-3.7539
X2.0925Y-4.6102
X2.1211Y-2.7215
X2.1211Y-3.5778
X2.1211Y-4.4341
X2.1211Y-5.2904
X2.1476Y-2.0138
X2.1476Y-2.7687
X2.1476Y-2.8701
X2.1476Y-3.625
X2.1476Y-3.7264
X2.1476Y-4.4813
X2.1476Y-4.5827
X2.1476Y-5.3376
X2.189Y-2.3898
X2.189Y-3.2461
X2.189Y-4.1024
X2.189Y-4.9587
X2.1909Y-2.5913
X2.1909Y-2.7303
X2.1909Y-3.4476
X2.1909Y-3.5866
X2.1909Y-4.3039
X2.1909Y-4.4429
X2.1909Y-5.1602
X2.1909Y-5.2992
X2.1988Y-2.502
X2.1988Y-3.3583
X2.1988Y-4.2146
X2.1988Y-5.0709
X2.2106Y-2.0177
X2.2106Y-2.1358
X2.2106Y-2.1791
X2.2106Y-2.686
X2.2106Y-2.874
X2.2106Y-2.9921
X2.2106Y-3.0354
X2.2106Y-3.5423
X2.2106Y-3.7303
X2.2106Y-3.8484
X2.2106Y-3.8917
X2.2106Y-4.3986
X2.2106Y-4.5866
X2.2106Y-4.7047
X2.2106Y-4.748
X2.2106Y-5.2549
X2.2283Y-2.6102
X2.2283Y-3.4665
X2.2283Y-4.3228
X2.2283Y-5.1791
X2.2303Y-2.376
X2.2303Y-3.2323
X2.2303Y-4.0886
X2.2303Y-4.9449
X2.2333Y-2.4193
X2.2333Y-3.2756
X2.2333Y-4.1319
X2.2333Y-4.9882
X2.2343Y-2.2146
X2.2343Y-3.0709
X2.2343Y-3.9272
X2.2343Y-4.7835
X2.2352Y-2.31
X2.2352Y-3.1663
X2.2352Y-4.0226
X2.2352Y-4.8789
X2.248Y-2.7589
X2.248Y-3.6152
X2.248Y-4.4715
X2.248Y-5.3278
X2.252Y-2.7106
X2.252Y-3.5669
X2.252Y-4.4232
X2.252Y-5.2795
X2.2539Y-2.126
X2.2539Y-2.1634
X2.2539Y-2.6545
X2.2539Y-2.9823
X2.2539Y-3.0197
X2.2539Y-3.5108
X2.2539Y-3.8386
X2.2539Y-3.876
X2.2539Y-4.3671
X2.2539Y-4.6949
X2.2539Y-4.7323
X2.2539Y-5.2234
X2.2697Y-2.0177
X2.2697Y-2.874
X2.2697Y-3.7303
X2.2697Y-4.5866
X2.2894Y-2.3681
X2.2894Y-3.2244
X2.2894Y-4.0807
X2.2894Y-4.937
X2.2982Y-2.3091
X2.2982Y-3.1654
X2.2982Y-4.0217
X2.2982Y-4.878
X2.3012Y-2.687
X2.3012Y-3.5433
X2.3012Y-4.3996
X2.3012Y-5.2559
X2.3022Y-2.4862
X2.3022Y-3.3425
X2.3022Y-4.1988
X2.3022Y-5.0551
X2.3061Y-2.7461
X2.3061Y-3.6024
X2.3061Y-4.4587
X2.3061Y-5.315
X2.313Y-2.126
X2.313Y-2.1594
X2.313Y-2.9823
X2.313Y-3.0157
X2.313Y-3.8386
X2.313Y-3.872
X2.313Y-4.6949
X2.313Y-4.7283
X2.3179Y-2.0177
X2.3179Y-2.874
X2.3179Y-3.7303
X2.3179Y-4.5866
X2.3278Y-2.561
X2.3278Y-3.4173
X2.3278Y-4.2736
X2.3278Y-5.1299
X2.3563Y-2.372
X2.3563Y-3.2283
X2.3563Y-4.0846
X2.3563Y-4.9409
X2.3681Y-2.0177
X2.3681Y-2.874
X2.3681Y-3.7303
X2.3681Y-4.5866
X2.375Y-2.311
X2.375Y-3.1673
X2.375Y-4.0236
X2.375Y-4.8799
X2.3819Y-2.4902
X2.3819Y-3.3465
X2.3819Y-4.2028
X2.3819Y-5.0591
X2.3839Y-2.1476
X2.3839Y-3.0039
X2.3839Y-3.8602
X2.3839Y-4.7165
X2.4045Y-2.3711
X2.4045Y-3.2274
X2.4045Y-4.0837
X2.4045Y-4.94
X2.4311Y-2.311
X2.4311Y-3.1673
X2.4311Y-4.0236
X2.4311Y-4.8799
X2.4409Y-2.7884
X2.4409Y-3.6447
X2.4409Y-4.501
X2.4409Y-5.3573
X2.4429Y-2.0217
X2.4429Y-2.878
X2.4429Y-3.7343
X2.4429Y-4.5906
X2.4547Y-2.372
X2.4547Y-3.2283
X2.4547Y-4.0846
X2.4547Y-4.9409
X2.4567Y-2.1126
X2.4567Y-2.9689
X2.4567Y-3.8252
X2.4567Y-4.6815
X2.4587Y-2.1516
X2.4587Y-3.0079
X2.4587Y-3.8642
X2.4587Y-4.7205
X2.4754Y-2.5197
X2.4754Y-3.376
X2.4754Y-4.2323
X2.4754Y-5.0886
X2.4882Y-2.311
X2.4882Y-3.1673
X2.4882Y-4.0236
X2.4882Y-4.8799
X2.5059Y-2.0217
X2.5059Y-2.372
X2.5059Y-2.878
X2.5059Y-3.2283
X2.5059Y-3.7343
X2.5059Y-4.0846
X2.5059Y-4.5906
X2.5059Y-4.9409
X2.565Y-2.4852
X2.565Y-3.3415
X2.565Y-4.1978
X2.565Y-5.0541
X2.5728Y-2.3327
X2.5728Y-3.189
X2.5728Y-4.0453
X2.5728Y-4.9016
X2.5807Y-2.0217
X2.5807Y-2.878
X2.5807Y-3.7343
X2.5807Y-4.5906
X2.5886Y-2.1654
X2.5886Y-3.0217
X2.5886Y-3.878
X2.5886Y-4.7343
X2.5935Y-2.7392
X2.5935Y-3.5955
X2.5935Y-4.4518
X2.5935Y-5.3081
X2.6033Y-2.562
X2.6033Y-3.4183
X2.6033Y-4.2746
X2.6033Y-5.1309
X2.6043Y-2.3091
X2.6043Y-3.1654
X2.6043Y-4.0217
X2.6043Y-4.878
X2.6102Y-2.7844
X2.6102Y-3.6407
X2.6102Y-4.497
X2.6102Y-5.3533
X2.6319Y-2.6998
X2.6319Y-3.5561
X2.6319Y-4.4124
X2.6319Y-5.2687
X2.6476Y-2.0217
X2.6476Y-2.878
X2.6476Y-3.7343
X2.6476Y-4.5906
X2.6486Y-2.7657
X2.6486Y-3.622
X2.6486Y-4.4783
X2.6486Y-5.3346
X2.6555Y-2.3091
X2.6555Y-3.1654
X2.6555Y-4.0217
X2.6555Y-4.878
X2.6604Y-2.5049
X2.6604Y-3.3612
X2.6604Y-4.2175
X2.6604Y-5.0738
X2.6713Y-2.1319
X2.6713Y-2.3882
X2.6713Y-2.9882
X2.6713Y-3.2445
X2.6713Y-3.8445
X2.6713Y-4.1008
X2.6713Y-4.7008
X2.6713Y-4.9571
X2.6752Y-2.2421
X2.6752Y-3.0984
X2.6752Y-3.9547
X2.6752Y-4.811
X2.6781Y-2.6919
X2.6781Y-3.5482
X2.6781Y-4.4045
X2.6781Y-5.2608
X2.6909Y-2.1634
X2.6909Y-3.0197
X2.6909Y-3.876
X2.6909Y-4.7323
X2.6949Y-2.2067
X2.6949Y-3.063
X2.6949Y-3.9193
X2.6949Y-4.7756
X2.6978Y-2.5138
X2.6978Y-3.3701
X2.6978Y-4.2264
X2.6978Y-5.0827
X2.7018Y-2.7283
X2.7018Y-3.5846
X2.7018Y-4.4409
X2.7018Y-5.2972
X2.7156Y-2.6624
X2.7156Y-3.5187
X2.7156Y-4.375
X2.7156Y-5.2313
X2.7215Y-2.6201
X2.7215Y-3.4764
X2.7215Y-4.3327
X2.7215Y-5.189
X2.7224Y-2.7766
X2.7224Y-3.6329
X2.7224Y-4.4892
X2.7224Y-5.3455
X2.7264Y-2.0217
X2.7264Y-2.878
X2.7264Y-3.7343
X2.7264Y-4.5906
X2.7618Y-2.4469
X2.7618Y-3.3032
X2.7618Y-4.1594
X2.7618Y-5.0157
X2.7736Y-2.7382
X2.7736Y-3.5945
X2.7736Y-4.4508
X2.7736Y-5.3071
X2.7854Y-2.0217
X2.7854Y-2.1437
X2.7854Y-2.878
X2.7854Y-3.0
X2.7854Y-3.7343
X2.7854Y-3.8563
X2.7854Y-4.5906
X2.7854Y-4.7126
X2.7894Y-2.1909
X2.7894Y-3.0472
X2.7894Y-3.9035
X2.7894Y-4.7598
X2.8051Y-2.4193
X2.8051Y-3.2756
X2.8051Y-4.1319
X2.8051Y-4.9882
X2.8071Y-2.7835
X2.8071Y-3.6398
X2.8071Y-4.4961
X2.8071Y-5.3524
X2.8091Y-2.2421
X2.8091Y-2.376
X2.8091Y-3.0984
X2.8091Y-3.2323
X2.8091Y-3.9547
X2.8091Y-4.0886
X2.8091Y-4.811
X2.8091Y-4.9449
X2.813Y-2.5965
X2.813Y-2.6437
X2.813Y-3.4528
X2.813Y-3.5
X2.813Y-4.3091
X2.813Y-4.3563
X2.813Y-5.1654
X2.813Y-5.2126
X2.8209Y-2.1437
X2.8209Y-2.2894
X2.8209Y-3.0
X2.8209Y-3.1457
X2.8209Y-3.8563
X2.8209Y-4.002
X2.8209Y-4.7126
X2.8209Y-4.8583
X2.8248Y-2.4547
X2.8248Y-3.311
X2.8248Y-4.1673
X2.8248Y-5.0236
X2.8287Y-2.1909
X2.8287Y-3.0472
X2.8287Y-3.9035
X2.8287Y-4.7598
X2.8327Y-2.0217
X2.8327Y-2.878
X2.8327Y-3.7343
X2.8327Y-4.5906
X2.8524Y-2.2382
X2.8524Y-3.0945
X2.8524Y-3.9508
X2.8524Y-4.8071
X2.8563Y-2.2815
X2.8563Y-2.372
X2.8563Y-3.1378
X2.8563Y-3.2283
X2.8563Y-3.9941
X2.8563Y-4.0846
X2.8563Y-4.8504
X2.8563Y-4.9409
X2.8583Y-2.7854
X2.8583Y-3.6417
X2.8583Y-4.498
X2.8583Y-5.3543
X2.8602Y-2.4232
X2.8602Y-2.5965
X2.8602Y-3.2795
X2.8602Y-3.4528
X2.8602Y-4.1358
X2.8602Y-4.3091
X2.8602Y-4.9921
X2.8602Y-5.1654
X2.8642Y-2.1437
X2.8642Y-3.0
X2.8642Y-3.8563
X2.8642Y-4.7126
X2.872Y-2.1949
X2.872Y-3.0512
X2.872Y-3.9075
X2.872Y-4.7638
X2.8839Y-2.0079
X2.8839Y-2.8642
X2.8839Y-3.7205
X2.8839Y-4.5768
X2.8957Y-2.2382
X2.8957Y-2.2815
X2.8957Y-3.0945
X2.8957Y-3.1378
X2.8957Y-3.9508
X2.8957Y-3.9941
X2.8957Y-4.8071
X2.8957Y-4.8504
X2.9134Y-2.7864
X2.9134Y-3.6427
X2.9134Y-4.499
X2.9134Y-5.3553
X2.9596Y-2.5846
X2.9596Y-3.4409
X2.9596Y-4.2972
X2.9596Y-5.1535
X2.9626Y-2.0079
X2.9626Y-2.8642
X2.9626Y-3.7205
X2.9626Y-4.5768
X2.9833Y-2.7884
X2.9833Y-3.6447
X2.9833Y-4.501
X2.9833Y-5.3573
X3.0118Y-2.5984
X3.0118Y-3.4547
X3.0118Y-4.311
X3.0118Y-5.1673
X3.0315Y-2.0079
X3.0315Y-2.8642
X3.0315Y-3.7205
X3.0315Y-4.5768
X3.0492Y-2.1988
X3.0492Y-3.0551
X3.0492Y-3.9114
X3.0492Y-4.7677
X3.0504Y-2.3685
X3.0504Y-3.2248
X3.0504Y-4.0811
X3.0504Y-4.9374
X3.0512Y-2.2484
X3.0512Y-2.3159
X3.0512Y-3.1047
X3.0512Y-3.1722
X3.0512Y-3.961
X3.0512Y-4.0285
X3.0512Y-4.8173
X3.0512Y-4.8848
X3.0541Y-2.5778
X3.0541Y-2.7844
X3.0541Y-3.4341
X3.0541Y-3.6407
X3.0541Y-4.2904
X3.0541Y-4.497
X3.0541Y-5.1467
X3.0541Y-5.3533
X3.0563Y-2.4079
X3.0563Y-3.2642
X3.0563Y-4.1205
X3.0563Y-4.9768
X3.0571Y-2.4469
X3.0571Y-2.5217
X3.0571Y-3.3032
X3.0571Y-3.378
X3.0571Y-4.1594
X3.0571Y-4.2343
X3.0571Y-5.0157
X3.0571Y-5.0906
X3.0906Y-2.4803
X3.0906Y-2.5394
X3.0906Y-2.5984
X3.0906Y-3.3366
X3.0906Y-3.3957
X3.0906Y-3.4547
X3.0906Y-4.1929
X3.0906Y-4.252
X3.0906Y-4.311
X3.0906Y-5.0492
X3.0906Y-5.1083
X3.0906Y-5.1673
X3.0925Y-2.315
X3.0925Y-3.1713
X3.0925Y-4.0276
X3.0925Y-4.8839
X3.0974Y-2.4331
X3.0974Y-3.2894
X3.0974Y-4.1457
X3.0974Y-5.002
X3.1102Y-2.0079
X3.1102Y-2.8642
X3.1102Y-3.7205
X3.1102Y-4.5768
X3.1211Y-2.5659
X3.1211Y-3.4222
X3.1211Y-4.2785
X3.1211Y-5.1348
X3.1289Y-2.5128
X3.1289Y-3.3691
X3.1289Y-4.2254
X3.1289Y-5.0817
X3.1329Y-2.7825
X3.1329Y-3.6388
X3.1329Y-4.4951
X3.1329Y-5.3514
X3.1496Y-2.4606
X3.1496Y-3.3169
X3.1496Y-4.1732
X3.1496Y-5.0295
X3.1594Y-2.0079
X3.1594Y-2.8642
X3.1594Y-3.7205
X3.1594Y-4.5768
X3.1624Y-2.315
X3.1624Y-3.1713
X3.1624Y-4.0276
X3.1624Y-4.8839
X3.1713Y-2.1358
X3.1713Y-2.9921
X3.1713Y-3.8484
X3.1713Y-4.7047
X3.19Y-2.439
X3.19Y-3.2953
X3.19Y-4.1516
X3.19Y-5.0079
X3.2087Y-2.7844
X3.2087Y-3.6407
X3.2087Y-4.497
X3.2087Y-5.3533
X3.2106Y-2.0167
X3.2106Y-2.873
X3.2106Y-3.7293
X3.2106Y-4.5856
X3.2224Y-2.1516
X3.2224Y-3.0079
X3.2224Y-3.8642
X3.2224Y-4.7205
X3.2283Y-2.4114
X3.2283Y-3.2677
X3.2283Y-4.124
X3.2283Y-4.9803
X3.2343Y-2.3209
X3.2343Y-3.1772
X3.2343Y-4.0335
X3.2343Y-4.8898
X3.2461Y-2.565
X3.2461Y-3.4213
X3.2461Y-4.2776
X3.2461Y-5.1339
X3.25Y-2.5965
X3.25Y-3.4528
X3.25Y-4.3091
X3.25Y-5.1654
X3.2579Y-2.1988
X3.2579Y-3.0551
X3.2579Y-3.9114
X3.2579Y-4.7677
X3.2608Y-2.0118
X3.2608Y-2.8681
X3.2608Y-3.7244
X3.2608Y-4.5807
X3.2657Y-2.1516
X3.2657Y-3.0079
X3.2657Y-3.8642
X3.2657Y-4.7205
X3.2776Y-2.5295
X3.2776Y-3.3858
X3.2776Y-4.2421
X3.2776Y-5.0984
X3.2866Y-2.7642
X3.2866Y-3.6205
X3.2866Y-4.4768
X3.2866Y-5.3331
X3.3012Y-2.128
X3.3012Y-2.9843
X3.3012Y-3.8406
X3.3012Y-4.6969
X3.3091Y-2.0187
X3.3091Y-2.5846
X3.3091Y-2.875
X3.3091Y-3.4409
X3.3091Y-3.7313
X3.3091Y-4.2972
X3.3091Y-4.5876
X3.3091Y-5.1535
X3.3573Y-2.7736
X3.3573Y-3.6299
X3.3573Y-4.4862
X3.3573Y-5.3425
X3.3602Y-2.0217
X3.3602Y-2.878
X3.3602Y-3.7343
X3.3602Y-4.5906
X3.3689Y-2.5829
X3.3689Y-3.4392
X3.3689Y-4.2955
X3.3689Y-5.1518
X3.4055Y-2.0285
X3.4055Y-2.8848
X3.4055Y-3.7411
X3.4055Y-4.5974
X3.4075Y-2.3327
X3.4075Y-3.189
X3.4075Y-4.0453
X3.4075Y-4.9016
X3.4213Y-2.7756
X3.4213Y-3.6319
X3.4213Y-4.4882
X3.4213Y-5.3445
X3.439Y-2.5935
X3.439Y-3.4498
X3.439Y-4.3061
X3.439Y-5.1624
X3.4518Y-2.0295
X3.4518Y-2.8858
X3.4518Y-3.7421
X3.4518Y-4.5984
X3.4537Y-2.5276
X3.4537Y-3.3839
X3.4537Y-4.2402
X3.4537Y-5.0965
X3.4547Y-2.4744
X3.4547Y-3.3307
X3.4547Y-4.187
X3.4547Y-5.0433
X3.4665Y-2.4154
X3.4665Y-3.2717
X3.4665Y-4.128
X3.4665Y-4.9843
X3.4783Y-2.6348
X3.4783Y-3.4911
X3.4783Y-4.3474
X3.4783Y-5.2037
X3.4823Y-2.7106
X3.4823Y-3.5669
X3.4823Y-4.4232
X3.4823Y-5.2795
X3.4941Y-2.0217
X3.4941Y-2.878
X3.4941Y-3.7343
X3.4941Y-4.5906
X3.498Y-2.0817
X3.498Y-2.938
X3.498Y-3.7943
X3.498Y-4.6506
X3.5138Y-2.2421
X3.5138Y-2.2894
X3.5138Y-2.3366
X3.5138Y-2.3839
X3.5138Y-3.0984
X3.5138Y-3.1457
X3.5138Y-3.1929
X3.5138Y-3.2402
X3.5138Y-3.9547
X3.5138Y-4.002
X3.5138Y-4.0492
X3.5138Y-4.0965
X3.5138Y-4.811
X3.5138Y-4.8583
X3.5138Y-4.9055
X3.5138Y-4.9528
X3.5148Y-2.5738
X3.5148Y-2.7707
X3.5148Y-3.4301
X3.5148Y-3.627
X3.5148Y-4.2864
X3.5148Y-4.4833
X3.5148Y-5.1427
X3.5148Y-5.3396
X3.5167Y-2.0502
X3.5167Y-2.9065
X3.5167Y-3.7628
X3.5167Y-4.6191
X3.5404Y-2.4173
X3.5404Y-3.2736
X3.5404Y-4.1299
X3.5404Y-4.9862
X3.5482Y-2.7037
X3.5482Y-3.56
X3.5482Y-4.4163
X3.5482Y-5.2726
X3.5492Y-2.628
X3.5492Y-3.4843
X3.5492Y-4.3406
X3.5492Y-5.1969
X3.5541Y-2.0915
X3.5541Y-2.9478
X3.5541Y-3.8041
X3.5541Y-4.6604
X3.5591Y-2.0512
X3.5591Y-2.9075
X3.5591Y-3.7638
X3.5591Y-4.6201
X3.561Y-2.2461
X3.561Y-3.1024
X3.561Y-3.9587
X3.561Y-4.815
X3.5719Y-2.373
X3.5719Y-3.2293
X3.5719Y-4.0856
X3.5719Y-4.9419
X3.5728Y-2.0108
X3.5728Y-2.8671
X3.5728Y-3.7234
X3.5728Y-4.5797
X3.5748Y-2.3051
X3.5748Y-2.7687
X3.5748Y-3.1614
X3.5748Y-3.625
X3.5748Y-4.0177
X3.5748Y-4.4813
X3.5748Y-4.874
X3.5748Y-5.3376
X3.5827Y-2.5787
X3.5827Y-3.435
X3.5827Y-4.2913
X3.5827Y-5.1476
X3.6043Y-2.4341
X3.6043Y-3.2904
X3.6043Y-4.1467
X3.6043Y-5.003
X3.6053Y-2.0876
X3.6053Y-2.9439
X3.6053Y-3.8002
X3.6053Y-4.6565
X3.6073Y-2.3789
X3.6073Y-2.6447
X3.6073Y-3.2352
X3.6073Y-3.501
X3.6073Y-4.0915
X3.6073Y-4.3573
X3.6073Y-4.9478
X3.6073Y-5.2136
X3.6093Y-2.2303
X3.6093Y-3.0866
X3.6093Y-3.9429
X3.6093Y-4.7992
X3.6122Y-2.2894
X3.6122Y-2.7146
X3.6122Y-3.1457
X3.6122Y-3.5709
X3.6122Y-4.002
X3.6122Y-4.4272
X3.6122Y-4.8583
X3.6122Y-5.2835
X3.6161Y-2.4921
X3.6161Y-3.3484
X3.6161Y-4.2047
X3.6161Y-5.061
X3.6201Y-2.0413
X3.6201Y-2.8976
X3.6201Y-3.7539
X3.6201Y-4.6102
X3.624Y-2.5492
X3.624Y-3.4055
X3.624Y-4.2618
X3.624Y-5.1181
X3.625Y-2.1585
X3.625Y-3.0148
X3.625Y-3.8711
X3.625Y-4.7274
X3.7177Y-2.7193
X3.7177Y-3.5756
X3.7177Y-4.4319
X3.7177Y-5.2882
X3.7189Y-2.7752
X3.7189Y-3.6315
X3.7189Y-4.4878
X3.7189Y-5.3441
X3.7224Y-2.0177
X3.7224Y-2.5965
X3.7224Y-2.874
X3.7224Y-3.4528
X3.7224Y-3.7303
X3.7224Y-4.3091
X3.7224Y-4.5866
X3.7224Y-5.1654
X3.7264Y-2.498
X3.7264Y-3.3543
X3.7264Y-4.2106
X3.7264Y-5.0669
X3.753Y-2.6526
X3.753Y-3.5089
X3.753Y-4.3652
X3.753Y-5.2215
X3.7549Y-2.4449
X3.7549Y-3.3012
X3.7549Y-4.1575
X3.7549Y-5.0138
X3.7559Y-2.124
X3.7559Y-2.2264
X3.7559Y-2.3445
X3.7559Y-2.9803
X3.7559Y-3.0827
X3.7559Y-3.2008
X3.7559Y-3.8366
X3.7559Y-3.939
X3.7559Y-4.0571
X3.7559Y-4.6929
X3.7559Y-4.7953
X3.7559Y-4.9134
X3.7579Y-2.5502
X3.7579Y-3.4065
X3.7579Y-4.2628
X3.7579Y-5.1191
X3.7634Y-2.7094
X3.7634Y-3.5657
X3.7634Y-4.422
X3.7634Y-5.2783
X3.7687Y-2.7628
X3.7687Y-3.6191
X3.7687Y-4.4754
X3.7687Y-5.3317
X3.7748Y-2.5961
X3.7748Y-3.4524
X3.7748Y-4.3087
X3.7748Y-5.165
X3.7772Y-2.2882
X3.7772Y-2.4917
X3.7772Y-3.1445
X3.7772Y-3.348
X3.7772Y-4.0008
X3.7772Y-4.2043
X3.7772Y-4.8571
X3.7772Y-5.0606
X3.7795Y-2.3902
X3.7795Y-3.2465
X3.7795Y-4.1028
X3.7795Y-4.9591
X3.7854Y-2.0413
X3.7854Y-2.8976
X3.7854Y-3.7539
X3.7854Y-4.6102
X3.814Y-2.7215
X3.814Y-3.5778
X3.814Y-4.4341
X3.814Y-5.2904
X3.8406Y-2.0138
X3.8406Y-2.7687
X3.8406Y-2.8701
X3.8406Y-3.625
X3.8406Y-3.7264
X3.8406Y-4.4813
X3.8406Y-4.5827
X3.8406Y-5.3376
X3.8819Y-2.3898
X3.8819Y-3.2461
X3.8819Y-4.1024
X3.8819Y-4.9587
X3.8839Y-2.5913
X3.8839Y-2.7303
X3.8839Y-3.4476
X3.8839Y-3.5866
X3.8839Y-4.3039
X3.8839Y-4.4429
X3.8839Y-5.1602
X3.8839Y-5.2992
X3.8917Y-2.502
X3.8917Y-3.3583
X3.8917Y-4.2146
X3.8917Y-5.0709
X3.9035Y-2.0177
X3.9035Y-2.1358
X3.9035Y-2.1791
X3.9035Y-2.686
X3.9035Y-2.874
X3.9035Y-2.9921
X3.9035Y-3.0354
X3.9035Y-3.5423
X3.9035Y-3.7303
X3.9035Y-3.8484
X3.9035Y-3.8917
X3.9035Y-4.3986
X3.9035Y-4.5866
X3.9035Y-4.7047
X3.9035Y-4.748
X3.9035Y-5.2549
X3.9213Y-2.6102
X3.9213Y-3.4665
X3.9213Y-4.3228
X3.9213Y-5.1791
X3.9232Y-2.376
X3.9232Y-3.2323
X3.9232Y-4.0886
X3.9232Y-4.9449
X3.9262Y-2.4193
X3.9262Y-3.2756
X3.9262Y-4.1319
X3.9262Y-4.9882
X3.9272Y-2.2146
X3.9272Y-3.0709
X3.9272Y-3.9272
X3.9272Y-4.7835
X3.9282Y-2.31
X3.9282Y-3.1663
X3.9282Y-4.0226
X3.9282Y-4.8789
X3.9409Y-2.7589
X3.9409Y-3.6152
X3.9409Y-4.4715
X3.9409Y-5.3278
X3.9449Y-2.7106
X3.9449Y-3.5669
X3.9449Y-4.4232
X3.9449Y-5.2795
X3.9469Y-2.126
X3.9469Y-2.1634
X3.9469Y-2.6545
X3.9469Y-2.9823
X3.9469Y-3.0197
X3.9469Y-3.5108
X3.9469Y-3.8386
X3.9469Y-3.876
X3.9469Y-4.3671
X3.9469Y-4.6949
X3.9469Y-4.7323
X3.9469Y-5.2234
X3.9626Y-2.0177
X3.9626Y-2.874
X3.9626Y-3.7303
X3.9626Y-4.5866
X3.9823Y-2.3681
X3.9823Y-3.2244
X3.9823Y-4.0807
X3.9823Y-4.937
X3.9911Y-2.3091
X3.9911Y-3.1654
X3.9911Y-4.0217
X3.9911Y-4.878
X3.9941Y-2.687
X3.9941Y-3.5433
X3.9941Y-4.3996
X3.9941Y-5.2559
X3.9951Y-2.4862
X3.9951Y-3.3425
X3.9951Y-4.1988
X3.9951Y-5.0551
X3.999Y-2.7461
X3.999Y-3.6024
X3.999Y-4.4587
X3.999Y-5.315
X4.0059Y-2.126
X4.0059Y-2.1594
X4.0059Y-2.9823
X4.0059Y-3.0157
X4.0059Y-3.8386
X4.0059Y-3.872
X4.0059Y-4.6949
X4.0059Y-4.7283
X4.0108Y-2.0177
X4.0108Y-2.874
X4.0108Y-3.7303
X4.0108Y-4.5866
X4.0207Y-2.561
X4.0207Y-3.4173
X4.0207Y-4.2736
X4.0207Y-5.1299
X4.0492Y-2.372
X4.0492Y-3.2283
X4.0492Y-4.0846
X4.0492Y-4.9409
X4.061Y-2.0177
X4.061Y-2.874
X4.061Y-3.7303
X4.061Y-4.5866
X4.0679Y-2.311
X4.0679Y-3.1673
X4.0679Y-4.0236
X4.0679Y-4.8799
X4.0748Y-2.4902
X4.0748Y-3.3465
X4.0748Y-4.2028
X4.0748Y-5.0591
X4.0768Y-2.1476
X4.0768Y-3.0039
X4.0768Y-3.8602
X4.0768Y-4.7165
X4.0974Y-2.3711
X4.0974Y-3.2274
X4.0974Y-4.0837
X4.0974Y-4.94
X4.124Y-2.311
X4.124Y-3.1673
X4.124Y-4.0236
X4.124Y-4.8799
X4.1339Y-2.7884
X4.1339Y-3.6447
X4.1339Y-4.501
X4.1339Y-5.3573
X4.1358Y-2.0217
X4.1358Y-2.878
X4.1358Y-3.7343
X4.1358Y-4.5906
X4.1476Y-2.372
X4.1476Y-3.2283
X4.1476Y-4.0846
X4.1476Y-4.9409
X4.1496Y-2.1126
X4.1496Y-2.9689
X4.1496Y-3.8252
X4.1496Y-4.6815
X4.1516Y-2.1516
X4.1516Y-3.0079
X4.1516Y-3.8642
X4.1516Y-4.7205
X4.1683Y-2.5197
X4.1683Y-3.376
X4.1683Y-4.2323
X4.1683Y-5.0886
X4.1811Y-2.311
X4.1811Y-3.1673
X4.1811Y-4.0236
X4.1811Y-4.8799
X4.1988Y-2.0217
X4.1988Y-2.372
X4.1988Y-2.878
X4.1988Y-3.2283
X4.1988Y-3.7343
X4.1988Y-4.0846
X4.1988Y-4.5906
X4.1988Y-4.9409
X4.2579Y-2.4852
X4.2579Y-3.3415
X4.2579Y-4.1978
X4.2579Y-5.0541
X4.2657Y-2.3327
X4.2657Y-3.189
X4.2657Y-4.0453
X4.2657Y-4.9016
X4.2736Y-2.0217
X4.2736Y-2.878
X4.2736Y-3.7343
X4.2736Y-4.5906
X4.2815Y-2.1654
X4.2815Y-3.0217
X4.2815Y-3.878
X4.2815Y-4.7343
X4.2864Y-2.7392
X4.2864Y-3.5955
X4.2864Y-4.4518
X4.2864Y-5.3081
X4.2963Y-2.562
X4.2963Y-3.4183
X4.2963Y-4.2746
X4.2963Y-5.1309
X4.2972Y-2.3091
X4.2972Y-3.1654
X4.2972Y-4.0217
X4.2972Y-4.878
X4.3032Y-2.7844
X4.3032Y-3.6407
X4.3032Y-4.497
X4.3032Y-5.3533
X4.3248Y-2.6998
X4.3248Y-3.5561
X4.3248Y-4.4124
X4.3248Y-5.2687
X4.3406Y-2.0217
X4.3406Y-2.878
X4.3406Y-3.7343
X4.3406Y-4.5906
X4.3415Y-2.7657
X4.3415Y-3.622
X4.3415Y-4.4783
X4.3415Y-5.3346
X4.3484Y-2.3091
X4.3484Y-3.1654
X4.3484Y-4.0217
X4.3484Y-4.878
X4.3533Y-2.5049
X4.3533Y-3.3612
X4.3533Y-4.2175
X4.3533Y-5.0738
X4.3642Y-2.1319
X4.3642Y-2.3882
X4.3642Y-2.9882
X4.3642Y-3.2445
X4.3642Y-3.8445
X4.3642Y-4.1008
X4.3642Y-4.7008
X4.3642Y-4.9571
X4.3681Y-2.2421
X4.3681Y-3.0984
X4.3681Y-3.9547
X4.3681Y-4.811
X4.3711Y-2.6919
X4.3711Y-3.5482
X4.3711Y-4.4045
X4.3711Y-5.2608
X4.3839Y-2.1634
X4.3839Y-3.0197
X4.3839Y-3.876
X4.3839Y-4.7323
X4.3878Y-2.2067
X4.3878Y-3.063
X4.3878Y-3.9193
X4.3878Y-4.7756
X4.3907Y-2.5138
X4.3907Y-3.3701
X4.3907Y-4.2264
X4.3907Y-5.0827
X4.3947Y-2.7283
X4.3947Y-3.5846
X4.3947Y-4.4409
X4.3947Y-5.2972
X4.4085Y-2.6624
X4.4085Y-3.5187
X4.4085Y-4.375
X4.4085Y-5.2313
X4.4144Y-2.6201
X4.4144Y-3.4764
X4.4144Y-4.3327
X4.4144Y-5.189
X4.4154Y-2.7766
X4.4154Y-3.6329
X4.4154Y-4.4892
X4.4154Y-5.3455
X4.4193Y-2.0217
X4.4193Y-2.878
X4.4193Y-3.7343
X4.4193Y-4.5906
X4.4547Y-2.4469
X4.4547Y-3.3032
X4.4547Y-4.1594
X4.4547Y-5.0157
X4.4665Y-2.7382
X4.4665Y-3.5945
X4.4665Y-4.4508
X4.4665Y-5.3071
X4.4783Y-2.0217
X4.4783Y-2.1437
X4.4783Y-2.878
X4.4783Y-3.0
X4.4783Y-3.7343
X4.4783Y-3.8563
X4.4783Y-4.5906
X4.4783Y-4.7126
X4.4823Y-2.1909
X4.4823Y-3.0472
X4.4823Y-3.9035
X4.4823Y-4.7598
X4.498Y-2.4193
X4.498Y-3.2756
X4.498Y-4.1319
X4.498Y-4.9882
X4.5Y-2.7835
X4.5Y-3.6398
X4.5Y-4.4961
X4.5Y-5.3524
X4.502Y-2.2421
X4.502Y-2.376
X4.502Y-3.0984
X4.502Y-3.2323
X4.502Y-3.9547
X4.502Y-4.0886
X4.502Y-4.811
X4.502Y-4.9449
X4.5059Y-2.5965
X4.5059Y-2.6437
X4.5059Y-3.4528
X4.5059Y-3.5
X4.5059Y-4.3091
X4.5059Y-4.3563
X4.5059Y-5.1654
X4.5059Y-5.2126
X4.5138Y-2.1437
X4.5138Y-2.2894
X4.5138Y-3.0
X4.5138Y-3.1457
X4.5138Y-3.8563
X4.5138Y-4.002
X4.5138Y-4.7126
X4.5138Y-4.8583
X4.5177Y-2.4547
X4.5177Y-3.311
X4.5177Y-4.1673
X4.5177Y-5.0236
X4.5217Y-2.1909
X4.5217Y-3.0472
X4.5217Y-3.9035
X4.5217Y-4.7598
X4.5256Y-2.0217
X4.5256Y-2.878
X4.5256Y-3.7343
X4.5256Y-4.5906
X4.5453Y-2.2382
X4.5453Y-3.0945
X4.5453Y-3.9508
X4.5453Y-4.8071
X4.5492Y-2.2815
X4.5492Y-2.372
X4.5492Y-3.1378
X4.5492Y-3.2283
X4.5492Y-3.9941
X4.5492Y-4.0846
X4.5492Y-4.8504
X4.5492Y-4.9409
X4.5512Y-2.7854
X4.5512Y-3.6417
X4.5512Y-4.498
X4.5512Y-5.3543
X4.5532Y-2.4232
X4.5532Y-2.5965
X4.5532Y-3.2795
X4.5532Y-3.4528
X4.5532Y-4.1358
X4.5532Y-4.3091
X4.5532Y-4.9921
X4.5532Y-5.1654
X4.5571Y-2.1437
X4.5571Y-3.0
X4.5571Y-3.8563
X4.5571Y-4.7126
X4.565Y-2.1949
X4.565Y-3.0512
X4.565Y-3.9075
X4.565Y-4.7638
X4.5768Y-2.0079
X4.5768Y-2.8642
X4.5768Y-3.7205
X4.5768Y-4.5768
X4.5886Y-2.2382
X4.5886Y-2.2815
X4.5886Y-3.0945
X4.5886Y-3.1378
X4.5886Y-3.9508
X4.5886Y-3.9941
X4.5886Y-4.8071
X4.5886Y-4.8504
X4.6063Y-2.7864
X4.6063Y-3.6427
X4.6063Y-4.499
X4.6063Y-5.3553
X4.6526Y-2.5846
X4.6526Y-3.4409
X4.6526Y-4.2972
X4.6526Y-5.1535
X4.6555Y-2.0079
X4.6555Y-2.8642
X4.6555Y-3.7205
X4.6555Y-4.5768
X4.6762Y-2.7884
X4.6762Y-3.6447
X4.6762Y-4.501
X4.6762Y-5.3573
X4.7047Y-2.5984
X4.7047Y-3.4547
X4.7047Y-4.311
X4.7047Y-5.1673
X4.7244Y-2.0079
X4.7244Y-2.8642
X4.7244Y-3.7205
X4.7244Y-4.5768
X4.7421Y-2.1988
X4.7421Y-3.0551
X4.7421Y-3.9114
X4.7421Y-4.7677
X4.7433Y-2.3685
X4.7433Y-3.2248
X4.7433Y-4.0811
X4.7433Y-4.9374
X4.7441Y-2.2484
X4.7441Y-2.3159
X4.7441Y-3.1047
X4.7441Y-3.1722
X4.7441Y-3.961
X4.7441Y-4.0285
X4.7441Y-4.8173
X4.7441Y-4.8848
X4.747Y-2.5778
X4.747Y-2.7844
X4.747Y-3.4341
X4.747Y-3.6407
X4.747Y-4.2904
X4.747Y-4.497
X4.747Y-5.1467
X4.747Y-5.3533
X4.7492Y-2.4079
X4.7492Y-3.2642
X4.7492Y-4.1205
X4.7492Y-4.9768
X4.75Y-2.4469
X4.75Y-2.5217
X4.75Y-3.3032
X4.75Y-3.378
X4.75Y-4.1594
X4.75Y-4.2343
X4.75Y-5.0157
X4.75Y-5.0906
X4.7835Y-2.4803
X4.7835Y-2.5394
X4.7835Y-2.5984
X4.7835Y-3.3366
X4.7835Y-3.3957
X4.7835Y-3.4547
X4.7835Y-4.1929
X4.7835Y-4.252
X4.7835Y-4.311
X4.7835Y-5.0492
X4.7835Y-5.1083
X4.7835Y-5.1673
X4.7854Y-2.315
X4.7854Y-3.1713
X4.7854Y-4.0276
X4.7854Y-4.8839
X4.7904Y-2.4331
X4.7904Y-3.2894
X4.7904Y-4.1457
X4.7904Y-5.002
X4.8032Y-2.0079
X4.8032Y-2.8642
X4.8032Y-3.7205
X4.8032Y-4.5768
X4.814Y-2.5659
X4.814Y-3.4222
X4.814Y-4.2785
X4.814Y-5.1348
X4.8219Y-2.5128
X4.8219Y-3.3691
X4.8219Y-4.2254
X4.8219Y-5.0817
X4.8258Y-2.7825
X4.8258Y-3.6388
X4.8258Y-4.4951
X4.8258Y-5.3514
X4.8425Y-2.4606
X4.8425Y-3.3169
X4.8425Y-4.1732
X4.8425Y-5.0295
X4.8524Y-2.0079
X4.8524Y-2.8642
X4.8524Y-3.7205
X4.8524Y-4.5768
X4.8553Y-2.315
X4.8553Y-3.1713
X4.8553Y-4.0276
X4.8553Y-4.8839
X4.8642Y-2.1358
X4.8642Y-2.9921
X4.8642Y-3.8484
X4.8642Y-4.7047
X4.8829Y-2.439
X4.8829Y-3.2953
X4.8829Y-4.1516
X4.8829Y-5.0079
X4.9016Y-2.7844
X4.9016Y-3.6407
X4.9016Y-4.497
X4.9016Y-5.3533
X4.9035Y-2.0167
X4.9035Y-2.873
X4.9035Y-3.7293
X4.9035Y-4.5856
X4.9154Y-2.1516
X4.9154Y-3.0079
X4.9154Y-3.8642
X4.9154Y-4.7205
X4.9213Y-2.4114
X4.9213Y-3.2677
X4.9213Y-4.124
X4.9213Y-4.9803
X4.9272Y-2.3209
X4.9272Y-3.1772
X4.9272Y-4.0335
X4.9272Y-4.8898
X4.939Y-2.565
X4.939Y-3.4213
X4.939Y-4.2776
X4.939Y-5.1339
X4.9429Y-2.5965
X4.9429Y-3.4528
X4.9429Y-4.3091
X4.9429Y-5.1654
X4.9508Y-2.1988
X4.9508Y-3.0551
X4.9508Y-3.9114
X4.9508Y-4.7677
X4.9537Y-2.0118
X4.9537Y-2.8681
X4.9537Y-3.7244
X4.9537Y-4.5807
X4.9587Y-2.1516
X4.9587Y-3.0079
X4.9587Y-3.8642
X4.9587Y-4.7205
X4.9705Y-2.5295
X4.9705Y-3.3858
X4.9705Y-4.2421
X4.9705Y-5.0984
X4.9795Y-2.7642
X4.9795Y-3.6205
X4.9795Y-4.4768
X4.9795Y-5.3331
X4.9941Y-2.128
X4.9941Y-2.9843
X4.9941Y-3.8406
X4.9941Y-4.6969
X5.002Y-2.0187
X5.002Y-2.5846
X5.002Y-2.875
X5.002Y-3.4409
X5.002Y-3.7313
X5.002Y-4.2972
X5.002Y-4.5876
X5.002Y-5.1535
X5.0502Y-2.7736
X5.0502Y-3.6299
X5.0502Y-4.4862
X5.0502Y-5.3425
X5.0532Y-2.0217
X5.0532Y-2.878
X5.0532Y-3.7343
X5.0532Y-4.5906
X5.0618Y-2.5829
X5.0618Y-3.4392
X5.0618Y-4.2955
X5.0618Y-5.1518
X5.0984Y-2.0285
X5.0984Y-2.8848
X5.0984Y-3.7411
X5.0984Y-4.5974
X5.1004Y-2.3327
X5.1004Y-3.189
X5.1004Y-4.0453
X5.1004Y-4.9016
X5.1142Y-2.7756
X5.1142Y-3.6319
X5.1142Y-4.4882
X5.1142Y-5.3445
X5.1319Y-2.5935
X5.1319Y-3.4498
X5.1319Y-4.3061
X5.1319Y-5.1624
X5.1447Y-2.0295
X5.1447Y-2.8858
X5.1447Y-3.7421
X5.1447Y-4.5984
X5.1467Y-2.5276
X5.1467Y-3.3839
X5.1467Y-4.2402
X5.1467Y-5.0965
X5.1476Y-2.4744
X5.1476Y-3.3307
X5.1476Y-4.187
X5.1476Y-5.0433
X5.1594Y-2.4154
X5.1594Y-3.2717
X5.1594Y-4.128
X5.1594Y-4.9843
X5.1713Y-2.6348
X5.1713Y-3.4911
X5.1713Y-4.3474
X5.1713Y-5.2037
X5.1752Y-2.7106
X5.1752Y-3.5669
X5.1752Y-4.4232
X5.1752Y-5.2795
X5.187Y-2.0217
X5.187Y-2.878
X5.187Y-3.7343
X5.187Y-4.5906
X5.1909Y-2.0817
X5.1909Y-2.938
X5.1909Y-3.7943
X5.1909Y-4.6506
X5.2067Y-2.2421
X5.2067Y-2.2894
X5.2067Y-2.3366
X5.2067Y-2.3839
X5.2067Y-3.0984
X5.2067Y-3.1457
X5.2067Y-3.1929
X5.2067Y-3.2402
X5.2067Y-3.9547
X5.2067Y-4.002
X5.2067Y-4.0492
X5.2067Y-4.0965
X5.2067Y-4.811
X5.2067Y-4.8583
X5.2067Y-4.9055
X5.2067Y-4.9528
X5.2077Y-2.5738
X5.2077Y-2.7707
X5.2077Y-3.4301
X5.2077Y-3.627
X5.2077Y-4.2864
X5.2077Y-4.4833
X5.2077Y-5.1427
X5.2077Y-5.3396
X5.2096Y-2.0502
X5.2096Y-2.9065
X5.2096Y-3.7628
X5.2096Y-4.6191
X5.2333Y-2.4173
X5.2333Y-3.2736
X5.2333Y-4.1299
X5.2333Y-4.9862
X5.2411Y-2.7037
X5.2411Y-3.56
X5.2411Y-4.4163
X5.2411Y-5.2726
X5.2421Y-2.628
X5.2421Y-3.4843
X5.2421Y-4.3406
X5.2421Y-5.1969
X5.247Y-2.0915
X5.247Y-2.9478
X5.247Y-3.8041
X5.247Y-4.6604
X5.252Y-2.0512
X5.252Y-2.9075
X5.252Y-3.7638
X5.252Y-4.6201
X5.2539Y-2.2461
X5.2539Y-3.1024
X5.2539Y-3.9587
X5.2539Y-4.815
X5.2648Y-2.373
X5.2648Y-3.2293
X5.2648Y-4.0856
X5.2648Y-4.9419
X5.2657Y-2.0108
X5.2657Y-2.8671
X5.2657Y-3.7234
X5.2657Y-4.5797
X5.2677Y-2.3051
X5.2677Y-2.7687
X5.2677Y-3.1614
X5.2677Y-3.625
X5.2677Y-4.0177
X5.2677Y-4.4813
X5.2677Y-4.874
X5.2677Y-5.3376
X5.2756Y-2.5787
X5.2756Y-3.435
X5.2756Y-4.2913
X5.2756Y-5.1476
X5.2972Y-2.4341
X5.2972Y-3.2904
X5.2972Y-4.1467
X5.2972Y-5.003
X5.2982Y-2.0876
X5.2982Y-2.9439
X5.2982Y-3.8002
X5.2982Y-4.6565
X5.3002Y-2.3789
X5.3002Y-2.6447
X5.3002Y-3.2352
X5.3002Y-3.501
X5.3002Y-4.0915
X5.3002Y-4.3573
X5.3002Y-4.9478
X5.3002Y-5.2136
X5.3022Y-2.2303
X5.3022Y-3.0866
X5.3022Y-3.9429
X5.3022Y-4.7992
X5.3051Y-2.2894
X5.3051Y-2.7146
X5.3051Y-3.1457
X5.3051Y-3.5709
X5.3051Y-4.002
X5.3051Y-4.4272
X5.3051Y-4.8583
X5.3051Y-5.2835
X5.3091Y-2.4921
X5.3091Y-3.3484
X5.3091Y-4.2047
X5.3091Y-5.061
X5.313Y-2.0413
X5.313Y-2.8976
X5.313Y-3.7539
X5.313Y-4.6102
X5.3169Y-2.5492
X5.3169Y-3.4055
X5.3169Y-4.2618
X5.3169Y-5.1181
X5.3179Y-2.1585
X5.3179Y-3.0148
X5.3179Y-3.8711
X5.3179Y-4.7274
T3
X2.4Y-3.5925
X2.5Y-3.5925
X3.8327Y-4.7047
X3.8327Y-4.8047
X3.8327Y-4.9047
X3.8327Y-5.0047
X3.8327Y-5.1047
X3.8327Y-5.2047
X2.876Y-2.6791
X2.976Y-2.6791
X3.076Y-2.6791
X3.176Y-2.6791
X3.276Y-2.6791
X3.376Y-2.6791
X2.4Y-4.4488
X2.5Y-4.4488
X2.1398Y-2.9921
X2.1398Y-3.0921
X2.1398Y-3.1921
X2.1398Y-3.2921
X2.1398Y-3.3921
X2.1398Y-3.4921
X4.0929Y-3.5925
X4.1929Y-3.5925
X3.8327Y-2.9921
X3.8327Y-3.0921
X3.8327Y-3.1921
X3.8327Y-3.2921
X3.8327Y-3.3921
X3.8327Y-3.4921
X2.1398Y-4.7047
X2.1398Y-4.8047
X2.1398Y-4.9047
X2.1398Y-5.0047
X2.1398Y-5.1047
X2.1398Y-5.2047
X2.876Y-3.5354
X2.976Y-3.5354
X3.076Y-3.5354
X3.176Y-3.5354
X3.276Y-3.5354
X3.376Y-3.5354
X2.4Y-2.7362
X2.5Y-2.7362
X4.5689Y-5.248
X4.6689Y-5.248
X4.7689Y-5.248
X4.8689Y-5.248
X4.9689Y-5.248
X5.0689Y-5.248
X4.5689Y-3.5354
X4.6689Y-3.5354
X4.7689Y-3.5354
X4.8689Y-3.5354
X4.9689Y-3.5354
X5.0689Y-3.5354
X3.8327Y-2.1358
X3.8327Y-2.2358
X3.8327Y-2.3358
X3.8327Y-2.4358
X3.8327Y-2.5358
X3.8327Y-2.6358
X4.0929Y-5.3051
X4.1929Y-5.3051
X4.0929Y-2.7362
X4.1929Y-2.7362
X3.8327Y-3.8484
X3.8327Y-3.9484
X3.8327Y-4.0484
X3.8327Y-4.1484
X3.8327Y-4.2484
X3.8327Y-4.3484
X4.5689Y-2.6791
X4.6689Y-2.6791
X4.7689Y-2.6791
X4.8689Y-2.6791
X4.9689Y-2.6791
X5.0689Y-2.6791
X2.1398Y-3.8484
X2.1398Y-3.9484
X2.1398Y-4.0484
X2.1398Y-4.1484
X2.1398Y-4.2484
X2.1398Y-4.3484
X2.1398Y-2.1358
X2.1398Y-2.2358
X2.1398Y-2.3358
X2.1398Y-2.4358
X2.1398Y-2.5358
X2.1398Y-2.6358
X2.4Y-5.3051
X2.5Y-5.3051
X2.876Y-5.248
X2.976Y-5.248
X3.076Y-5.248
X3.176Y-5.248
X3.276Y-5.248
X3.376Y-5.248
X4.5689Y-4.3917
X4.6689Y-4.3917
X4.7689Y-4.3917
X4.8689Y-4.3917
X4.9689Y-4.3917
X5.0689Y-4.3917
X2.876Y-4.3917
X2.976Y-4.3917
X3.076Y-4.3917
X3.176Y-4.3917
X3.276Y-4.3917
X3.376Y-4.3917
X4.0929Y-4.4488
X4.1929Y-4.4488
T2
G00X5.0402Y-3.8693
M15
G01X5.0835Y-3.8693
M16
G05
G00X5.0402Y-4.2094
M15
G01X5.0835Y-4.2094
M16
G05
G00X5.2146Y-3.8693
M15
G01X5.2382Y-3.8693
M16
G05
G00X5.2146Y-4.2094
M15
G01X5.2382Y-4.2094
M16
G05
G00X3.3472Y-2.1567
M15
G01X3.3906Y-2.1567
M16
G05
G00X3.3472Y-2.4969
M15
G01X3.3906Y-2.4969
M16
G05
G00X3.5217Y-2.1567
M15
G01X3.5453Y-2.1567
M16
G05
G00X3.5217Y-2.4969
M15
G01X3.5453Y-2.4969
M16
G05
G00X3.3472Y-3.8693
M15
G01X3.3906Y-3.8693
M16
G05
G00X3.3472Y-4.2094
M15
G01X3.3906Y-4.2094
M16
G05
G00X3.5217Y-3.8693
M15
G01X3.5453Y-3.8693
M16
G05
G00X3.5217Y-4.2094
M15
G01X3.5453Y-4.2094
M16
G05
G00X3.3472Y-3.013
M15
G01X3.3906Y-3.013
M16
G05
G00X3.3472Y-3.3532
M15
G01X3.3906Y-3.3532
M16
G05
G00X3.5217Y-3.013
M15
G01X3.5453Y-3.013
M16
G05
G00X3.5217Y-3.3532
M15
G01X3.5453Y-3.3532
M16
G05
G00X5.0402Y-3.013
M15
G01X5.0835Y-3.013
M16
G05
G00X5.0402Y-3.3532
M15
G01X5.0835Y-3.3532
M16
G05
G00X5.2146Y-3.013
M15
G01X5.2382Y-3.013
M16
G05
G00X5.2146Y-3.3532
M15
G01X5.2382Y-3.3532
M16
G05
G00X5.0402Y-4.7256
M15
G01X5.0835Y-4.7256
M16
G05
G00X5.0402Y-5.0657
M15
G01X5.0835Y-5.0657
M16
G05
G00X5.2146Y-4.7256
M15
G01X5.2382Y-4.7256
M16
G05
G00X5.2146Y-5.0657
M15
G01X5.2382Y-5.0657
M16
G05
G00X5.0402Y-2.1567
M15
G01X5.0835Y-2.1567
M16
G05
G00X5.0402Y-2.4969
M15
G01X5.0835Y-2.4969
M16
G05
G00X5.2146Y-2.1567
M15
G01X5.2382Y-2.1567
M16
G05
G00X5.2146Y-2.4969
M15
G01X5.2382Y-2.4969
M16
G05
G00X3.3472Y-4.7256
M15
G01X3.3906Y-4.7256
M16
G05
G00X3.3472Y-5.0657
M15
G01X3.3906Y-5.0657
M16
G05
G00X3.5217Y-4.7256
M15
G01X3.5453Y-4.7256
M16
G05
G00X3.5217Y-5.0657
M15
G01X3.5453Y-5.0657
M16
G05
T0
M30
