G04 #@! TF.GenerationSoftware,KiCad,Pcbnew,5.1.7-a382d34a8~88~ubuntu20.04.1*
G04 #@! TF.CreationDate,2020-12-13T09:41:47+11:00*
G04 #@! TF.ProjectId,esp32-prog-panel,65737033-322d-4707-926f-672d70616e65,rev?*
G04 #@! TF.SameCoordinates,Original*
G04 #@! TF.FileFunction,Soldermask,Bot*
G04 #@! TF.FilePolarity,Negative*
%FSLAX46Y46*%
G04 Gerber Fmt 4.6, Leading zero omitted, Abs format (unit mm)*
G04 Created by KiCad (PCBNEW 5.1.7-a382d34a8~88~ubuntu20.04.1) date 2020-12-13 09:41:47*
%MOMM*%
%LPD*%
G01*
G04 APERTURE LIST*
%ADD10C,1.500000*%
%ADD11C,2.000000*%
%ADD12O,1.600000X1.000000*%
%ADD13C,0.650000*%
%ADD14O,2.100000X1.000000*%
%ADD15R,1.700000X1.700000*%
%ADD16O,1.700000X1.700000*%
G04 APERTURE END LIST*
D10*
X46000012Y-140000024D03*
X140000012Y-47000024D03*
X46000012Y-47000024D03*
D11*
X46000012Y-137000024D03*
X140000012Y-50000024D03*
X46000012Y-50000024D03*
D12*
X132750013Y-120030037D03*
D13*
X129100013Y-121460037D03*
D12*
X132750013Y-128670037D03*
D13*
X129100013Y-127240037D03*
D14*
X128570013Y-128670037D03*
X128570013Y-120030037D03*
D15*
X97350013Y-119500037D03*
D16*
X97350013Y-122040037D03*
X97350013Y-124580037D03*
X97350013Y-127120037D03*
X97350013Y-129660037D03*
X97350013Y-132200037D03*
D15*
X128750013Y-133300037D03*
D16*
X126210013Y-133300037D03*
X123670013Y-133300037D03*
X121130013Y-133300037D03*
X118590013Y-133300037D03*
X116050013Y-133300037D03*
X103960013Y-134750037D03*
D15*
X106500013Y-134750037D03*
D12*
X89750001Y-120030037D03*
D13*
X86100001Y-121460037D03*
D12*
X89750001Y-128670037D03*
D13*
X86100001Y-127240037D03*
D14*
X85570001Y-128670037D03*
X85570001Y-120030037D03*
D15*
X54350001Y-119500037D03*
D16*
X54350001Y-122040037D03*
X54350001Y-124580037D03*
X54350001Y-127120037D03*
X54350001Y-129660037D03*
X54350001Y-132200037D03*
D15*
X85750001Y-133300037D03*
D16*
X83210001Y-133300037D03*
X80670001Y-133300037D03*
X78130001Y-133300037D03*
X75590001Y-133300037D03*
X73050001Y-133300037D03*
X60960001Y-134750037D03*
D15*
X63500001Y-134750037D03*
D12*
X132750013Y-98280025D03*
D13*
X129100013Y-99710025D03*
D12*
X132750013Y-106920025D03*
D13*
X129100013Y-105490025D03*
D14*
X128570013Y-106920025D03*
X128570013Y-98280025D03*
D15*
X97350013Y-97750025D03*
D16*
X97350013Y-100290025D03*
X97350013Y-102830025D03*
X97350013Y-105370025D03*
X97350013Y-107910025D03*
X97350013Y-110450025D03*
D15*
X128750013Y-111550025D03*
D16*
X126210013Y-111550025D03*
X123670013Y-111550025D03*
X121130013Y-111550025D03*
X118590013Y-111550025D03*
X116050013Y-111550025D03*
X103960013Y-113000025D03*
D15*
X106500013Y-113000025D03*
D12*
X89750001Y-98280025D03*
D13*
X86100001Y-99710025D03*
D12*
X89750001Y-106920025D03*
D13*
X86100001Y-105490025D03*
D14*
X85570001Y-106920025D03*
X85570001Y-98280025D03*
D15*
X54350001Y-97750025D03*
D16*
X54350001Y-100290025D03*
X54350001Y-102830025D03*
X54350001Y-105370025D03*
X54350001Y-107910025D03*
X54350001Y-110450025D03*
D15*
X85750001Y-111550025D03*
D16*
X83210001Y-111550025D03*
X80670001Y-111550025D03*
X78130001Y-111550025D03*
X75590001Y-111550025D03*
X73050001Y-111550025D03*
X60960001Y-113000025D03*
D15*
X63500001Y-113000025D03*
D12*
X132750013Y-76530013D03*
D13*
X129100013Y-77960013D03*
D12*
X132750013Y-85170013D03*
D13*
X129100013Y-83740013D03*
D14*
X128570013Y-85170013D03*
X128570013Y-76530013D03*
D15*
X97350013Y-76000013D03*
D16*
X97350013Y-78540013D03*
X97350013Y-81080013D03*
X97350013Y-83620013D03*
X97350013Y-86160013D03*
X97350013Y-88700013D03*
D15*
X128750013Y-89800013D03*
D16*
X126210013Y-89800013D03*
X123670013Y-89800013D03*
X121130013Y-89800013D03*
X118590013Y-89800013D03*
X116050013Y-89800013D03*
X103960013Y-91250013D03*
D15*
X106500013Y-91250013D03*
D12*
X89750001Y-76530013D03*
D13*
X86100001Y-77960013D03*
D12*
X89750001Y-85170013D03*
D13*
X86100001Y-83740013D03*
D14*
X85570001Y-85170013D03*
X85570001Y-76530013D03*
D15*
X54350001Y-76000013D03*
D16*
X54350001Y-78540013D03*
X54350001Y-81080013D03*
X54350001Y-83620013D03*
X54350001Y-86160013D03*
X54350001Y-88700013D03*
D15*
X85750001Y-89800013D03*
D16*
X83210001Y-89800013D03*
X80670001Y-89800013D03*
X78130001Y-89800013D03*
X75590001Y-89800013D03*
X73050001Y-89800013D03*
X60960001Y-91250013D03*
D15*
X63500001Y-91250013D03*
D12*
X132750013Y-54780001D03*
D13*
X129100013Y-56210001D03*
D12*
X132750013Y-63420001D03*
D13*
X129100013Y-61990001D03*
D14*
X128570013Y-63420001D03*
X128570013Y-54780001D03*
D15*
X97350013Y-54250001D03*
D16*
X97350013Y-56790001D03*
X97350013Y-59330001D03*
X97350013Y-61870001D03*
X97350013Y-64410001D03*
X97350013Y-66950001D03*
D15*
X128750013Y-68050001D03*
D16*
X126210013Y-68050001D03*
X123670013Y-68050001D03*
X121130013Y-68050001D03*
X118590013Y-68050001D03*
X116050013Y-68050001D03*
X103960013Y-69500001D03*
D15*
X106500013Y-69500001D03*
D12*
X89750001Y-54780001D03*
D13*
X86100001Y-56210001D03*
D12*
X89750001Y-63420001D03*
D13*
X86100001Y-61990001D03*
D14*
X85570001Y-63420001D03*
X85570001Y-54780001D03*
D15*
X54350001Y-54250001D03*
D16*
X54350001Y-56790001D03*
X54350001Y-59330001D03*
X54350001Y-61870001D03*
X54350001Y-64410001D03*
X54350001Y-66950001D03*
D15*
X85750001Y-68050001D03*
D16*
X83210001Y-68050001D03*
X80670001Y-68050001D03*
X78130001Y-68050001D03*
X75590001Y-68050001D03*
X73050001Y-68050001D03*
X60960001Y-69500001D03*
D15*
X63500001Y-69500001D03*
M02*
