G04 #@! TF.GenerationSoftware,KiCad,Pcbnew,5.1.7-a382d34a8~88~ubuntu20.04.1*
G04 #@! TF.CreationDate,2020-12-13T09:41:47+11:00*
G04 #@! TF.ProjectId,esp32-prog-panel,65737033-322d-4707-926f-672d70616e65,rev?*
G04 #@! TF.SameCoordinates,Original*
G04 #@! TF.FileFunction,Legend,Top*
G04 #@! TF.FilePolarity,Positive*
%FSLAX46Y46*%
G04 Gerber Fmt 4.6, Leading zero omitted, Abs format (unit mm)*
G04 Created by KiCad (PCBNEW 5.1.7-a382d34a8~88~ubuntu20.04.1) date 2020-12-13 09:41:47*
%MOMM*%
%LPD*%
G01*
G04 APERTURE LIST*
%ADD10C,0.400000*%
%ADD11C,0.152400*%
%ADD12C,0.120000*%
%ADD13C,0.150000*%
G04 APERTURE END LIST*
D10*
X48904761Y-37549547D02*
X50904761Y-36882881D01*
X48904761Y-36216214D01*
X50142857Y-35549547D02*
X50142857Y-34025738D01*
X50714285Y-31930500D02*
X50809523Y-32025738D01*
X50904761Y-32311452D01*
X50904761Y-32501928D01*
X50809523Y-32787643D01*
X50619047Y-32978119D01*
X50428571Y-33073357D01*
X50047619Y-33168595D01*
X49761904Y-33168595D01*
X49380952Y-33073357D01*
X49190476Y-32978119D01*
X49000000Y-32787643D01*
X48904761Y-32501928D01*
X48904761Y-32311452D01*
X49000000Y-32025738D01*
X49095238Y-31930500D01*
X48904761Y-31073357D02*
X50523809Y-31073357D01*
X50714285Y-30978119D01*
X50809523Y-30882881D01*
X50904761Y-30692404D01*
X50904761Y-30311452D01*
X50809523Y-30120976D01*
X50714285Y-30025738D01*
X50523809Y-29930500D01*
X48904761Y-29930500D01*
X48904761Y-29263833D02*
X48904761Y-28120976D01*
X50904761Y-28692404D02*
X48904761Y-28692404D01*
X134904761Y-37549547D02*
X136904761Y-36882881D01*
X134904761Y-36216214D01*
X136142857Y-35549547D02*
X136142857Y-34025738D01*
X136714285Y-31930500D02*
X136809523Y-32025738D01*
X136904761Y-32311452D01*
X136904761Y-32501928D01*
X136809523Y-32787643D01*
X136619047Y-32978119D01*
X136428571Y-33073357D01*
X136047619Y-33168595D01*
X135761904Y-33168595D01*
X135380952Y-33073357D01*
X135190476Y-32978119D01*
X135000000Y-32787643D01*
X134904761Y-32501928D01*
X134904761Y-32311452D01*
X135000000Y-32025738D01*
X135095238Y-31930500D01*
X134904761Y-31073357D02*
X136523809Y-31073357D01*
X136714285Y-30978119D01*
X136809523Y-30882881D01*
X136904761Y-30692404D01*
X136904761Y-30311452D01*
X136809523Y-30120976D01*
X136714285Y-30025738D01*
X136523809Y-29930500D01*
X134904761Y-29930500D01*
X134904761Y-29263833D02*
X134904761Y-28120976D01*
X136904761Y-28692404D02*
X134904761Y-28692404D01*
X91904761Y-37549547D02*
X93904761Y-36882881D01*
X91904761Y-36216214D01*
X93142857Y-35549547D02*
X93142857Y-34025738D01*
X93714285Y-31930500D02*
X93809523Y-32025738D01*
X93904761Y-32311452D01*
X93904761Y-32501928D01*
X93809523Y-32787643D01*
X93619047Y-32978119D01*
X93428571Y-33073357D01*
X93047619Y-33168595D01*
X92761904Y-33168595D01*
X92380952Y-33073357D01*
X92190476Y-32978119D01*
X92000000Y-32787643D01*
X91904761Y-32501928D01*
X91904761Y-32311452D01*
X92000000Y-32025738D01*
X92095238Y-31930500D01*
X91904761Y-31073357D02*
X93523809Y-31073357D01*
X93714285Y-30978119D01*
X93809523Y-30882881D01*
X93904761Y-30692404D01*
X93904761Y-30311452D01*
X93809523Y-30120976D01*
X93714285Y-30025738D01*
X93523809Y-29930500D01*
X91904761Y-29930500D01*
X91904761Y-29263833D02*
X91904761Y-28120976D01*
X93904761Y-28692404D02*
X91904761Y-28692404D01*
X148950488Y-114154761D02*
X149617154Y-116154761D01*
X150283821Y-114154761D01*
X150950488Y-115392857D02*
X152474297Y-115392857D01*
X154569535Y-115964285D02*
X154474297Y-116059523D01*
X154188583Y-116154761D01*
X153998107Y-116154761D01*
X153712392Y-116059523D01*
X153521916Y-115869047D01*
X153426678Y-115678571D01*
X153331440Y-115297619D01*
X153331440Y-115011904D01*
X153426678Y-114630952D01*
X153521916Y-114440476D01*
X153712392Y-114250000D01*
X153998107Y-114154761D01*
X154188583Y-114154761D01*
X154474297Y-114250000D01*
X154569535Y-114345238D01*
X155426678Y-114154761D02*
X155426678Y-115773809D01*
X155521916Y-115964285D01*
X155617154Y-116059523D01*
X155807631Y-116154761D01*
X156188583Y-116154761D01*
X156379059Y-116059523D01*
X156474297Y-115964285D01*
X156569535Y-115773809D01*
X156569535Y-114154761D01*
X157236202Y-114154761D02*
X158379059Y-114154761D01*
X157807631Y-116154761D02*
X157807631Y-114154761D01*
X148950488Y-70654761D02*
X149617154Y-72654761D01*
X150283821Y-70654761D01*
X150950488Y-71892857D02*
X152474297Y-71892857D01*
X154569535Y-72464285D02*
X154474297Y-72559523D01*
X154188583Y-72654761D01*
X153998107Y-72654761D01*
X153712392Y-72559523D01*
X153521916Y-72369047D01*
X153426678Y-72178571D01*
X153331440Y-71797619D01*
X153331440Y-71511904D01*
X153426678Y-71130952D01*
X153521916Y-70940476D01*
X153712392Y-70750000D01*
X153998107Y-70654761D01*
X154188583Y-70654761D01*
X154474297Y-70750000D01*
X154569535Y-70845238D01*
X155426678Y-70654761D02*
X155426678Y-72273809D01*
X155521916Y-72464285D01*
X155617154Y-72559523D01*
X155807631Y-72654761D01*
X156188583Y-72654761D01*
X156379059Y-72559523D01*
X156474297Y-72464285D01*
X156569535Y-72273809D01*
X156569535Y-70654761D01*
X157236202Y-70654761D02*
X158379059Y-70654761D01*
X157807631Y-72654761D02*
X157807631Y-70654761D01*
X148950488Y-135904761D02*
X149617154Y-137904761D01*
X150283821Y-135904761D01*
X150950488Y-137142857D02*
X152474297Y-137142857D01*
X154569535Y-137714285D02*
X154474297Y-137809523D01*
X154188583Y-137904761D01*
X153998107Y-137904761D01*
X153712392Y-137809523D01*
X153521916Y-137619047D01*
X153426678Y-137428571D01*
X153331440Y-137047619D01*
X153331440Y-136761904D01*
X153426678Y-136380952D01*
X153521916Y-136190476D01*
X153712392Y-136000000D01*
X153998107Y-135904761D01*
X154188583Y-135904761D01*
X154474297Y-136000000D01*
X154569535Y-136095238D01*
X155426678Y-135904761D02*
X155426678Y-137523809D01*
X155521916Y-137714285D01*
X155617154Y-137809523D01*
X155807631Y-137904761D01*
X156188583Y-137904761D01*
X156379059Y-137809523D01*
X156474297Y-137714285D01*
X156569535Y-137523809D01*
X156569535Y-135904761D01*
X157236202Y-135904761D02*
X158379059Y-135904761D01*
X157807631Y-137904761D02*
X157807631Y-135904761D01*
X148950488Y-48904761D02*
X149617154Y-50904761D01*
X150283821Y-48904761D01*
X150950488Y-50142857D02*
X152474297Y-50142857D01*
X154569535Y-50714285D02*
X154474297Y-50809523D01*
X154188583Y-50904761D01*
X153998107Y-50904761D01*
X153712392Y-50809523D01*
X153521916Y-50619047D01*
X153426678Y-50428571D01*
X153331440Y-50047619D01*
X153331440Y-49761904D01*
X153426678Y-49380952D01*
X153521916Y-49190476D01*
X153712392Y-49000000D01*
X153998107Y-48904761D01*
X154188583Y-48904761D01*
X154474297Y-49000000D01*
X154569535Y-49095238D01*
X155426678Y-48904761D02*
X155426678Y-50523809D01*
X155521916Y-50714285D01*
X155617154Y-50809523D01*
X155807631Y-50904761D01*
X156188583Y-50904761D01*
X156379059Y-50809523D01*
X156474297Y-50714285D01*
X156569535Y-50523809D01*
X156569535Y-48904761D01*
X157236202Y-48904761D02*
X158379059Y-48904761D01*
X157807631Y-50904761D02*
X157807631Y-48904761D01*
X148950488Y-92404761D02*
X149617154Y-94404761D01*
X150283821Y-92404761D01*
X150950488Y-93642857D02*
X152474297Y-93642857D01*
X154569535Y-94214285D02*
X154474297Y-94309523D01*
X154188583Y-94404761D01*
X153998107Y-94404761D01*
X153712392Y-94309523D01*
X153521916Y-94119047D01*
X153426678Y-93928571D01*
X153331440Y-93547619D01*
X153331440Y-93261904D01*
X153426678Y-92880952D01*
X153521916Y-92690476D01*
X153712392Y-92500000D01*
X153998107Y-92404761D01*
X154188583Y-92404761D01*
X154474297Y-92500000D01*
X154569535Y-92595238D01*
X155426678Y-92404761D02*
X155426678Y-94023809D01*
X155521916Y-94214285D01*
X155617154Y-94309523D01*
X155807631Y-94404761D01*
X156188583Y-94404761D01*
X156379059Y-94309523D01*
X156474297Y-94214285D01*
X156569535Y-94023809D01*
X156569535Y-92404761D01*
X157236202Y-92404761D02*
X158379059Y-92404761D01*
X157807631Y-94404761D02*
X157807631Y-92404761D01*
D11*
X94797632Y-117050037D02*
X94797632Y-117607179D01*
X94416679Y-117307179D01*
X94416679Y-117435751D01*
X94369060Y-117521465D01*
X94321441Y-117564322D01*
X94226203Y-117607179D01*
X93988108Y-117607179D01*
X93892870Y-117564322D01*
X93845251Y-117521465D01*
X93797632Y-117435751D01*
X93797632Y-117178608D01*
X93845251Y-117092894D01*
X93892870Y-117050037D01*
X94464298Y-117907179D02*
X93797632Y-118121465D01*
X94464298Y-118335751D01*
X94797632Y-118592894D02*
X94797632Y-119150037D01*
X94416679Y-118850037D01*
X94416679Y-118978608D01*
X94369060Y-119064322D01*
X94321441Y-119107179D01*
X94226203Y-119150037D01*
X93988108Y-119150037D01*
X93892870Y-119107179D01*
X93845251Y-119064322D01*
X93797632Y-118978608D01*
X93797632Y-118721465D01*
X93845251Y-118635751D01*
X93892870Y-118592894D01*
X93797632Y-120735751D02*
X94273822Y-120435751D01*
X93797632Y-120221465D02*
X94797632Y-120221465D01*
X94797632Y-120564322D01*
X94750013Y-120650037D01*
X94702393Y-120692894D01*
X94607155Y-120735751D01*
X94464298Y-120735751D01*
X94369060Y-120692894D01*
X94321441Y-120650037D01*
X94273822Y-120564322D01*
X94273822Y-120221465D01*
X93797632Y-121035751D02*
X94464298Y-121507179D01*
X94464298Y-121035751D02*
X93797632Y-121507179D01*
X94797632Y-123092894D02*
X94797632Y-123607179D01*
X93797632Y-123350037D02*
X94797632Y-123350037D01*
X93797632Y-123821465D02*
X94464298Y-124292894D01*
X94464298Y-123821465D02*
X93797632Y-124292894D01*
X94321441Y-126007179D02*
X94321441Y-126307179D01*
X93797632Y-126435751D02*
X93797632Y-126007179D01*
X94797632Y-126007179D01*
X94797632Y-126435751D01*
X93797632Y-126821465D02*
X94797632Y-126821465D01*
X93797632Y-127335751D01*
X94797632Y-127335751D01*
X93797632Y-129135751D02*
X94797632Y-129135751D01*
X94797632Y-129735751D02*
X94797632Y-129907179D01*
X94750013Y-129992894D01*
X94654774Y-130078608D01*
X94464298Y-130121465D01*
X94130965Y-130121465D01*
X93940489Y-130078608D01*
X93845251Y-129992894D01*
X93797632Y-129907179D01*
X93797632Y-129735751D01*
X93845251Y-129650037D01*
X93940489Y-129564322D01*
X94130965Y-129521465D01*
X94464298Y-129521465D01*
X94654774Y-129564322D01*
X94750013Y-129650037D01*
X94797632Y-129735751D01*
X94797632Y-130678608D02*
X94797632Y-130764322D01*
X94750013Y-130850037D01*
X94702393Y-130892894D01*
X94607155Y-130935751D01*
X94416679Y-130978608D01*
X94178584Y-130978608D01*
X93988108Y-130935751D01*
X93892870Y-130892894D01*
X93845251Y-130850037D01*
X93797632Y-130764322D01*
X93797632Y-130678608D01*
X93845251Y-130592894D01*
X93892870Y-130550037D01*
X93988108Y-130507179D01*
X94178584Y-130464322D01*
X94416679Y-130464322D01*
X94607155Y-130507179D01*
X94702393Y-130550037D01*
X94750013Y-130592894D01*
X94797632Y-130678608D01*
X94750013Y-132521465D02*
X94797632Y-132435751D01*
X94797632Y-132307179D01*
X94750013Y-132178608D01*
X94654774Y-132092894D01*
X94559536Y-132050037D01*
X94369060Y-132007179D01*
X94226203Y-132007179D01*
X94035727Y-132050037D01*
X93940489Y-132092894D01*
X93845251Y-132178608D01*
X93797632Y-132307179D01*
X93797632Y-132392894D01*
X93845251Y-132521465D01*
X93892870Y-132564322D01*
X94226203Y-132564322D01*
X94226203Y-132392894D01*
X93797632Y-132950037D02*
X94797632Y-132950037D01*
X93797632Y-133464322D01*
X94797632Y-133464322D01*
X93797632Y-133892894D02*
X94797632Y-133892894D01*
X94797632Y-134107179D01*
X94750013Y-134235751D01*
X94654774Y-134321465D01*
X94559536Y-134364322D01*
X94369060Y-134407179D01*
X94226203Y-134407179D01*
X94035727Y-134364322D01*
X93940489Y-134321465D01*
X93845251Y-134235751D01*
X93797632Y-134107179D01*
X93797632Y-133892894D01*
X51797620Y-117050037D02*
X51797620Y-117607179D01*
X51416667Y-117307179D01*
X51416667Y-117435751D01*
X51369048Y-117521465D01*
X51321429Y-117564322D01*
X51226191Y-117607179D01*
X50988096Y-117607179D01*
X50892858Y-117564322D01*
X50845239Y-117521465D01*
X50797620Y-117435751D01*
X50797620Y-117178608D01*
X50845239Y-117092894D01*
X50892858Y-117050037D01*
X51464286Y-117907179D02*
X50797620Y-118121465D01*
X51464286Y-118335751D01*
X51797620Y-118592894D02*
X51797620Y-119150037D01*
X51416667Y-118850037D01*
X51416667Y-118978608D01*
X51369048Y-119064322D01*
X51321429Y-119107179D01*
X51226191Y-119150037D01*
X50988096Y-119150037D01*
X50892858Y-119107179D01*
X50845239Y-119064322D01*
X50797620Y-118978608D01*
X50797620Y-118721465D01*
X50845239Y-118635751D01*
X50892858Y-118592894D01*
X50797620Y-120735751D02*
X51273810Y-120435751D01*
X50797620Y-120221465D02*
X51797620Y-120221465D01*
X51797620Y-120564322D01*
X51750001Y-120650037D01*
X51702381Y-120692894D01*
X51607143Y-120735751D01*
X51464286Y-120735751D01*
X51369048Y-120692894D01*
X51321429Y-120650037D01*
X51273810Y-120564322D01*
X51273810Y-120221465D01*
X50797620Y-121035751D02*
X51464286Y-121507179D01*
X51464286Y-121035751D02*
X50797620Y-121507179D01*
X51797620Y-123092894D02*
X51797620Y-123607179D01*
X50797620Y-123350037D02*
X51797620Y-123350037D01*
X50797620Y-123821465D02*
X51464286Y-124292894D01*
X51464286Y-123821465D02*
X50797620Y-124292894D01*
X51321429Y-126007179D02*
X51321429Y-126307179D01*
X50797620Y-126435751D02*
X50797620Y-126007179D01*
X51797620Y-126007179D01*
X51797620Y-126435751D01*
X50797620Y-126821465D02*
X51797620Y-126821465D01*
X50797620Y-127335751D01*
X51797620Y-127335751D01*
X50797620Y-129135751D02*
X51797620Y-129135751D01*
X51797620Y-129735751D02*
X51797620Y-129907179D01*
X51750001Y-129992894D01*
X51654762Y-130078608D01*
X51464286Y-130121465D01*
X51130953Y-130121465D01*
X50940477Y-130078608D01*
X50845239Y-129992894D01*
X50797620Y-129907179D01*
X50797620Y-129735751D01*
X50845239Y-129650037D01*
X50940477Y-129564322D01*
X51130953Y-129521465D01*
X51464286Y-129521465D01*
X51654762Y-129564322D01*
X51750001Y-129650037D01*
X51797620Y-129735751D01*
X51797620Y-130678608D02*
X51797620Y-130764322D01*
X51750001Y-130850037D01*
X51702381Y-130892894D01*
X51607143Y-130935751D01*
X51416667Y-130978608D01*
X51178572Y-130978608D01*
X50988096Y-130935751D01*
X50892858Y-130892894D01*
X50845239Y-130850037D01*
X50797620Y-130764322D01*
X50797620Y-130678608D01*
X50845239Y-130592894D01*
X50892858Y-130550037D01*
X50988096Y-130507179D01*
X51178572Y-130464322D01*
X51416667Y-130464322D01*
X51607143Y-130507179D01*
X51702381Y-130550037D01*
X51750001Y-130592894D01*
X51797620Y-130678608D01*
X51750001Y-132521465D02*
X51797620Y-132435751D01*
X51797620Y-132307179D01*
X51750001Y-132178608D01*
X51654762Y-132092894D01*
X51559524Y-132050037D01*
X51369048Y-132007179D01*
X51226191Y-132007179D01*
X51035715Y-132050037D01*
X50940477Y-132092894D01*
X50845239Y-132178608D01*
X50797620Y-132307179D01*
X50797620Y-132392894D01*
X50845239Y-132521465D01*
X50892858Y-132564322D01*
X51226191Y-132564322D01*
X51226191Y-132392894D01*
X50797620Y-132950037D02*
X51797620Y-132950037D01*
X50797620Y-133464322D01*
X51797620Y-133464322D01*
X50797620Y-133892894D02*
X51797620Y-133892894D01*
X51797620Y-134107179D01*
X51750001Y-134235751D01*
X51654762Y-134321465D01*
X51559524Y-134364322D01*
X51369048Y-134407179D01*
X51226191Y-134407179D01*
X51035715Y-134364322D01*
X50940477Y-134321465D01*
X50845239Y-134235751D01*
X50797620Y-134107179D01*
X50797620Y-133892894D01*
X94797632Y-95300025D02*
X94797632Y-95857167D01*
X94416679Y-95557167D01*
X94416679Y-95685739D01*
X94369060Y-95771453D01*
X94321441Y-95814310D01*
X94226203Y-95857167D01*
X93988108Y-95857167D01*
X93892870Y-95814310D01*
X93845251Y-95771453D01*
X93797632Y-95685739D01*
X93797632Y-95428596D01*
X93845251Y-95342882D01*
X93892870Y-95300025D01*
X94464298Y-96157167D02*
X93797632Y-96371453D01*
X94464298Y-96585739D01*
X94797632Y-96842882D02*
X94797632Y-97400025D01*
X94416679Y-97100025D01*
X94416679Y-97228596D01*
X94369060Y-97314310D01*
X94321441Y-97357167D01*
X94226203Y-97400025D01*
X93988108Y-97400025D01*
X93892870Y-97357167D01*
X93845251Y-97314310D01*
X93797632Y-97228596D01*
X93797632Y-96971453D01*
X93845251Y-96885739D01*
X93892870Y-96842882D01*
X93797632Y-98985739D02*
X94273822Y-98685739D01*
X93797632Y-98471453D02*
X94797632Y-98471453D01*
X94797632Y-98814310D01*
X94750013Y-98900025D01*
X94702393Y-98942882D01*
X94607155Y-98985739D01*
X94464298Y-98985739D01*
X94369060Y-98942882D01*
X94321441Y-98900025D01*
X94273822Y-98814310D01*
X94273822Y-98471453D01*
X93797632Y-99285739D02*
X94464298Y-99757167D01*
X94464298Y-99285739D02*
X93797632Y-99757167D01*
X94797632Y-101342882D02*
X94797632Y-101857167D01*
X93797632Y-101600025D02*
X94797632Y-101600025D01*
X93797632Y-102071453D02*
X94464298Y-102542882D01*
X94464298Y-102071453D02*
X93797632Y-102542882D01*
X94321441Y-104257167D02*
X94321441Y-104557167D01*
X93797632Y-104685739D02*
X93797632Y-104257167D01*
X94797632Y-104257167D01*
X94797632Y-104685739D01*
X93797632Y-105071453D02*
X94797632Y-105071453D01*
X93797632Y-105585739D01*
X94797632Y-105585739D01*
X93797632Y-107385739D02*
X94797632Y-107385739D01*
X94797632Y-107985739D02*
X94797632Y-108157167D01*
X94750013Y-108242882D01*
X94654774Y-108328596D01*
X94464298Y-108371453D01*
X94130965Y-108371453D01*
X93940489Y-108328596D01*
X93845251Y-108242882D01*
X93797632Y-108157167D01*
X93797632Y-107985739D01*
X93845251Y-107900025D01*
X93940489Y-107814310D01*
X94130965Y-107771453D01*
X94464298Y-107771453D01*
X94654774Y-107814310D01*
X94750013Y-107900025D01*
X94797632Y-107985739D01*
X94797632Y-108928596D02*
X94797632Y-109014310D01*
X94750013Y-109100025D01*
X94702393Y-109142882D01*
X94607155Y-109185739D01*
X94416679Y-109228596D01*
X94178584Y-109228596D01*
X93988108Y-109185739D01*
X93892870Y-109142882D01*
X93845251Y-109100025D01*
X93797632Y-109014310D01*
X93797632Y-108928596D01*
X93845251Y-108842882D01*
X93892870Y-108800025D01*
X93988108Y-108757167D01*
X94178584Y-108714310D01*
X94416679Y-108714310D01*
X94607155Y-108757167D01*
X94702393Y-108800025D01*
X94750013Y-108842882D01*
X94797632Y-108928596D01*
X94750013Y-110771453D02*
X94797632Y-110685739D01*
X94797632Y-110557167D01*
X94750013Y-110428596D01*
X94654774Y-110342882D01*
X94559536Y-110300025D01*
X94369060Y-110257167D01*
X94226203Y-110257167D01*
X94035727Y-110300025D01*
X93940489Y-110342882D01*
X93845251Y-110428596D01*
X93797632Y-110557167D01*
X93797632Y-110642882D01*
X93845251Y-110771453D01*
X93892870Y-110814310D01*
X94226203Y-110814310D01*
X94226203Y-110642882D01*
X93797632Y-111200025D02*
X94797632Y-111200025D01*
X93797632Y-111714310D01*
X94797632Y-111714310D01*
X93797632Y-112142882D02*
X94797632Y-112142882D01*
X94797632Y-112357167D01*
X94750013Y-112485739D01*
X94654774Y-112571453D01*
X94559536Y-112614310D01*
X94369060Y-112657167D01*
X94226203Y-112657167D01*
X94035727Y-112614310D01*
X93940489Y-112571453D01*
X93845251Y-112485739D01*
X93797632Y-112357167D01*
X93797632Y-112142882D01*
X51797620Y-95300025D02*
X51797620Y-95857167D01*
X51416667Y-95557167D01*
X51416667Y-95685739D01*
X51369048Y-95771453D01*
X51321429Y-95814310D01*
X51226191Y-95857167D01*
X50988096Y-95857167D01*
X50892858Y-95814310D01*
X50845239Y-95771453D01*
X50797620Y-95685739D01*
X50797620Y-95428596D01*
X50845239Y-95342882D01*
X50892858Y-95300025D01*
X51464286Y-96157167D02*
X50797620Y-96371453D01*
X51464286Y-96585739D01*
X51797620Y-96842882D02*
X51797620Y-97400025D01*
X51416667Y-97100025D01*
X51416667Y-97228596D01*
X51369048Y-97314310D01*
X51321429Y-97357167D01*
X51226191Y-97400025D01*
X50988096Y-97400025D01*
X50892858Y-97357167D01*
X50845239Y-97314310D01*
X50797620Y-97228596D01*
X50797620Y-96971453D01*
X50845239Y-96885739D01*
X50892858Y-96842882D01*
X50797620Y-98985739D02*
X51273810Y-98685739D01*
X50797620Y-98471453D02*
X51797620Y-98471453D01*
X51797620Y-98814310D01*
X51750001Y-98900025D01*
X51702381Y-98942882D01*
X51607143Y-98985739D01*
X51464286Y-98985739D01*
X51369048Y-98942882D01*
X51321429Y-98900025D01*
X51273810Y-98814310D01*
X51273810Y-98471453D01*
X50797620Y-99285739D02*
X51464286Y-99757167D01*
X51464286Y-99285739D02*
X50797620Y-99757167D01*
X51797620Y-101342882D02*
X51797620Y-101857167D01*
X50797620Y-101600025D02*
X51797620Y-101600025D01*
X50797620Y-102071453D02*
X51464286Y-102542882D01*
X51464286Y-102071453D02*
X50797620Y-102542882D01*
X51321429Y-104257167D02*
X51321429Y-104557167D01*
X50797620Y-104685739D02*
X50797620Y-104257167D01*
X51797620Y-104257167D01*
X51797620Y-104685739D01*
X50797620Y-105071453D02*
X51797620Y-105071453D01*
X50797620Y-105585739D01*
X51797620Y-105585739D01*
X50797620Y-107385739D02*
X51797620Y-107385739D01*
X51797620Y-107985739D02*
X51797620Y-108157167D01*
X51750001Y-108242882D01*
X51654762Y-108328596D01*
X51464286Y-108371453D01*
X51130953Y-108371453D01*
X50940477Y-108328596D01*
X50845239Y-108242882D01*
X50797620Y-108157167D01*
X50797620Y-107985739D01*
X50845239Y-107900025D01*
X50940477Y-107814310D01*
X51130953Y-107771453D01*
X51464286Y-107771453D01*
X51654762Y-107814310D01*
X51750001Y-107900025D01*
X51797620Y-107985739D01*
X51797620Y-108928596D02*
X51797620Y-109014310D01*
X51750001Y-109100025D01*
X51702381Y-109142882D01*
X51607143Y-109185739D01*
X51416667Y-109228596D01*
X51178572Y-109228596D01*
X50988096Y-109185739D01*
X50892858Y-109142882D01*
X50845239Y-109100025D01*
X50797620Y-109014310D01*
X50797620Y-108928596D01*
X50845239Y-108842882D01*
X50892858Y-108800025D01*
X50988096Y-108757167D01*
X51178572Y-108714310D01*
X51416667Y-108714310D01*
X51607143Y-108757167D01*
X51702381Y-108800025D01*
X51750001Y-108842882D01*
X51797620Y-108928596D01*
X51750001Y-110771453D02*
X51797620Y-110685739D01*
X51797620Y-110557167D01*
X51750001Y-110428596D01*
X51654762Y-110342882D01*
X51559524Y-110300025D01*
X51369048Y-110257167D01*
X51226191Y-110257167D01*
X51035715Y-110300025D01*
X50940477Y-110342882D01*
X50845239Y-110428596D01*
X50797620Y-110557167D01*
X50797620Y-110642882D01*
X50845239Y-110771453D01*
X50892858Y-110814310D01*
X51226191Y-110814310D01*
X51226191Y-110642882D01*
X50797620Y-111200025D02*
X51797620Y-111200025D01*
X50797620Y-111714310D01*
X51797620Y-111714310D01*
X50797620Y-112142882D02*
X51797620Y-112142882D01*
X51797620Y-112357167D01*
X51750001Y-112485739D01*
X51654762Y-112571453D01*
X51559524Y-112614310D01*
X51369048Y-112657167D01*
X51226191Y-112657167D01*
X51035715Y-112614310D01*
X50940477Y-112571453D01*
X50845239Y-112485739D01*
X50797620Y-112357167D01*
X50797620Y-112142882D01*
X94797632Y-73550013D02*
X94797632Y-74107155D01*
X94416679Y-73807155D01*
X94416679Y-73935727D01*
X94369060Y-74021441D01*
X94321441Y-74064298D01*
X94226203Y-74107155D01*
X93988108Y-74107155D01*
X93892870Y-74064298D01*
X93845251Y-74021441D01*
X93797632Y-73935727D01*
X93797632Y-73678584D01*
X93845251Y-73592870D01*
X93892870Y-73550013D01*
X94464298Y-74407155D02*
X93797632Y-74621441D01*
X94464298Y-74835727D01*
X94797632Y-75092870D02*
X94797632Y-75650013D01*
X94416679Y-75350013D01*
X94416679Y-75478584D01*
X94369060Y-75564298D01*
X94321441Y-75607155D01*
X94226203Y-75650013D01*
X93988108Y-75650013D01*
X93892870Y-75607155D01*
X93845251Y-75564298D01*
X93797632Y-75478584D01*
X93797632Y-75221441D01*
X93845251Y-75135727D01*
X93892870Y-75092870D01*
X93797632Y-77235727D02*
X94273822Y-76935727D01*
X93797632Y-76721441D02*
X94797632Y-76721441D01*
X94797632Y-77064298D01*
X94750013Y-77150013D01*
X94702393Y-77192870D01*
X94607155Y-77235727D01*
X94464298Y-77235727D01*
X94369060Y-77192870D01*
X94321441Y-77150013D01*
X94273822Y-77064298D01*
X94273822Y-76721441D01*
X93797632Y-77535727D02*
X94464298Y-78007155D01*
X94464298Y-77535727D02*
X93797632Y-78007155D01*
X94797632Y-79592870D02*
X94797632Y-80107155D01*
X93797632Y-79850013D02*
X94797632Y-79850013D01*
X93797632Y-80321441D02*
X94464298Y-80792870D01*
X94464298Y-80321441D02*
X93797632Y-80792870D01*
X94321441Y-82507155D02*
X94321441Y-82807155D01*
X93797632Y-82935727D02*
X93797632Y-82507155D01*
X94797632Y-82507155D01*
X94797632Y-82935727D01*
X93797632Y-83321441D02*
X94797632Y-83321441D01*
X93797632Y-83835727D01*
X94797632Y-83835727D01*
X93797632Y-85635727D02*
X94797632Y-85635727D01*
X94797632Y-86235727D02*
X94797632Y-86407155D01*
X94750013Y-86492870D01*
X94654774Y-86578584D01*
X94464298Y-86621441D01*
X94130965Y-86621441D01*
X93940489Y-86578584D01*
X93845251Y-86492870D01*
X93797632Y-86407155D01*
X93797632Y-86235727D01*
X93845251Y-86150013D01*
X93940489Y-86064298D01*
X94130965Y-86021441D01*
X94464298Y-86021441D01*
X94654774Y-86064298D01*
X94750013Y-86150013D01*
X94797632Y-86235727D01*
X94797632Y-87178584D02*
X94797632Y-87264298D01*
X94750013Y-87350013D01*
X94702393Y-87392870D01*
X94607155Y-87435727D01*
X94416679Y-87478584D01*
X94178584Y-87478584D01*
X93988108Y-87435727D01*
X93892870Y-87392870D01*
X93845251Y-87350013D01*
X93797632Y-87264298D01*
X93797632Y-87178584D01*
X93845251Y-87092870D01*
X93892870Y-87050013D01*
X93988108Y-87007155D01*
X94178584Y-86964298D01*
X94416679Y-86964298D01*
X94607155Y-87007155D01*
X94702393Y-87050013D01*
X94750013Y-87092870D01*
X94797632Y-87178584D01*
X94750013Y-89021441D02*
X94797632Y-88935727D01*
X94797632Y-88807155D01*
X94750013Y-88678584D01*
X94654774Y-88592870D01*
X94559536Y-88550013D01*
X94369060Y-88507155D01*
X94226203Y-88507155D01*
X94035727Y-88550013D01*
X93940489Y-88592870D01*
X93845251Y-88678584D01*
X93797632Y-88807155D01*
X93797632Y-88892870D01*
X93845251Y-89021441D01*
X93892870Y-89064298D01*
X94226203Y-89064298D01*
X94226203Y-88892870D01*
X93797632Y-89450013D02*
X94797632Y-89450013D01*
X93797632Y-89964298D01*
X94797632Y-89964298D01*
X93797632Y-90392870D02*
X94797632Y-90392870D01*
X94797632Y-90607155D01*
X94750013Y-90735727D01*
X94654774Y-90821441D01*
X94559536Y-90864298D01*
X94369060Y-90907155D01*
X94226203Y-90907155D01*
X94035727Y-90864298D01*
X93940489Y-90821441D01*
X93845251Y-90735727D01*
X93797632Y-90607155D01*
X93797632Y-90392870D01*
X51797620Y-73550013D02*
X51797620Y-74107155D01*
X51416667Y-73807155D01*
X51416667Y-73935727D01*
X51369048Y-74021441D01*
X51321429Y-74064298D01*
X51226191Y-74107155D01*
X50988096Y-74107155D01*
X50892858Y-74064298D01*
X50845239Y-74021441D01*
X50797620Y-73935727D01*
X50797620Y-73678584D01*
X50845239Y-73592870D01*
X50892858Y-73550013D01*
X51464286Y-74407155D02*
X50797620Y-74621441D01*
X51464286Y-74835727D01*
X51797620Y-75092870D02*
X51797620Y-75650013D01*
X51416667Y-75350013D01*
X51416667Y-75478584D01*
X51369048Y-75564298D01*
X51321429Y-75607155D01*
X51226191Y-75650013D01*
X50988096Y-75650013D01*
X50892858Y-75607155D01*
X50845239Y-75564298D01*
X50797620Y-75478584D01*
X50797620Y-75221441D01*
X50845239Y-75135727D01*
X50892858Y-75092870D01*
X50797620Y-77235727D02*
X51273810Y-76935727D01*
X50797620Y-76721441D02*
X51797620Y-76721441D01*
X51797620Y-77064298D01*
X51750001Y-77150013D01*
X51702381Y-77192870D01*
X51607143Y-77235727D01*
X51464286Y-77235727D01*
X51369048Y-77192870D01*
X51321429Y-77150013D01*
X51273810Y-77064298D01*
X51273810Y-76721441D01*
X50797620Y-77535727D02*
X51464286Y-78007155D01*
X51464286Y-77535727D02*
X50797620Y-78007155D01*
X51797620Y-79592870D02*
X51797620Y-80107155D01*
X50797620Y-79850013D02*
X51797620Y-79850013D01*
X50797620Y-80321441D02*
X51464286Y-80792870D01*
X51464286Y-80321441D02*
X50797620Y-80792870D01*
X51321429Y-82507155D02*
X51321429Y-82807155D01*
X50797620Y-82935727D02*
X50797620Y-82507155D01*
X51797620Y-82507155D01*
X51797620Y-82935727D01*
X50797620Y-83321441D02*
X51797620Y-83321441D01*
X50797620Y-83835727D01*
X51797620Y-83835727D01*
X50797620Y-85635727D02*
X51797620Y-85635727D01*
X51797620Y-86235727D02*
X51797620Y-86407155D01*
X51750001Y-86492870D01*
X51654762Y-86578584D01*
X51464286Y-86621441D01*
X51130953Y-86621441D01*
X50940477Y-86578584D01*
X50845239Y-86492870D01*
X50797620Y-86407155D01*
X50797620Y-86235727D01*
X50845239Y-86150013D01*
X50940477Y-86064298D01*
X51130953Y-86021441D01*
X51464286Y-86021441D01*
X51654762Y-86064298D01*
X51750001Y-86150013D01*
X51797620Y-86235727D01*
X51797620Y-87178584D02*
X51797620Y-87264298D01*
X51750001Y-87350013D01*
X51702381Y-87392870D01*
X51607143Y-87435727D01*
X51416667Y-87478584D01*
X51178572Y-87478584D01*
X50988096Y-87435727D01*
X50892858Y-87392870D01*
X50845239Y-87350013D01*
X50797620Y-87264298D01*
X50797620Y-87178584D01*
X50845239Y-87092870D01*
X50892858Y-87050013D01*
X50988096Y-87007155D01*
X51178572Y-86964298D01*
X51416667Y-86964298D01*
X51607143Y-87007155D01*
X51702381Y-87050013D01*
X51750001Y-87092870D01*
X51797620Y-87178584D01*
X51750001Y-89021441D02*
X51797620Y-88935727D01*
X51797620Y-88807155D01*
X51750001Y-88678584D01*
X51654762Y-88592870D01*
X51559524Y-88550013D01*
X51369048Y-88507155D01*
X51226191Y-88507155D01*
X51035715Y-88550013D01*
X50940477Y-88592870D01*
X50845239Y-88678584D01*
X50797620Y-88807155D01*
X50797620Y-88892870D01*
X50845239Y-89021441D01*
X50892858Y-89064298D01*
X51226191Y-89064298D01*
X51226191Y-88892870D01*
X50797620Y-89450013D02*
X51797620Y-89450013D01*
X50797620Y-89964298D01*
X51797620Y-89964298D01*
X50797620Y-90392870D02*
X51797620Y-90392870D01*
X51797620Y-90607155D01*
X51750001Y-90735727D01*
X51654762Y-90821441D01*
X51559524Y-90864298D01*
X51369048Y-90907155D01*
X51226191Y-90907155D01*
X51035715Y-90864298D01*
X50940477Y-90821441D01*
X50845239Y-90735727D01*
X50797620Y-90607155D01*
X50797620Y-90392870D01*
X94797632Y-51800001D02*
X94797632Y-52357143D01*
X94416679Y-52057143D01*
X94416679Y-52185715D01*
X94369060Y-52271429D01*
X94321441Y-52314286D01*
X94226203Y-52357143D01*
X93988108Y-52357143D01*
X93892870Y-52314286D01*
X93845251Y-52271429D01*
X93797632Y-52185715D01*
X93797632Y-51928572D01*
X93845251Y-51842858D01*
X93892870Y-51800001D01*
X94464298Y-52657143D02*
X93797632Y-52871429D01*
X94464298Y-53085715D01*
X94797632Y-53342858D02*
X94797632Y-53900001D01*
X94416679Y-53600001D01*
X94416679Y-53728572D01*
X94369060Y-53814286D01*
X94321441Y-53857143D01*
X94226203Y-53900001D01*
X93988108Y-53900001D01*
X93892870Y-53857143D01*
X93845251Y-53814286D01*
X93797632Y-53728572D01*
X93797632Y-53471429D01*
X93845251Y-53385715D01*
X93892870Y-53342858D01*
X93797632Y-55485715D02*
X94273822Y-55185715D01*
X93797632Y-54971429D02*
X94797632Y-54971429D01*
X94797632Y-55314286D01*
X94750013Y-55400001D01*
X94702393Y-55442858D01*
X94607155Y-55485715D01*
X94464298Y-55485715D01*
X94369060Y-55442858D01*
X94321441Y-55400001D01*
X94273822Y-55314286D01*
X94273822Y-54971429D01*
X93797632Y-55785715D02*
X94464298Y-56257143D01*
X94464298Y-55785715D02*
X93797632Y-56257143D01*
X94797632Y-57842858D02*
X94797632Y-58357143D01*
X93797632Y-58100001D02*
X94797632Y-58100001D01*
X93797632Y-58571429D02*
X94464298Y-59042858D01*
X94464298Y-58571429D02*
X93797632Y-59042858D01*
X94321441Y-60757143D02*
X94321441Y-61057143D01*
X93797632Y-61185715D02*
X93797632Y-60757143D01*
X94797632Y-60757143D01*
X94797632Y-61185715D01*
X93797632Y-61571429D02*
X94797632Y-61571429D01*
X93797632Y-62085715D01*
X94797632Y-62085715D01*
X93797632Y-63885715D02*
X94797632Y-63885715D01*
X94797632Y-64485715D02*
X94797632Y-64657143D01*
X94750013Y-64742858D01*
X94654774Y-64828572D01*
X94464298Y-64871429D01*
X94130965Y-64871429D01*
X93940489Y-64828572D01*
X93845251Y-64742858D01*
X93797632Y-64657143D01*
X93797632Y-64485715D01*
X93845251Y-64400001D01*
X93940489Y-64314286D01*
X94130965Y-64271429D01*
X94464298Y-64271429D01*
X94654774Y-64314286D01*
X94750013Y-64400001D01*
X94797632Y-64485715D01*
X94797632Y-65428572D02*
X94797632Y-65514286D01*
X94750013Y-65600001D01*
X94702393Y-65642858D01*
X94607155Y-65685715D01*
X94416679Y-65728572D01*
X94178584Y-65728572D01*
X93988108Y-65685715D01*
X93892870Y-65642858D01*
X93845251Y-65600001D01*
X93797632Y-65514286D01*
X93797632Y-65428572D01*
X93845251Y-65342858D01*
X93892870Y-65300001D01*
X93988108Y-65257143D01*
X94178584Y-65214286D01*
X94416679Y-65214286D01*
X94607155Y-65257143D01*
X94702393Y-65300001D01*
X94750013Y-65342858D01*
X94797632Y-65428572D01*
X94750013Y-67271429D02*
X94797632Y-67185715D01*
X94797632Y-67057143D01*
X94750013Y-66928572D01*
X94654774Y-66842858D01*
X94559536Y-66800001D01*
X94369060Y-66757143D01*
X94226203Y-66757143D01*
X94035727Y-66800001D01*
X93940489Y-66842858D01*
X93845251Y-66928572D01*
X93797632Y-67057143D01*
X93797632Y-67142858D01*
X93845251Y-67271429D01*
X93892870Y-67314286D01*
X94226203Y-67314286D01*
X94226203Y-67142858D01*
X93797632Y-67700001D02*
X94797632Y-67700001D01*
X93797632Y-68214286D01*
X94797632Y-68214286D01*
X93797632Y-68642858D02*
X94797632Y-68642858D01*
X94797632Y-68857143D01*
X94750013Y-68985715D01*
X94654774Y-69071429D01*
X94559536Y-69114286D01*
X94369060Y-69157143D01*
X94226203Y-69157143D01*
X94035727Y-69114286D01*
X93940489Y-69071429D01*
X93845251Y-68985715D01*
X93797632Y-68857143D01*
X93797632Y-68642858D01*
X51797620Y-51800000D02*
X51797620Y-52357143D01*
X51416667Y-52057143D01*
X51416667Y-52185715D01*
X51369048Y-52271429D01*
X51321429Y-52314286D01*
X51226191Y-52357143D01*
X50988096Y-52357143D01*
X50892858Y-52314286D01*
X50845239Y-52271429D01*
X50797620Y-52185715D01*
X50797620Y-51928572D01*
X50845239Y-51842858D01*
X50892858Y-51800000D01*
X51464286Y-52657143D02*
X50797620Y-52871429D01*
X51464286Y-53085715D01*
X51797620Y-53342858D02*
X51797620Y-53900000D01*
X51416667Y-53600000D01*
X51416667Y-53728572D01*
X51369048Y-53814286D01*
X51321429Y-53857143D01*
X51226191Y-53900000D01*
X50988096Y-53900000D01*
X50892858Y-53857143D01*
X50845239Y-53814286D01*
X50797620Y-53728572D01*
X50797620Y-53471429D01*
X50845239Y-53385715D01*
X50892858Y-53342858D01*
X50797620Y-55485715D02*
X51273810Y-55185715D01*
X50797620Y-54971429D02*
X51797620Y-54971429D01*
X51797620Y-55314286D01*
X51750001Y-55400000D01*
X51702381Y-55442858D01*
X51607143Y-55485715D01*
X51464286Y-55485715D01*
X51369048Y-55442858D01*
X51321429Y-55400000D01*
X51273810Y-55314286D01*
X51273810Y-54971429D01*
X50797620Y-55785715D02*
X51464286Y-56257143D01*
X51464286Y-55785715D02*
X50797620Y-56257143D01*
X51797620Y-57842858D02*
X51797620Y-58357143D01*
X50797620Y-58100000D02*
X51797620Y-58100000D01*
X50797620Y-58571429D02*
X51464286Y-59042858D01*
X51464286Y-58571429D02*
X50797620Y-59042858D01*
X51321429Y-60757143D02*
X51321429Y-61057143D01*
X50797620Y-61185715D02*
X50797620Y-60757143D01*
X51797620Y-60757143D01*
X51797620Y-61185715D01*
X50797620Y-61571429D02*
X51797620Y-61571429D01*
X50797620Y-62085715D01*
X51797620Y-62085715D01*
X50797620Y-63885715D02*
X51797620Y-63885715D01*
X51797620Y-64485715D02*
X51797620Y-64657143D01*
X51750001Y-64742858D01*
X51654762Y-64828572D01*
X51464286Y-64871429D01*
X51130953Y-64871429D01*
X50940477Y-64828572D01*
X50845239Y-64742858D01*
X50797620Y-64657143D01*
X50797620Y-64485715D01*
X50845239Y-64400001D01*
X50940477Y-64314286D01*
X51130953Y-64271429D01*
X51464286Y-64271429D01*
X51654762Y-64314286D01*
X51750001Y-64400001D01*
X51797620Y-64485715D01*
X51797620Y-65428572D02*
X51797620Y-65514286D01*
X51750001Y-65600000D01*
X51702381Y-65642858D01*
X51607143Y-65685715D01*
X51416667Y-65728572D01*
X51178572Y-65728572D01*
X50988096Y-65685715D01*
X50892858Y-65642858D01*
X50845239Y-65600000D01*
X50797620Y-65514286D01*
X50797620Y-65428572D01*
X50845239Y-65342858D01*
X50892858Y-65300000D01*
X50988096Y-65257143D01*
X51178572Y-65214286D01*
X51416667Y-65214286D01*
X51607143Y-65257143D01*
X51702381Y-65300000D01*
X51750001Y-65342858D01*
X51797620Y-65428572D01*
X51750001Y-67271429D02*
X51797620Y-67185715D01*
X51797620Y-67057143D01*
X51750001Y-66928572D01*
X51654762Y-66842858D01*
X51559524Y-66800000D01*
X51369048Y-66757143D01*
X51226191Y-66757143D01*
X51035715Y-66800000D01*
X50940477Y-66842858D01*
X50845239Y-66928572D01*
X50797620Y-67057143D01*
X50797620Y-67142858D01*
X50845239Y-67271429D01*
X50892858Y-67314286D01*
X51226191Y-67314286D01*
X51226191Y-67142858D01*
X50797620Y-67700001D02*
X51797620Y-67700001D01*
X50797620Y-68214286D01*
X51797620Y-68214286D01*
X50797620Y-68642858D02*
X51797620Y-68642858D01*
X51797620Y-68857143D01*
X51750001Y-68985715D01*
X51654762Y-69071429D01*
X51559524Y-69114286D01*
X51369048Y-69157143D01*
X51226191Y-69157143D01*
X51035715Y-69114286D01*
X50940477Y-69071429D01*
X50845239Y-68985715D01*
X50797620Y-68857143D01*
X50797620Y-68642858D01*
D12*
X108911265Y-118565037D02*
X108388761Y-118565037D01*
X108911265Y-120035037D02*
X108388761Y-120035037D01*
X113988761Y-130035037D02*
X114511265Y-130035037D01*
X113988761Y-128565037D02*
X114511265Y-128565037D01*
X117888761Y-120435037D02*
X118411265Y-120435037D01*
X117888761Y-118965037D02*
X118411265Y-118965037D01*
X117888761Y-130035037D02*
X118411265Y-130035037D01*
X117888761Y-128565037D02*
X118411265Y-128565037D01*
X135600013Y-129050037D02*
X135600013Y-119650037D01*
X129800013Y-119650037D02*
X131800013Y-119650037D01*
X133700013Y-119650037D02*
X135600013Y-119650037D01*
X129800013Y-129050037D02*
X131800013Y-129050037D01*
X133700013Y-129050037D02*
X135600013Y-129050037D01*
X97350013Y-118170037D02*
X98680013Y-118170037D01*
X98680013Y-118170037D02*
X98680013Y-119500037D01*
X98680013Y-120770037D02*
X98680013Y-133530037D01*
X96020013Y-133530037D02*
X98680013Y-133530037D01*
X96020013Y-120770037D02*
X96020013Y-133530037D01*
X96020013Y-120770037D02*
X98680013Y-120770037D01*
X130080013Y-133300037D02*
X130080013Y-134630037D01*
X130080013Y-134630037D02*
X128750013Y-134630037D01*
X127480013Y-134630037D02*
X114720013Y-134630037D01*
X114720013Y-131970037D02*
X114720013Y-134630037D01*
X127480013Y-131970037D02*
X114720013Y-131970037D01*
X127480013Y-131970037D02*
X127480013Y-134630037D01*
X105385013Y-130527101D02*
X105385013Y-130072973D01*
X103915013Y-130527101D02*
X103915013Y-130072973D01*
X106315013Y-130072973D02*
X106315013Y-130527101D01*
X107785013Y-130072973D02*
X107785013Y-130527101D01*
X122777077Y-121865037D02*
X122322949Y-121865037D01*
X122777077Y-123335037D02*
X122322949Y-123335037D01*
X122777077Y-124865037D02*
X122322949Y-124865037D01*
X122777077Y-126335037D02*
X122322949Y-126335037D01*
X119750013Y-127910037D02*
X113740013Y-127910037D01*
X117500013Y-121090037D02*
X113740013Y-121090037D01*
X113740013Y-127910037D02*
X113740013Y-126650037D01*
X113740013Y-121090037D02*
X113740013Y-122350037D01*
X110810013Y-131880037D02*
X110810013Y-130950037D01*
X110810013Y-128720037D02*
X110810013Y-129650037D01*
X110810013Y-128720037D02*
X108650013Y-128720037D01*
X110810013Y-131880037D02*
X109350013Y-131880037D01*
X100490013Y-128720037D02*
X100490013Y-129650037D01*
X100490013Y-131880037D02*
X100490013Y-130950037D01*
X100490013Y-131880037D02*
X102650013Y-131880037D01*
X100490013Y-128720037D02*
X101950013Y-128720037D01*
X110410013Y-124400037D02*
X110410013Y-120950037D01*
X110410013Y-124400037D02*
X110410013Y-126350037D01*
X100290013Y-124400037D02*
X100290013Y-122450037D01*
X100290013Y-124400037D02*
X100290013Y-126350037D01*
X65911253Y-118565037D02*
X65388749Y-118565037D01*
X65911253Y-120035037D02*
X65388749Y-120035037D01*
X70988749Y-130035037D02*
X71511253Y-130035037D01*
X70988749Y-128565037D02*
X71511253Y-128565037D01*
X74888749Y-120435037D02*
X75411253Y-120435037D01*
X74888749Y-118965037D02*
X75411253Y-118965037D01*
X74888749Y-130035037D02*
X75411253Y-130035037D01*
X74888749Y-128565037D02*
X75411253Y-128565037D01*
X92600001Y-129050037D02*
X92600001Y-119650037D01*
X86800001Y-119650037D02*
X88800001Y-119650037D01*
X90700001Y-119650037D02*
X92600001Y-119650037D01*
X86800001Y-129050037D02*
X88800001Y-129050037D01*
X90700001Y-129050037D02*
X92600001Y-129050037D01*
X54350001Y-118170037D02*
X55680001Y-118170037D01*
X55680001Y-118170037D02*
X55680001Y-119500037D01*
X55680001Y-120770037D02*
X55680001Y-133530037D01*
X53020001Y-133530037D02*
X55680001Y-133530037D01*
X53020001Y-120770037D02*
X53020001Y-133530037D01*
X53020001Y-120770037D02*
X55680001Y-120770037D01*
X87080001Y-133300037D02*
X87080001Y-134630037D01*
X87080001Y-134630037D02*
X85750001Y-134630037D01*
X84480001Y-134630037D02*
X71720001Y-134630037D01*
X71720001Y-131970037D02*
X71720001Y-134630037D01*
X84480001Y-131970037D02*
X71720001Y-131970037D01*
X84480001Y-131970037D02*
X84480001Y-134630037D01*
X62385001Y-130527101D02*
X62385001Y-130072973D01*
X60915001Y-130527101D02*
X60915001Y-130072973D01*
X63315001Y-130072973D02*
X63315001Y-130527101D01*
X64785001Y-130072973D02*
X64785001Y-130527101D01*
X79777065Y-121865037D02*
X79322937Y-121865037D01*
X79777065Y-123335037D02*
X79322937Y-123335037D01*
X79777065Y-124865037D02*
X79322937Y-124865037D01*
X79777065Y-126335037D02*
X79322937Y-126335037D01*
X76750001Y-127910037D02*
X70740001Y-127910037D01*
X74500001Y-121090037D02*
X70740001Y-121090037D01*
X70740001Y-127910037D02*
X70740001Y-126650037D01*
X70740001Y-121090037D02*
X70740001Y-122350037D01*
X67810001Y-131880037D02*
X67810001Y-130950037D01*
X67810001Y-128720037D02*
X67810001Y-129650037D01*
X67810001Y-128720037D02*
X65650001Y-128720037D01*
X67810001Y-131880037D02*
X66350001Y-131880037D01*
X57490001Y-128720037D02*
X57490001Y-129650037D01*
X57490001Y-131880037D02*
X57490001Y-130950037D01*
X57490001Y-131880037D02*
X59650001Y-131880037D01*
X57490001Y-128720037D02*
X58950001Y-128720037D01*
X67410001Y-124400037D02*
X67410001Y-120950037D01*
X67410001Y-124400037D02*
X67410001Y-126350037D01*
X57290001Y-124400037D02*
X57290001Y-122450037D01*
X57290001Y-124400037D02*
X57290001Y-126350037D01*
X108911265Y-96815025D02*
X108388761Y-96815025D01*
X108911265Y-98285025D02*
X108388761Y-98285025D01*
X113988761Y-108285025D02*
X114511265Y-108285025D01*
X113988761Y-106815025D02*
X114511265Y-106815025D01*
X117888761Y-98685025D02*
X118411265Y-98685025D01*
X117888761Y-97215025D02*
X118411265Y-97215025D01*
X117888761Y-108285025D02*
X118411265Y-108285025D01*
X117888761Y-106815025D02*
X118411265Y-106815025D01*
X135600013Y-107300025D02*
X135600013Y-97900025D01*
X129800013Y-97900025D02*
X131800013Y-97900025D01*
X133700013Y-97900025D02*
X135600013Y-97900025D01*
X129800013Y-107300025D02*
X131800013Y-107300025D01*
X133700013Y-107300025D02*
X135600013Y-107300025D01*
X97350013Y-96420025D02*
X98680013Y-96420025D01*
X98680013Y-96420025D02*
X98680013Y-97750025D01*
X98680013Y-99020025D02*
X98680013Y-111780025D01*
X96020013Y-111780025D02*
X98680013Y-111780025D01*
X96020013Y-99020025D02*
X96020013Y-111780025D01*
X96020013Y-99020025D02*
X98680013Y-99020025D01*
X130080013Y-111550025D02*
X130080013Y-112880025D01*
X130080013Y-112880025D02*
X128750013Y-112880025D01*
X127480013Y-112880025D02*
X114720013Y-112880025D01*
X114720013Y-110220025D02*
X114720013Y-112880025D01*
X127480013Y-110220025D02*
X114720013Y-110220025D01*
X127480013Y-110220025D02*
X127480013Y-112880025D01*
X105385013Y-108777089D02*
X105385013Y-108322961D01*
X103915013Y-108777089D02*
X103915013Y-108322961D01*
X106315013Y-108322961D02*
X106315013Y-108777089D01*
X107785013Y-108322961D02*
X107785013Y-108777089D01*
X122777077Y-100115025D02*
X122322949Y-100115025D01*
X122777077Y-101585025D02*
X122322949Y-101585025D01*
X122777077Y-103115025D02*
X122322949Y-103115025D01*
X122777077Y-104585025D02*
X122322949Y-104585025D01*
X119750013Y-106160025D02*
X113740013Y-106160025D01*
X117500013Y-99340025D02*
X113740013Y-99340025D01*
X113740013Y-106160025D02*
X113740013Y-104900025D01*
X113740013Y-99340025D02*
X113740013Y-100600025D01*
X110810013Y-110130025D02*
X110810013Y-109200025D01*
X110810013Y-106970025D02*
X110810013Y-107900025D01*
X110810013Y-106970025D02*
X108650013Y-106970025D01*
X110810013Y-110130025D02*
X109350013Y-110130025D01*
X100490013Y-106970025D02*
X100490013Y-107900025D01*
X100490013Y-110130025D02*
X100490013Y-109200025D01*
X100490013Y-110130025D02*
X102650013Y-110130025D01*
X100490013Y-106970025D02*
X101950013Y-106970025D01*
X110410013Y-102650025D02*
X110410013Y-99200025D01*
X110410013Y-102650025D02*
X110410013Y-104600025D01*
X100290013Y-102650025D02*
X100290013Y-100700025D01*
X100290013Y-102650025D02*
X100290013Y-104600025D01*
X65911253Y-96815025D02*
X65388749Y-96815025D01*
X65911253Y-98285025D02*
X65388749Y-98285025D01*
X70988749Y-108285025D02*
X71511253Y-108285025D01*
X70988749Y-106815025D02*
X71511253Y-106815025D01*
X74888749Y-98685025D02*
X75411253Y-98685025D01*
X74888749Y-97215025D02*
X75411253Y-97215025D01*
X74888749Y-108285025D02*
X75411253Y-108285025D01*
X74888749Y-106815025D02*
X75411253Y-106815025D01*
X92600001Y-107300025D02*
X92600001Y-97900025D01*
X86800001Y-97900025D02*
X88800001Y-97900025D01*
X90700001Y-97900025D02*
X92600001Y-97900025D01*
X86800001Y-107300025D02*
X88800001Y-107300025D01*
X90700001Y-107300025D02*
X92600001Y-107300025D01*
X54350001Y-96420025D02*
X55680001Y-96420025D01*
X55680001Y-96420025D02*
X55680001Y-97750025D01*
X55680001Y-99020025D02*
X55680001Y-111780025D01*
X53020001Y-111780025D02*
X55680001Y-111780025D01*
X53020001Y-99020025D02*
X53020001Y-111780025D01*
X53020001Y-99020025D02*
X55680001Y-99020025D01*
X87080001Y-111550025D02*
X87080001Y-112880025D01*
X87080001Y-112880025D02*
X85750001Y-112880025D01*
X84480001Y-112880025D02*
X71720001Y-112880025D01*
X71720001Y-110220025D02*
X71720001Y-112880025D01*
X84480001Y-110220025D02*
X71720001Y-110220025D01*
X84480001Y-110220025D02*
X84480001Y-112880025D01*
X62385001Y-108777089D02*
X62385001Y-108322961D01*
X60915001Y-108777089D02*
X60915001Y-108322961D01*
X63315001Y-108322961D02*
X63315001Y-108777089D01*
X64785001Y-108322961D02*
X64785001Y-108777089D01*
X79777065Y-100115025D02*
X79322937Y-100115025D01*
X79777065Y-101585025D02*
X79322937Y-101585025D01*
X79777065Y-103115025D02*
X79322937Y-103115025D01*
X79777065Y-104585025D02*
X79322937Y-104585025D01*
X76750001Y-106160025D02*
X70740001Y-106160025D01*
X74500001Y-99340025D02*
X70740001Y-99340025D01*
X70740001Y-106160025D02*
X70740001Y-104900025D01*
X70740001Y-99340025D02*
X70740001Y-100600025D01*
X67810001Y-110130025D02*
X67810001Y-109200025D01*
X67810001Y-106970025D02*
X67810001Y-107900025D01*
X67810001Y-106970025D02*
X65650001Y-106970025D01*
X67810001Y-110130025D02*
X66350001Y-110130025D01*
X57490001Y-106970025D02*
X57490001Y-107900025D01*
X57490001Y-110130025D02*
X57490001Y-109200025D01*
X57490001Y-110130025D02*
X59650001Y-110130025D01*
X57490001Y-106970025D02*
X58950001Y-106970025D01*
X67410001Y-102650025D02*
X67410001Y-99200025D01*
X67410001Y-102650025D02*
X67410001Y-104600025D01*
X57290001Y-102650025D02*
X57290001Y-100700025D01*
X57290001Y-102650025D02*
X57290001Y-104600025D01*
X108911265Y-75065013D02*
X108388761Y-75065013D01*
X108911265Y-76535013D02*
X108388761Y-76535013D01*
X113988761Y-86535013D02*
X114511265Y-86535013D01*
X113988761Y-85065013D02*
X114511265Y-85065013D01*
X117888761Y-76935013D02*
X118411265Y-76935013D01*
X117888761Y-75465013D02*
X118411265Y-75465013D01*
X117888761Y-86535013D02*
X118411265Y-86535013D01*
X117888761Y-85065013D02*
X118411265Y-85065013D01*
X135600013Y-85550013D02*
X135600013Y-76150013D01*
X129800013Y-76150013D02*
X131800013Y-76150013D01*
X133700013Y-76150013D02*
X135600013Y-76150013D01*
X129800013Y-85550013D02*
X131800013Y-85550013D01*
X133700013Y-85550013D02*
X135600013Y-85550013D01*
X97350013Y-74670013D02*
X98680013Y-74670013D01*
X98680013Y-74670013D02*
X98680013Y-76000013D01*
X98680013Y-77270013D02*
X98680013Y-90030013D01*
X96020013Y-90030013D02*
X98680013Y-90030013D01*
X96020013Y-77270013D02*
X96020013Y-90030013D01*
X96020013Y-77270013D02*
X98680013Y-77270013D01*
X130080013Y-89800013D02*
X130080013Y-91130013D01*
X130080013Y-91130013D02*
X128750013Y-91130013D01*
X127480013Y-91130013D02*
X114720013Y-91130013D01*
X114720013Y-88470013D02*
X114720013Y-91130013D01*
X127480013Y-88470013D02*
X114720013Y-88470013D01*
X127480013Y-88470013D02*
X127480013Y-91130013D01*
X105385013Y-87027077D02*
X105385013Y-86572949D01*
X103915013Y-87027077D02*
X103915013Y-86572949D01*
X106315013Y-86572949D02*
X106315013Y-87027077D01*
X107785013Y-86572949D02*
X107785013Y-87027077D01*
X122777077Y-78365013D02*
X122322949Y-78365013D01*
X122777077Y-79835013D02*
X122322949Y-79835013D01*
X122777077Y-81365013D02*
X122322949Y-81365013D01*
X122777077Y-82835013D02*
X122322949Y-82835013D01*
X119750013Y-84410013D02*
X113740013Y-84410013D01*
X117500013Y-77590013D02*
X113740013Y-77590013D01*
X113740013Y-84410013D02*
X113740013Y-83150013D01*
X113740013Y-77590013D02*
X113740013Y-78850013D01*
X110810013Y-88380013D02*
X110810013Y-87450013D01*
X110810013Y-85220013D02*
X110810013Y-86150013D01*
X110810013Y-85220013D02*
X108650013Y-85220013D01*
X110810013Y-88380013D02*
X109350013Y-88380013D01*
X100490013Y-85220013D02*
X100490013Y-86150013D01*
X100490013Y-88380013D02*
X100490013Y-87450013D01*
X100490013Y-88380013D02*
X102650013Y-88380013D01*
X100490013Y-85220013D02*
X101950013Y-85220013D01*
X110410013Y-80900013D02*
X110410013Y-77450013D01*
X110410013Y-80900013D02*
X110410013Y-82850013D01*
X100290013Y-80900013D02*
X100290013Y-78950013D01*
X100290013Y-80900013D02*
X100290013Y-82850013D01*
X65911253Y-75065013D02*
X65388749Y-75065013D01*
X65911253Y-76535013D02*
X65388749Y-76535013D01*
X70988749Y-86535013D02*
X71511253Y-86535013D01*
X70988749Y-85065013D02*
X71511253Y-85065013D01*
X74888749Y-76935013D02*
X75411253Y-76935013D01*
X74888749Y-75465013D02*
X75411253Y-75465013D01*
X74888749Y-86535013D02*
X75411253Y-86535013D01*
X74888749Y-85065013D02*
X75411253Y-85065013D01*
X92600001Y-85550013D02*
X92600001Y-76150013D01*
X86800001Y-76150013D02*
X88800001Y-76150013D01*
X90700001Y-76150013D02*
X92600001Y-76150013D01*
X86800001Y-85550013D02*
X88800001Y-85550013D01*
X90700001Y-85550013D02*
X92600001Y-85550013D01*
X54350001Y-74670013D02*
X55680001Y-74670013D01*
X55680001Y-74670013D02*
X55680001Y-76000013D01*
X55680001Y-77270013D02*
X55680001Y-90030013D01*
X53020001Y-90030013D02*
X55680001Y-90030013D01*
X53020001Y-77270013D02*
X53020001Y-90030013D01*
X53020001Y-77270013D02*
X55680001Y-77270013D01*
X87080001Y-89800013D02*
X87080001Y-91130013D01*
X87080001Y-91130013D02*
X85750001Y-91130013D01*
X84480001Y-91130013D02*
X71720001Y-91130013D01*
X71720001Y-88470013D02*
X71720001Y-91130013D01*
X84480001Y-88470013D02*
X71720001Y-88470013D01*
X84480001Y-88470013D02*
X84480001Y-91130013D01*
X62385001Y-87027077D02*
X62385001Y-86572949D01*
X60915001Y-87027077D02*
X60915001Y-86572949D01*
X63315001Y-86572949D02*
X63315001Y-87027077D01*
X64785001Y-86572949D02*
X64785001Y-87027077D01*
X79777065Y-78365013D02*
X79322937Y-78365013D01*
X79777065Y-79835013D02*
X79322937Y-79835013D01*
X79777065Y-81365013D02*
X79322937Y-81365013D01*
X79777065Y-82835013D02*
X79322937Y-82835013D01*
X76750001Y-84410013D02*
X70740001Y-84410013D01*
X74500001Y-77590013D02*
X70740001Y-77590013D01*
X70740001Y-84410013D02*
X70740001Y-83150013D01*
X70740001Y-77590013D02*
X70740001Y-78850013D01*
X67810001Y-88380013D02*
X67810001Y-87450013D01*
X67810001Y-85220013D02*
X67810001Y-86150013D01*
X67810001Y-85220013D02*
X65650001Y-85220013D01*
X67810001Y-88380013D02*
X66350001Y-88380013D01*
X57490001Y-85220013D02*
X57490001Y-86150013D01*
X57490001Y-88380013D02*
X57490001Y-87450013D01*
X57490001Y-88380013D02*
X59650001Y-88380013D01*
X57490001Y-85220013D02*
X58950001Y-85220013D01*
X67410001Y-80900013D02*
X67410001Y-77450013D01*
X67410001Y-80900013D02*
X67410001Y-82850013D01*
X57290001Y-80900013D02*
X57290001Y-78950013D01*
X57290001Y-80900013D02*
X57290001Y-82850013D01*
X108911265Y-53315001D02*
X108388761Y-53315001D01*
X108911265Y-54785001D02*
X108388761Y-54785001D01*
X113988761Y-64785001D02*
X114511265Y-64785001D01*
X113988761Y-63315001D02*
X114511265Y-63315001D01*
X117888761Y-55185001D02*
X118411265Y-55185001D01*
X117888761Y-53715001D02*
X118411265Y-53715001D01*
X117888761Y-64785001D02*
X118411265Y-64785001D01*
X117888761Y-63315001D02*
X118411265Y-63315001D01*
X135600013Y-63800001D02*
X135600013Y-54400001D01*
X129800013Y-54400001D02*
X131800013Y-54400001D01*
X133700013Y-54400001D02*
X135600013Y-54400001D01*
X129800013Y-63800001D02*
X131800013Y-63800001D01*
X133700013Y-63800001D02*
X135600013Y-63800001D01*
X97350013Y-52920001D02*
X98680013Y-52920001D01*
X98680013Y-52920001D02*
X98680013Y-54250001D01*
X98680013Y-55520001D02*
X98680013Y-68280001D01*
X96020013Y-68280001D02*
X98680013Y-68280001D01*
X96020013Y-55520001D02*
X96020013Y-68280001D01*
X96020013Y-55520001D02*
X98680013Y-55520001D01*
X130080013Y-68050001D02*
X130080013Y-69380001D01*
X130080013Y-69380001D02*
X128750013Y-69380001D01*
X127480013Y-69380001D02*
X114720013Y-69380001D01*
X114720013Y-66720001D02*
X114720013Y-69380001D01*
X127480013Y-66720001D02*
X114720013Y-66720001D01*
X127480013Y-66720001D02*
X127480013Y-69380001D01*
X105385013Y-65277065D02*
X105385013Y-64822937D01*
X103915013Y-65277065D02*
X103915013Y-64822937D01*
X106315013Y-64822937D02*
X106315013Y-65277065D01*
X107785013Y-64822937D02*
X107785013Y-65277065D01*
X122777077Y-56615001D02*
X122322949Y-56615001D01*
X122777077Y-58085001D02*
X122322949Y-58085001D01*
X122777077Y-59615001D02*
X122322949Y-59615001D01*
X122777077Y-61085001D02*
X122322949Y-61085001D01*
X119750013Y-62660001D02*
X113740013Y-62660001D01*
X117500013Y-55840001D02*
X113740013Y-55840001D01*
X113740013Y-62660001D02*
X113740013Y-61400001D01*
X113740013Y-55840001D02*
X113740013Y-57100001D01*
X110810013Y-66630001D02*
X110810013Y-65700001D01*
X110810013Y-63470001D02*
X110810013Y-64400001D01*
X110810013Y-63470001D02*
X108650013Y-63470001D01*
X110810013Y-66630001D02*
X109350013Y-66630001D01*
X100490013Y-63470001D02*
X100490013Y-64400001D01*
X100490013Y-66630001D02*
X100490013Y-65700001D01*
X100490013Y-66630001D02*
X102650013Y-66630001D01*
X100490013Y-63470001D02*
X101950013Y-63470001D01*
X110410013Y-59150001D02*
X110410013Y-55700001D01*
X110410013Y-59150001D02*
X110410013Y-61100001D01*
X100290013Y-59150001D02*
X100290013Y-57200001D01*
X100290013Y-59150001D02*
X100290013Y-61100001D01*
X65911253Y-53315001D02*
X65388749Y-53315001D01*
X65911253Y-54785001D02*
X65388749Y-54785001D01*
X70988749Y-64785001D02*
X71511253Y-64785001D01*
X70988749Y-63315001D02*
X71511253Y-63315001D01*
X74888749Y-55185001D02*
X75411253Y-55185001D01*
X74888749Y-53715001D02*
X75411253Y-53715001D01*
X74888749Y-64785001D02*
X75411253Y-64785001D01*
X74888749Y-63315001D02*
X75411253Y-63315001D01*
X92600001Y-63800001D02*
X92600001Y-54400001D01*
X86800001Y-54400001D02*
X88800001Y-54400001D01*
X90700001Y-54400001D02*
X92600001Y-54400001D01*
X86800001Y-63800001D02*
X88800001Y-63800001D01*
X90700001Y-63800001D02*
X92600001Y-63800001D01*
X54350001Y-52920001D02*
X55680001Y-52920001D01*
X55680001Y-52920001D02*
X55680001Y-54250001D01*
X55680001Y-55520001D02*
X55680001Y-68280001D01*
X53020001Y-68280001D02*
X55680001Y-68280001D01*
X53020001Y-55520001D02*
X53020001Y-68280001D01*
X53020001Y-55520001D02*
X55680001Y-55520001D01*
X87080001Y-68050001D02*
X87080001Y-69380001D01*
X87080001Y-69380001D02*
X85750001Y-69380001D01*
X84480001Y-69380001D02*
X71720001Y-69380001D01*
X71720001Y-66720001D02*
X71720001Y-69380001D01*
X84480001Y-66720001D02*
X71720001Y-66720001D01*
X84480001Y-66720001D02*
X84480001Y-69380001D01*
X62385001Y-65277065D02*
X62385001Y-64822937D01*
X60915001Y-65277065D02*
X60915001Y-64822937D01*
X63315001Y-64822937D02*
X63315001Y-65277065D01*
X64785001Y-64822937D02*
X64785001Y-65277065D01*
X79777065Y-56615001D02*
X79322937Y-56615001D01*
X79777065Y-58085001D02*
X79322937Y-58085001D01*
X79777065Y-59615001D02*
X79322937Y-59615001D01*
X79777065Y-61085001D02*
X79322937Y-61085001D01*
X76750001Y-62660001D02*
X70740001Y-62660001D01*
X74500001Y-55840001D02*
X70740001Y-55840001D01*
X70740001Y-62660001D02*
X70740001Y-61400001D01*
X70740001Y-55840001D02*
X70740001Y-57100001D01*
X67810001Y-66630001D02*
X67810001Y-65700001D01*
X67810001Y-63470001D02*
X67810001Y-64400001D01*
X67810001Y-63470001D02*
X65650001Y-63470001D01*
X67810001Y-66630001D02*
X66350001Y-66630001D01*
X57490001Y-63470001D02*
X57490001Y-64400001D01*
X57490001Y-66630001D02*
X57490001Y-65700001D01*
X57490001Y-66630001D02*
X59650001Y-66630001D01*
X57490001Y-63470001D02*
X58950001Y-63470001D01*
X67410001Y-59150001D02*
X67410001Y-55700001D01*
X67410001Y-59150001D02*
X67410001Y-61100001D01*
X57290001Y-59150001D02*
X57290001Y-57200001D01*
X57290001Y-59150001D02*
X57290001Y-61100001D01*
D13*
X109683346Y-117757179D02*
X109635727Y-117804798D01*
X109492870Y-117852417D01*
X109397632Y-117852417D01*
X109254774Y-117804798D01*
X109159536Y-117709560D01*
X109111917Y-117614322D01*
X109064298Y-117423846D01*
X109064298Y-117280989D01*
X109111917Y-117090513D01*
X109159536Y-116995275D01*
X109254774Y-116900037D01*
X109397632Y-116852417D01*
X109492870Y-116852417D01*
X109635727Y-116900037D01*
X109683346Y-116947656D01*
X110635727Y-117852417D02*
X110064298Y-117852417D01*
X110350013Y-117852417D02*
X110350013Y-116852417D01*
X110254774Y-116995275D01*
X110159536Y-117090513D01*
X110064298Y-117138132D01*
X113983346Y-131457179D02*
X113935727Y-131504798D01*
X113792870Y-131552417D01*
X113697632Y-131552417D01*
X113554774Y-131504798D01*
X113459536Y-131409560D01*
X113411917Y-131314322D01*
X113364298Y-131123846D01*
X113364298Y-130980989D01*
X113411917Y-130790513D01*
X113459536Y-130695275D01*
X113554774Y-130600037D01*
X113697632Y-130552417D01*
X113792870Y-130552417D01*
X113935727Y-130600037D01*
X113983346Y-130647656D01*
X114364298Y-130647656D02*
X114411917Y-130600037D01*
X114507155Y-130552417D01*
X114745251Y-130552417D01*
X114840489Y-130600037D01*
X114888108Y-130647656D01*
X114935727Y-130742894D01*
X114935727Y-130838132D01*
X114888108Y-130980989D01*
X114316679Y-131552417D01*
X114935727Y-131552417D01*
X117983346Y-118377179D02*
X117935727Y-118424798D01*
X117792870Y-118472417D01*
X117697632Y-118472417D01*
X117554774Y-118424798D01*
X117459536Y-118329560D01*
X117411917Y-118234322D01*
X117364298Y-118043846D01*
X117364298Y-117900989D01*
X117411917Y-117710513D01*
X117459536Y-117615275D01*
X117554774Y-117520037D01*
X117697632Y-117472417D01*
X117792870Y-117472417D01*
X117935727Y-117520037D01*
X117983346Y-117567656D01*
X118316679Y-117472417D02*
X118935727Y-117472417D01*
X118602393Y-117853370D01*
X118745251Y-117853370D01*
X118840489Y-117900989D01*
X118888108Y-117948608D01*
X118935727Y-118043846D01*
X118935727Y-118281941D01*
X118888108Y-118377179D01*
X118840489Y-118424798D01*
X118745251Y-118472417D01*
X118459536Y-118472417D01*
X118364298Y-118424798D01*
X118316679Y-118377179D01*
X117983346Y-131457179D02*
X117935727Y-131504798D01*
X117792870Y-131552417D01*
X117697632Y-131552417D01*
X117554774Y-131504798D01*
X117459536Y-131409560D01*
X117411917Y-131314322D01*
X117364298Y-131123846D01*
X117364298Y-130980989D01*
X117411917Y-130790513D01*
X117459536Y-130695275D01*
X117554774Y-130600037D01*
X117697632Y-130552417D01*
X117792870Y-130552417D01*
X117935727Y-130600037D01*
X117983346Y-130647656D01*
X118840489Y-130885751D02*
X118840489Y-131552417D01*
X118602393Y-130504798D02*
X118364298Y-131219084D01*
X118983346Y-131219084D01*
X125507393Y-124683370D02*
X126221679Y-124683370D01*
X126364536Y-124730989D01*
X126459774Y-124826227D01*
X126507393Y-124969084D01*
X126507393Y-125064322D01*
X126507393Y-123683370D02*
X126507393Y-124254798D01*
X126507393Y-123969084D02*
X125507393Y-123969084D01*
X125650251Y-124064322D01*
X125745489Y-124159560D01*
X125793108Y-124254798D01*
X97016679Y-116182417D02*
X97016679Y-116896703D01*
X96969060Y-117039560D01*
X96873822Y-117134798D01*
X96730965Y-117182417D01*
X96635727Y-117182417D01*
X97445251Y-116277656D02*
X97492870Y-116230037D01*
X97588108Y-116182417D01*
X97826203Y-116182417D01*
X97921441Y-116230037D01*
X97969060Y-116277656D01*
X98016679Y-116372894D01*
X98016679Y-116468132D01*
X97969060Y-116610989D01*
X97397632Y-117182417D01*
X98016679Y-117182417D01*
X130972393Y-133633370D02*
X131686679Y-133633370D01*
X131829536Y-133680989D01*
X131924774Y-133776227D01*
X131972393Y-133919084D01*
X131972393Y-134014322D01*
X130972393Y-133252417D02*
X130972393Y-132633370D01*
X131353346Y-132966703D01*
X131353346Y-132823846D01*
X131400965Y-132728608D01*
X131448584Y-132680989D01*
X131543822Y-132633370D01*
X131781917Y-132633370D01*
X131877155Y-132680989D01*
X131924774Y-132728608D01*
X131972393Y-132823846D01*
X131972393Y-133109560D01*
X131924774Y-133204798D01*
X131877155Y-133252417D01*
X105102393Y-133366703D02*
X104626203Y-133700037D01*
X105102393Y-133938132D02*
X104102393Y-133938132D01*
X104102393Y-133557179D01*
X104150013Y-133461941D01*
X104197632Y-133414322D01*
X104292870Y-133366703D01*
X104435727Y-133366703D01*
X104530965Y-133414322D01*
X104578584Y-133461941D01*
X104626203Y-133557179D01*
X104626203Y-133938132D01*
X105102393Y-132414322D02*
X105102393Y-132985751D01*
X105102393Y-132700037D02*
X104102393Y-132700037D01*
X104245251Y-132795275D01*
X104340489Y-132890513D01*
X104388108Y-132985751D01*
X107502393Y-133466703D02*
X107026203Y-133800037D01*
X107502393Y-134038132D02*
X106502393Y-134038132D01*
X106502393Y-133657179D01*
X106550013Y-133561941D01*
X106597632Y-133514322D01*
X106692870Y-133466703D01*
X106835727Y-133466703D01*
X106930965Y-133514322D01*
X106978584Y-133561941D01*
X107026203Y-133657179D01*
X107026203Y-134038132D01*
X106597632Y-133085751D02*
X106550013Y-133038132D01*
X106502393Y-132942894D01*
X106502393Y-132704798D01*
X106550013Y-132609560D01*
X106597632Y-132561941D01*
X106692870Y-132514322D01*
X106788108Y-132514322D01*
X106930965Y-132561941D01*
X107502393Y-133133370D01*
X107502393Y-132514322D01*
X122583346Y-121352417D02*
X122250013Y-120876227D01*
X122011917Y-121352417D02*
X122011917Y-120352417D01*
X122392870Y-120352417D01*
X122488108Y-120400037D01*
X122535727Y-120447656D01*
X122583346Y-120542894D01*
X122583346Y-120685751D01*
X122535727Y-120780989D01*
X122488108Y-120828608D01*
X122392870Y-120876227D01*
X122011917Y-120876227D01*
X122916679Y-120352417D02*
X123535727Y-120352417D01*
X123202393Y-120733370D01*
X123345251Y-120733370D01*
X123440489Y-120780989D01*
X123488108Y-120828608D01*
X123535727Y-120923846D01*
X123535727Y-121161941D01*
X123488108Y-121257179D01*
X123440489Y-121304798D01*
X123345251Y-121352417D01*
X123059536Y-121352417D01*
X122964298Y-121304798D01*
X122916679Y-121257179D01*
X122383346Y-127702417D02*
X122050013Y-127226227D01*
X121811917Y-127702417D02*
X121811917Y-126702417D01*
X122192870Y-126702417D01*
X122288108Y-126750037D01*
X122335727Y-126797656D01*
X122383346Y-126892894D01*
X122383346Y-127035751D01*
X122335727Y-127130989D01*
X122288108Y-127178608D01*
X122192870Y-127226227D01*
X121811917Y-127226227D01*
X123240489Y-127035751D02*
X123240489Y-127702417D01*
X123002393Y-126654798D02*
X122764298Y-127369084D01*
X123383346Y-127369084D01*
X111288108Y-119652417D02*
X111288108Y-120461941D01*
X111335727Y-120557179D01*
X111383346Y-120604798D01*
X111478584Y-120652417D01*
X111669060Y-120652417D01*
X111764298Y-120604798D01*
X111811917Y-120557179D01*
X111859536Y-120461941D01*
X111859536Y-119652417D01*
X112288108Y-119747656D02*
X112335727Y-119700037D01*
X112430965Y-119652417D01*
X112669060Y-119652417D01*
X112764298Y-119700037D01*
X112811917Y-119747656D01*
X112859536Y-119842894D01*
X112859536Y-119938132D01*
X112811917Y-120080989D01*
X112240489Y-120652417D01*
X112859536Y-120652417D01*
X111054774Y-133347656D02*
X110959536Y-133300037D01*
X110864298Y-133204798D01*
X110721441Y-133061941D01*
X110626203Y-133014322D01*
X110530965Y-133014322D01*
X110578584Y-133252417D02*
X110483346Y-133204798D01*
X110388108Y-133109560D01*
X110340489Y-132919084D01*
X110340489Y-132585751D01*
X110388108Y-132395275D01*
X110483346Y-132300037D01*
X110578584Y-132252417D01*
X110769060Y-132252417D01*
X110864298Y-132300037D01*
X110959536Y-132395275D01*
X111007155Y-132585751D01*
X111007155Y-132919084D01*
X110959536Y-133109560D01*
X110864298Y-133204798D01*
X110769060Y-133252417D01*
X110578584Y-133252417D01*
X111959536Y-133252417D02*
X111388108Y-133252417D01*
X111673822Y-133252417D02*
X111673822Y-132252417D01*
X111578584Y-132395275D01*
X111483346Y-132490513D01*
X111388108Y-132538132D01*
X102054774Y-133447656D02*
X101959536Y-133400037D01*
X101864298Y-133304798D01*
X101721441Y-133161941D01*
X101626203Y-133114322D01*
X101530965Y-133114322D01*
X101578584Y-133352417D02*
X101483346Y-133304798D01*
X101388108Y-133209560D01*
X101340489Y-133019084D01*
X101340489Y-132685751D01*
X101388108Y-132495275D01*
X101483346Y-132400037D01*
X101578584Y-132352417D01*
X101769060Y-132352417D01*
X101864298Y-132400037D01*
X101959536Y-132495275D01*
X102007155Y-132685751D01*
X102007155Y-133019084D01*
X101959536Y-133209560D01*
X101864298Y-133304798D01*
X101769060Y-133352417D01*
X101578584Y-133352417D01*
X102388108Y-132447656D02*
X102435727Y-132400037D01*
X102530965Y-132352417D01*
X102769060Y-132352417D01*
X102864298Y-132400037D01*
X102911917Y-132447656D01*
X102959536Y-132542894D01*
X102959536Y-132638132D01*
X102911917Y-132780989D01*
X102340489Y-133352417D01*
X102959536Y-133352417D01*
X100188108Y-119452417D02*
X100188108Y-120261941D01*
X100235727Y-120357179D01*
X100283346Y-120404798D01*
X100378584Y-120452417D01*
X100569060Y-120452417D01*
X100664298Y-120404798D01*
X100711917Y-120357179D01*
X100759536Y-120261941D01*
X100759536Y-119452417D01*
X101759536Y-120452417D02*
X101188108Y-120452417D01*
X101473822Y-120452417D02*
X101473822Y-119452417D01*
X101378584Y-119595275D01*
X101283346Y-119690513D01*
X101188108Y-119738132D01*
X108282393Y-135083370D02*
X108996679Y-135083370D01*
X109139536Y-135130989D01*
X109234774Y-135226227D01*
X109282393Y-135369084D01*
X109282393Y-135464322D01*
X108615727Y-134178608D02*
X109282393Y-134178608D01*
X108234774Y-134416703D02*
X108949060Y-134654798D01*
X108949060Y-134035751D01*
X66683334Y-117757179D02*
X66635715Y-117804798D01*
X66492858Y-117852417D01*
X66397620Y-117852417D01*
X66254762Y-117804798D01*
X66159524Y-117709560D01*
X66111905Y-117614322D01*
X66064286Y-117423846D01*
X66064286Y-117280989D01*
X66111905Y-117090513D01*
X66159524Y-116995275D01*
X66254762Y-116900037D01*
X66397620Y-116852417D01*
X66492858Y-116852417D01*
X66635715Y-116900037D01*
X66683334Y-116947656D01*
X67635715Y-117852417D02*
X67064286Y-117852417D01*
X67350001Y-117852417D02*
X67350001Y-116852417D01*
X67254762Y-116995275D01*
X67159524Y-117090513D01*
X67064286Y-117138132D01*
X70983334Y-131457179D02*
X70935715Y-131504798D01*
X70792858Y-131552417D01*
X70697620Y-131552417D01*
X70554762Y-131504798D01*
X70459524Y-131409560D01*
X70411905Y-131314322D01*
X70364286Y-131123846D01*
X70364286Y-130980989D01*
X70411905Y-130790513D01*
X70459524Y-130695275D01*
X70554762Y-130600037D01*
X70697620Y-130552417D01*
X70792858Y-130552417D01*
X70935715Y-130600037D01*
X70983334Y-130647656D01*
X71364286Y-130647656D02*
X71411905Y-130600037D01*
X71507143Y-130552417D01*
X71745239Y-130552417D01*
X71840477Y-130600037D01*
X71888096Y-130647656D01*
X71935715Y-130742894D01*
X71935715Y-130838132D01*
X71888096Y-130980989D01*
X71316667Y-131552417D01*
X71935715Y-131552417D01*
X74983334Y-118377179D02*
X74935715Y-118424798D01*
X74792858Y-118472417D01*
X74697620Y-118472417D01*
X74554762Y-118424798D01*
X74459524Y-118329560D01*
X74411905Y-118234322D01*
X74364286Y-118043846D01*
X74364286Y-117900989D01*
X74411905Y-117710513D01*
X74459524Y-117615275D01*
X74554762Y-117520037D01*
X74697620Y-117472417D01*
X74792858Y-117472417D01*
X74935715Y-117520037D01*
X74983334Y-117567656D01*
X75316667Y-117472417D02*
X75935715Y-117472417D01*
X75602381Y-117853370D01*
X75745239Y-117853370D01*
X75840477Y-117900989D01*
X75888096Y-117948608D01*
X75935715Y-118043846D01*
X75935715Y-118281941D01*
X75888096Y-118377179D01*
X75840477Y-118424798D01*
X75745239Y-118472417D01*
X75459524Y-118472417D01*
X75364286Y-118424798D01*
X75316667Y-118377179D01*
X74983334Y-131457179D02*
X74935715Y-131504798D01*
X74792858Y-131552417D01*
X74697620Y-131552417D01*
X74554762Y-131504798D01*
X74459524Y-131409560D01*
X74411905Y-131314322D01*
X74364286Y-131123846D01*
X74364286Y-130980989D01*
X74411905Y-130790513D01*
X74459524Y-130695275D01*
X74554762Y-130600037D01*
X74697620Y-130552417D01*
X74792858Y-130552417D01*
X74935715Y-130600037D01*
X74983334Y-130647656D01*
X75840477Y-130885751D02*
X75840477Y-131552417D01*
X75602381Y-130504798D02*
X75364286Y-131219084D01*
X75983334Y-131219084D01*
X82507381Y-124683370D02*
X83221667Y-124683370D01*
X83364524Y-124730989D01*
X83459762Y-124826227D01*
X83507381Y-124969084D01*
X83507381Y-125064322D01*
X83507381Y-123683370D02*
X83507381Y-124254798D01*
X83507381Y-123969084D02*
X82507381Y-123969084D01*
X82650239Y-124064322D01*
X82745477Y-124159560D01*
X82793096Y-124254798D01*
X54016667Y-116182417D02*
X54016667Y-116896703D01*
X53969048Y-117039560D01*
X53873810Y-117134798D01*
X53730953Y-117182417D01*
X53635715Y-117182417D01*
X54445239Y-116277656D02*
X54492858Y-116230037D01*
X54588096Y-116182417D01*
X54826191Y-116182417D01*
X54921429Y-116230037D01*
X54969048Y-116277656D01*
X55016667Y-116372894D01*
X55016667Y-116468132D01*
X54969048Y-116610989D01*
X54397620Y-117182417D01*
X55016667Y-117182417D01*
X87972381Y-133633370D02*
X88686667Y-133633370D01*
X88829524Y-133680989D01*
X88924762Y-133776227D01*
X88972381Y-133919084D01*
X88972381Y-134014322D01*
X87972381Y-133252417D02*
X87972381Y-132633370D01*
X88353334Y-132966703D01*
X88353334Y-132823846D01*
X88400953Y-132728608D01*
X88448572Y-132680989D01*
X88543810Y-132633370D01*
X88781905Y-132633370D01*
X88877143Y-132680989D01*
X88924762Y-132728608D01*
X88972381Y-132823846D01*
X88972381Y-133109560D01*
X88924762Y-133204798D01*
X88877143Y-133252417D01*
X62102381Y-133366703D02*
X61626191Y-133700037D01*
X62102381Y-133938132D02*
X61102381Y-133938132D01*
X61102381Y-133557179D01*
X61150001Y-133461941D01*
X61197620Y-133414322D01*
X61292858Y-133366703D01*
X61435715Y-133366703D01*
X61530953Y-133414322D01*
X61578572Y-133461941D01*
X61626191Y-133557179D01*
X61626191Y-133938132D01*
X62102381Y-132414322D02*
X62102381Y-132985751D01*
X62102381Y-132700037D02*
X61102381Y-132700037D01*
X61245239Y-132795275D01*
X61340477Y-132890513D01*
X61388096Y-132985751D01*
X64502381Y-133466703D02*
X64026191Y-133800037D01*
X64502381Y-134038132D02*
X63502381Y-134038132D01*
X63502381Y-133657179D01*
X63550001Y-133561941D01*
X63597620Y-133514322D01*
X63692858Y-133466703D01*
X63835715Y-133466703D01*
X63930953Y-133514322D01*
X63978572Y-133561941D01*
X64026191Y-133657179D01*
X64026191Y-134038132D01*
X63597620Y-133085751D02*
X63550001Y-133038132D01*
X63502381Y-132942894D01*
X63502381Y-132704798D01*
X63550001Y-132609560D01*
X63597620Y-132561941D01*
X63692858Y-132514322D01*
X63788096Y-132514322D01*
X63930953Y-132561941D01*
X64502381Y-133133370D01*
X64502381Y-132514322D01*
X79583334Y-121352417D02*
X79250001Y-120876227D01*
X79011905Y-121352417D02*
X79011905Y-120352417D01*
X79392858Y-120352417D01*
X79488096Y-120400037D01*
X79535715Y-120447656D01*
X79583334Y-120542894D01*
X79583334Y-120685751D01*
X79535715Y-120780989D01*
X79488096Y-120828608D01*
X79392858Y-120876227D01*
X79011905Y-120876227D01*
X79916667Y-120352417D02*
X80535715Y-120352417D01*
X80202381Y-120733370D01*
X80345239Y-120733370D01*
X80440477Y-120780989D01*
X80488096Y-120828608D01*
X80535715Y-120923846D01*
X80535715Y-121161941D01*
X80488096Y-121257179D01*
X80440477Y-121304798D01*
X80345239Y-121352417D01*
X80059524Y-121352417D01*
X79964286Y-121304798D01*
X79916667Y-121257179D01*
X79383334Y-127702417D02*
X79050001Y-127226227D01*
X78811905Y-127702417D02*
X78811905Y-126702417D01*
X79192858Y-126702417D01*
X79288096Y-126750037D01*
X79335715Y-126797656D01*
X79383334Y-126892894D01*
X79383334Y-127035751D01*
X79335715Y-127130989D01*
X79288096Y-127178608D01*
X79192858Y-127226227D01*
X78811905Y-127226227D01*
X80240477Y-127035751D02*
X80240477Y-127702417D01*
X80002381Y-126654798D02*
X79764286Y-127369084D01*
X80383334Y-127369084D01*
X68288096Y-119652417D02*
X68288096Y-120461941D01*
X68335715Y-120557179D01*
X68383334Y-120604798D01*
X68478572Y-120652417D01*
X68669048Y-120652417D01*
X68764286Y-120604798D01*
X68811905Y-120557179D01*
X68859524Y-120461941D01*
X68859524Y-119652417D01*
X69288096Y-119747656D02*
X69335715Y-119700037D01*
X69430953Y-119652417D01*
X69669048Y-119652417D01*
X69764286Y-119700037D01*
X69811905Y-119747656D01*
X69859524Y-119842894D01*
X69859524Y-119938132D01*
X69811905Y-120080989D01*
X69240477Y-120652417D01*
X69859524Y-120652417D01*
X68054762Y-133347656D02*
X67959524Y-133300037D01*
X67864286Y-133204798D01*
X67721429Y-133061941D01*
X67626191Y-133014322D01*
X67530953Y-133014322D01*
X67578572Y-133252417D02*
X67483334Y-133204798D01*
X67388096Y-133109560D01*
X67340477Y-132919084D01*
X67340477Y-132585751D01*
X67388096Y-132395275D01*
X67483334Y-132300037D01*
X67578572Y-132252417D01*
X67769048Y-132252417D01*
X67864286Y-132300037D01*
X67959524Y-132395275D01*
X68007143Y-132585751D01*
X68007143Y-132919084D01*
X67959524Y-133109560D01*
X67864286Y-133204798D01*
X67769048Y-133252417D01*
X67578572Y-133252417D01*
X68959524Y-133252417D02*
X68388096Y-133252417D01*
X68673810Y-133252417D02*
X68673810Y-132252417D01*
X68578572Y-132395275D01*
X68483334Y-132490513D01*
X68388096Y-132538132D01*
X59054762Y-133447656D02*
X58959524Y-133400037D01*
X58864286Y-133304798D01*
X58721429Y-133161941D01*
X58626191Y-133114322D01*
X58530953Y-133114322D01*
X58578572Y-133352417D02*
X58483334Y-133304798D01*
X58388096Y-133209560D01*
X58340477Y-133019084D01*
X58340477Y-132685751D01*
X58388096Y-132495275D01*
X58483334Y-132400037D01*
X58578572Y-132352417D01*
X58769048Y-132352417D01*
X58864286Y-132400037D01*
X58959524Y-132495275D01*
X59007143Y-132685751D01*
X59007143Y-133019084D01*
X58959524Y-133209560D01*
X58864286Y-133304798D01*
X58769048Y-133352417D01*
X58578572Y-133352417D01*
X59388096Y-132447656D02*
X59435715Y-132400037D01*
X59530953Y-132352417D01*
X59769048Y-132352417D01*
X59864286Y-132400037D01*
X59911905Y-132447656D01*
X59959524Y-132542894D01*
X59959524Y-132638132D01*
X59911905Y-132780989D01*
X59340477Y-133352417D01*
X59959524Y-133352417D01*
X57188096Y-119452417D02*
X57188096Y-120261941D01*
X57235715Y-120357179D01*
X57283334Y-120404798D01*
X57378572Y-120452417D01*
X57569048Y-120452417D01*
X57664286Y-120404798D01*
X57711905Y-120357179D01*
X57759524Y-120261941D01*
X57759524Y-119452417D01*
X58759524Y-120452417D02*
X58188096Y-120452417D01*
X58473810Y-120452417D02*
X58473810Y-119452417D01*
X58378572Y-119595275D01*
X58283334Y-119690513D01*
X58188096Y-119738132D01*
X65282381Y-135083370D02*
X65996667Y-135083370D01*
X66139524Y-135130989D01*
X66234762Y-135226227D01*
X66282381Y-135369084D01*
X66282381Y-135464322D01*
X65615715Y-134178608D02*
X66282381Y-134178608D01*
X65234762Y-134416703D02*
X65949048Y-134654798D01*
X65949048Y-134035751D01*
X109683346Y-96007167D02*
X109635727Y-96054786D01*
X109492870Y-96102405D01*
X109397632Y-96102405D01*
X109254774Y-96054786D01*
X109159536Y-95959548D01*
X109111917Y-95864310D01*
X109064298Y-95673834D01*
X109064298Y-95530977D01*
X109111917Y-95340501D01*
X109159536Y-95245263D01*
X109254774Y-95150025D01*
X109397632Y-95102405D01*
X109492870Y-95102405D01*
X109635727Y-95150025D01*
X109683346Y-95197644D01*
X110635727Y-96102405D02*
X110064298Y-96102405D01*
X110350013Y-96102405D02*
X110350013Y-95102405D01*
X110254774Y-95245263D01*
X110159536Y-95340501D01*
X110064298Y-95388120D01*
X113983346Y-109707167D02*
X113935727Y-109754786D01*
X113792870Y-109802405D01*
X113697632Y-109802405D01*
X113554774Y-109754786D01*
X113459536Y-109659548D01*
X113411917Y-109564310D01*
X113364298Y-109373834D01*
X113364298Y-109230977D01*
X113411917Y-109040501D01*
X113459536Y-108945263D01*
X113554774Y-108850025D01*
X113697632Y-108802405D01*
X113792870Y-108802405D01*
X113935727Y-108850025D01*
X113983346Y-108897644D01*
X114364298Y-108897644D02*
X114411917Y-108850025D01*
X114507155Y-108802405D01*
X114745251Y-108802405D01*
X114840489Y-108850025D01*
X114888108Y-108897644D01*
X114935727Y-108992882D01*
X114935727Y-109088120D01*
X114888108Y-109230977D01*
X114316679Y-109802405D01*
X114935727Y-109802405D01*
X117983346Y-96627167D02*
X117935727Y-96674786D01*
X117792870Y-96722405D01*
X117697632Y-96722405D01*
X117554774Y-96674786D01*
X117459536Y-96579548D01*
X117411917Y-96484310D01*
X117364298Y-96293834D01*
X117364298Y-96150977D01*
X117411917Y-95960501D01*
X117459536Y-95865263D01*
X117554774Y-95770025D01*
X117697632Y-95722405D01*
X117792870Y-95722405D01*
X117935727Y-95770025D01*
X117983346Y-95817644D01*
X118316679Y-95722405D02*
X118935727Y-95722405D01*
X118602393Y-96103358D01*
X118745251Y-96103358D01*
X118840489Y-96150977D01*
X118888108Y-96198596D01*
X118935727Y-96293834D01*
X118935727Y-96531929D01*
X118888108Y-96627167D01*
X118840489Y-96674786D01*
X118745251Y-96722405D01*
X118459536Y-96722405D01*
X118364298Y-96674786D01*
X118316679Y-96627167D01*
X117983346Y-109707167D02*
X117935727Y-109754786D01*
X117792870Y-109802405D01*
X117697632Y-109802405D01*
X117554774Y-109754786D01*
X117459536Y-109659548D01*
X117411917Y-109564310D01*
X117364298Y-109373834D01*
X117364298Y-109230977D01*
X117411917Y-109040501D01*
X117459536Y-108945263D01*
X117554774Y-108850025D01*
X117697632Y-108802405D01*
X117792870Y-108802405D01*
X117935727Y-108850025D01*
X117983346Y-108897644D01*
X118840489Y-109135739D02*
X118840489Y-109802405D01*
X118602393Y-108754786D02*
X118364298Y-109469072D01*
X118983346Y-109469072D01*
X125507393Y-102933358D02*
X126221679Y-102933358D01*
X126364536Y-102980977D01*
X126459774Y-103076215D01*
X126507393Y-103219072D01*
X126507393Y-103314310D01*
X126507393Y-101933358D02*
X126507393Y-102504786D01*
X126507393Y-102219072D02*
X125507393Y-102219072D01*
X125650251Y-102314310D01*
X125745489Y-102409548D01*
X125793108Y-102504786D01*
X97016679Y-94432405D02*
X97016679Y-95146691D01*
X96969060Y-95289548D01*
X96873822Y-95384786D01*
X96730965Y-95432405D01*
X96635727Y-95432405D01*
X97445251Y-94527644D02*
X97492870Y-94480025D01*
X97588108Y-94432405D01*
X97826203Y-94432405D01*
X97921441Y-94480025D01*
X97969060Y-94527644D01*
X98016679Y-94622882D01*
X98016679Y-94718120D01*
X97969060Y-94860977D01*
X97397632Y-95432405D01*
X98016679Y-95432405D01*
X130972393Y-111883358D02*
X131686679Y-111883358D01*
X131829536Y-111930977D01*
X131924774Y-112026215D01*
X131972393Y-112169072D01*
X131972393Y-112264310D01*
X130972393Y-111502405D02*
X130972393Y-110883358D01*
X131353346Y-111216691D01*
X131353346Y-111073834D01*
X131400965Y-110978596D01*
X131448584Y-110930977D01*
X131543822Y-110883358D01*
X131781917Y-110883358D01*
X131877155Y-110930977D01*
X131924774Y-110978596D01*
X131972393Y-111073834D01*
X131972393Y-111359548D01*
X131924774Y-111454786D01*
X131877155Y-111502405D01*
X105102393Y-111616691D02*
X104626203Y-111950025D01*
X105102393Y-112188120D02*
X104102393Y-112188120D01*
X104102393Y-111807167D01*
X104150013Y-111711929D01*
X104197632Y-111664310D01*
X104292870Y-111616691D01*
X104435727Y-111616691D01*
X104530965Y-111664310D01*
X104578584Y-111711929D01*
X104626203Y-111807167D01*
X104626203Y-112188120D01*
X105102393Y-110664310D02*
X105102393Y-111235739D01*
X105102393Y-110950025D02*
X104102393Y-110950025D01*
X104245251Y-111045263D01*
X104340489Y-111140501D01*
X104388108Y-111235739D01*
X107502393Y-111716691D02*
X107026203Y-112050025D01*
X107502393Y-112288120D02*
X106502393Y-112288120D01*
X106502393Y-111907167D01*
X106550013Y-111811929D01*
X106597632Y-111764310D01*
X106692870Y-111716691D01*
X106835727Y-111716691D01*
X106930965Y-111764310D01*
X106978584Y-111811929D01*
X107026203Y-111907167D01*
X107026203Y-112288120D01*
X106597632Y-111335739D02*
X106550013Y-111288120D01*
X106502393Y-111192882D01*
X106502393Y-110954786D01*
X106550013Y-110859548D01*
X106597632Y-110811929D01*
X106692870Y-110764310D01*
X106788108Y-110764310D01*
X106930965Y-110811929D01*
X107502393Y-111383358D01*
X107502393Y-110764310D01*
X122583346Y-99602405D02*
X122250013Y-99126215D01*
X122011917Y-99602405D02*
X122011917Y-98602405D01*
X122392870Y-98602405D01*
X122488108Y-98650025D01*
X122535727Y-98697644D01*
X122583346Y-98792882D01*
X122583346Y-98935739D01*
X122535727Y-99030977D01*
X122488108Y-99078596D01*
X122392870Y-99126215D01*
X122011917Y-99126215D01*
X122916679Y-98602405D02*
X123535727Y-98602405D01*
X123202393Y-98983358D01*
X123345251Y-98983358D01*
X123440489Y-99030977D01*
X123488108Y-99078596D01*
X123535727Y-99173834D01*
X123535727Y-99411929D01*
X123488108Y-99507167D01*
X123440489Y-99554786D01*
X123345251Y-99602405D01*
X123059536Y-99602405D01*
X122964298Y-99554786D01*
X122916679Y-99507167D01*
X122383346Y-105952405D02*
X122050013Y-105476215D01*
X121811917Y-105952405D02*
X121811917Y-104952405D01*
X122192870Y-104952405D01*
X122288108Y-105000025D01*
X122335727Y-105047644D01*
X122383346Y-105142882D01*
X122383346Y-105285739D01*
X122335727Y-105380977D01*
X122288108Y-105428596D01*
X122192870Y-105476215D01*
X121811917Y-105476215D01*
X123240489Y-105285739D02*
X123240489Y-105952405D01*
X123002393Y-104904786D02*
X122764298Y-105619072D01*
X123383346Y-105619072D01*
X111288108Y-97902405D02*
X111288108Y-98711929D01*
X111335727Y-98807167D01*
X111383346Y-98854786D01*
X111478584Y-98902405D01*
X111669060Y-98902405D01*
X111764298Y-98854786D01*
X111811917Y-98807167D01*
X111859536Y-98711929D01*
X111859536Y-97902405D01*
X112288108Y-97997644D02*
X112335727Y-97950025D01*
X112430965Y-97902405D01*
X112669060Y-97902405D01*
X112764298Y-97950025D01*
X112811917Y-97997644D01*
X112859536Y-98092882D01*
X112859536Y-98188120D01*
X112811917Y-98330977D01*
X112240489Y-98902405D01*
X112859536Y-98902405D01*
X111054774Y-111597644D02*
X110959536Y-111550025D01*
X110864298Y-111454786D01*
X110721441Y-111311929D01*
X110626203Y-111264310D01*
X110530965Y-111264310D01*
X110578584Y-111502405D02*
X110483346Y-111454786D01*
X110388108Y-111359548D01*
X110340489Y-111169072D01*
X110340489Y-110835739D01*
X110388108Y-110645263D01*
X110483346Y-110550025D01*
X110578584Y-110502405D01*
X110769060Y-110502405D01*
X110864298Y-110550025D01*
X110959536Y-110645263D01*
X111007155Y-110835739D01*
X111007155Y-111169072D01*
X110959536Y-111359548D01*
X110864298Y-111454786D01*
X110769060Y-111502405D01*
X110578584Y-111502405D01*
X111959536Y-111502405D02*
X111388108Y-111502405D01*
X111673822Y-111502405D02*
X111673822Y-110502405D01*
X111578584Y-110645263D01*
X111483346Y-110740501D01*
X111388108Y-110788120D01*
X102054774Y-111697644D02*
X101959536Y-111650025D01*
X101864298Y-111554786D01*
X101721441Y-111411929D01*
X101626203Y-111364310D01*
X101530965Y-111364310D01*
X101578584Y-111602405D02*
X101483346Y-111554786D01*
X101388108Y-111459548D01*
X101340489Y-111269072D01*
X101340489Y-110935739D01*
X101388108Y-110745263D01*
X101483346Y-110650025D01*
X101578584Y-110602405D01*
X101769060Y-110602405D01*
X101864298Y-110650025D01*
X101959536Y-110745263D01*
X102007155Y-110935739D01*
X102007155Y-111269072D01*
X101959536Y-111459548D01*
X101864298Y-111554786D01*
X101769060Y-111602405D01*
X101578584Y-111602405D01*
X102388108Y-110697644D02*
X102435727Y-110650025D01*
X102530965Y-110602405D01*
X102769060Y-110602405D01*
X102864298Y-110650025D01*
X102911917Y-110697644D01*
X102959536Y-110792882D01*
X102959536Y-110888120D01*
X102911917Y-111030977D01*
X102340489Y-111602405D01*
X102959536Y-111602405D01*
X100188108Y-97702405D02*
X100188108Y-98511929D01*
X100235727Y-98607167D01*
X100283346Y-98654786D01*
X100378584Y-98702405D01*
X100569060Y-98702405D01*
X100664298Y-98654786D01*
X100711917Y-98607167D01*
X100759536Y-98511929D01*
X100759536Y-97702405D01*
X101759536Y-98702405D02*
X101188108Y-98702405D01*
X101473822Y-98702405D02*
X101473822Y-97702405D01*
X101378584Y-97845263D01*
X101283346Y-97940501D01*
X101188108Y-97988120D01*
X108282393Y-113333358D02*
X108996679Y-113333358D01*
X109139536Y-113380977D01*
X109234774Y-113476215D01*
X109282393Y-113619072D01*
X109282393Y-113714310D01*
X108615727Y-112428596D02*
X109282393Y-112428596D01*
X108234774Y-112666691D02*
X108949060Y-112904786D01*
X108949060Y-112285739D01*
X66683334Y-96007167D02*
X66635715Y-96054786D01*
X66492858Y-96102405D01*
X66397620Y-96102405D01*
X66254762Y-96054786D01*
X66159524Y-95959548D01*
X66111905Y-95864310D01*
X66064286Y-95673834D01*
X66064286Y-95530977D01*
X66111905Y-95340501D01*
X66159524Y-95245263D01*
X66254762Y-95150025D01*
X66397620Y-95102405D01*
X66492858Y-95102405D01*
X66635715Y-95150025D01*
X66683334Y-95197644D01*
X67635715Y-96102405D02*
X67064286Y-96102405D01*
X67350001Y-96102405D02*
X67350001Y-95102405D01*
X67254762Y-95245263D01*
X67159524Y-95340501D01*
X67064286Y-95388120D01*
X70983334Y-109707167D02*
X70935715Y-109754786D01*
X70792858Y-109802405D01*
X70697620Y-109802405D01*
X70554762Y-109754786D01*
X70459524Y-109659548D01*
X70411905Y-109564310D01*
X70364286Y-109373834D01*
X70364286Y-109230977D01*
X70411905Y-109040501D01*
X70459524Y-108945263D01*
X70554762Y-108850025D01*
X70697620Y-108802405D01*
X70792858Y-108802405D01*
X70935715Y-108850025D01*
X70983334Y-108897644D01*
X71364286Y-108897644D02*
X71411905Y-108850025D01*
X71507143Y-108802405D01*
X71745239Y-108802405D01*
X71840477Y-108850025D01*
X71888096Y-108897644D01*
X71935715Y-108992882D01*
X71935715Y-109088120D01*
X71888096Y-109230977D01*
X71316667Y-109802405D01*
X71935715Y-109802405D01*
X74983334Y-96627167D02*
X74935715Y-96674786D01*
X74792858Y-96722405D01*
X74697620Y-96722405D01*
X74554762Y-96674786D01*
X74459524Y-96579548D01*
X74411905Y-96484310D01*
X74364286Y-96293834D01*
X74364286Y-96150977D01*
X74411905Y-95960501D01*
X74459524Y-95865263D01*
X74554762Y-95770025D01*
X74697620Y-95722405D01*
X74792858Y-95722405D01*
X74935715Y-95770025D01*
X74983334Y-95817644D01*
X75316667Y-95722405D02*
X75935715Y-95722405D01*
X75602381Y-96103358D01*
X75745239Y-96103358D01*
X75840477Y-96150977D01*
X75888096Y-96198596D01*
X75935715Y-96293834D01*
X75935715Y-96531929D01*
X75888096Y-96627167D01*
X75840477Y-96674786D01*
X75745239Y-96722405D01*
X75459524Y-96722405D01*
X75364286Y-96674786D01*
X75316667Y-96627167D01*
X74983334Y-109707167D02*
X74935715Y-109754786D01*
X74792858Y-109802405D01*
X74697620Y-109802405D01*
X74554762Y-109754786D01*
X74459524Y-109659548D01*
X74411905Y-109564310D01*
X74364286Y-109373834D01*
X74364286Y-109230977D01*
X74411905Y-109040501D01*
X74459524Y-108945263D01*
X74554762Y-108850025D01*
X74697620Y-108802405D01*
X74792858Y-108802405D01*
X74935715Y-108850025D01*
X74983334Y-108897644D01*
X75840477Y-109135739D02*
X75840477Y-109802405D01*
X75602381Y-108754786D02*
X75364286Y-109469072D01*
X75983334Y-109469072D01*
X82507381Y-102933358D02*
X83221667Y-102933358D01*
X83364524Y-102980977D01*
X83459762Y-103076215D01*
X83507381Y-103219072D01*
X83507381Y-103314310D01*
X83507381Y-101933358D02*
X83507381Y-102504786D01*
X83507381Y-102219072D02*
X82507381Y-102219072D01*
X82650239Y-102314310D01*
X82745477Y-102409548D01*
X82793096Y-102504786D01*
X54016667Y-94432405D02*
X54016667Y-95146691D01*
X53969048Y-95289548D01*
X53873810Y-95384786D01*
X53730953Y-95432405D01*
X53635715Y-95432405D01*
X54445239Y-94527644D02*
X54492858Y-94480025D01*
X54588096Y-94432405D01*
X54826191Y-94432405D01*
X54921429Y-94480025D01*
X54969048Y-94527644D01*
X55016667Y-94622882D01*
X55016667Y-94718120D01*
X54969048Y-94860977D01*
X54397620Y-95432405D01*
X55016667Y-95432405D01*
X87972381Y-111883358D02*
X88686667Y-111883358D01*
X88829524Y-111930977D01*
X88924762Y-112026215D01*
X88972381Y-112169072D01*
X88972381Y-112264310D01*
X87972381Y-111502405D02*
X87972381Y-110883358D01*
X88353334Y-111216691D01*
X88353334Y-111073834D01*
X88400953Y-110978596D01*
X88448572Y-110930977D01*
X88543810Y-110883358D01*
X88781905Y-110883358D01*
X88877143Y-110930977D01*
X88924762Y-110978596D01*
X88972381Y-111073834D01*
X88972381Y-111359548D01*
X88924762Y-111454786D01*
X88877143Y-111502405D01*
X62102381Y-111616691D02*
X61626191Y-111950025D01*
X62102381Y-112188120D02*
X61102381Y-112188120D01*
X61102381Y-111807167D01*
X61150001Y-111711929D01*
X61197620Y-111664310D01*
X61292858Y-111616691D01*
X61435715Y-111616691D01*
X61530953Y-111664310D01*
X61578572Y-111711929D01*
X61626191Y-111807167D01*
X61626191Y-112188120D01*
X62102381Y-110664310D02*
X62102381Y-111235739D01*
X62102381Y-110950025D02*
X61102381Y-110950025D01*
X61245239Y-111045263D01*
X61340477Y-111140501D01*
X61388096Y-111235739D01*
X64502381Y-111716691D02*
X64026191Y-112050025D01*
X64502381Y-112288120D02*
X63502381Y-112288120D01*
X63502381Y-111907167D01*
X63550001Y-111811929D01*
X63597620Y-111764310D01*
X63692858Y-111716691D01*
X63835715Y-111716691D01*
X63930953Y-111764310D01*
X63978572Y-111811929D01*
X64026191Y-111907167D01*
X64026191Y-112288120D01*
X63597620Y-111335739D02*
X63550001Y-111288120D01*
X63502381Y-111192882D01*
X63502381Y-110954786D01*
X63550001Y-110859548D01*
X63597620Y-110811929D01*
X63692858Y-110764310D01*
X63788096Y-110764310D01*
X63930953Y-110811929D01*
X64502381Y-111383358D01*
X64502381Y-110764310D01*
X79583334Y-99602405D02*
X79250001Y-99126215D01*
X79011905Y-99602405D02*
X79011905Y-98602405D01*
X79392858Y-98602405D01*
X79488096Y-98650025D01*
X79535715Y-98697644D01*
X79583334Y-98792882D01*
X79583334Y-98935739D01*
X79535715Y-99030977D01*
X79488096Y-99078596D01*
X79392858Y-99126215D01*
X79011905Y-99126215D01*
X79916667Y-98602405D02*
X80535715Y-98602405D01*
X80202381Y-98983358D01*
X80345239Y-98983358D01*
X80440477Y-99030977D01*
X80488096Y-99078596D01*
X80535715Y-99173834D01*
X80535715Y-99411929D01*
X80488096Y-99507167D01*
X80440477Y-99554786D01*
X80345239Y-99602405D01*
X80059524Y-99602405D01*
X79964286Y-99554786D01*
X79916667Y-99507167D01*
X79383334Y-105952405D02*
X79050001Y-105476215D01*
X78811905Y-105952405D02*
X78811905Y-104952405D01*
X79192858Y-104952405D01*
X79288096Y-105000025D01*
X79335715Y-105047644D01*
X79383334Y-105142882D01*
X79383334Y-105285739D01*
X79335715Y-105380977D01*
X79288096Y-105428596D01*
X79192858Y-105476215D01*
X78811905Y-105476215D01*
X80240477Y-105285739D02*
X80240477Y-105952405D01*
X80002381Y-104904786D02*
X79764286Y-105619072D01*
X80383334Y-105619072D01*
X68288096Y-97902405D02*
X68288096Y-98711929D01*
X68335715Y-98807167D01*
X68383334Y-98854786D01*
X68478572Y-98902405D01*
X68669048Y-98902405D01*
X68764286Y-98854786D01*
X68811905Y-98807167D01*
X68859524Y-98711929D01*
X68859524Y-97902405D01*
X69288096Y-97997644D02*
X69335715Y-97950025D01*
X69430953Y-97902405D01*
X69669048Y-97902405D01*
X69764286Y-97950025D01*
X69811905Y-97997644D01*
X69859524Y-98092882D01*
X69859524Y-98188120D01*
X69811905Y-98330977D01*
X69240477Y-98902405D01*
X69859524Y-98902405D01*
X68054762Y-111597644D02*
X67959524Y-111550025D01*
X67864286Y-111454786D01*
X67721429Y-111311929D01*
X67626191Y-111264310D01*
X67530953Y-111264310D01*
X67578572Y-111502405D02*
X67483334Y-111454786D01*
X67388096Y-111359548D01*
X67340477Y-111169072D01*
X67340477Y-110835739D01*
X67388096Y-110645263D01*
X67483334Y-110550025D01*
X67578572Y-110502405D01*
X67769048Y-110502405D01*
X67864286Y-110550025D01*
X67959524Y-110645263D01*
X68007143Y-110835739D01*
X68007143Y-111169072D01*
X67959524Y-111359548D01*
X67864286Y-111454786D01*
X67769048Y-111502405D01*
X67578572Y-111502405D01*
X68959524Y-111502405D02*
X68388096Y-111502405D01*
X68673810Y-111502405D02*
X68673810Y-110502405D01*
X68578572Y-110645263D01*
X68483334Y-110740501D01*
X68388096Y-110788120D01*
X59054762Y-111697644D02*
X58959524Y-111650025D01*
X58864286Y-111554786D01*
X58721429Y-111411929D01*
X58626191Y-111364310D01*
X58530953Y-111364310D01*
X58578572Y-111602405D02*
X58483334Y-111554786D01*
X58388096Y-111459548D01*
X58340477Y-111269072D01*
X58340477Y-110935739D01*
X58388096Y-110745263D01*
X58483334Y-110650025D01*
X58578572Y-110602405D01*
X58769048Y-110602405D01*
X58864286Y-110650025D01*
X58959524Y-110745263D01*
X59007143Y-110935739D01*
X59007143Y-111269072D01*
X58959524Y-111459548D01*
X58864286Y-111554786D01*
X58769048Y-111602405D01*
X58578572Y-111602405D01*
X59388096Y-110697644D02*
X59435715Y-110650025D01*
X59530953Y-110602405D01*
X59769048Y-110602405D01*
X59864286Y-110650025D01*
X59911905Y-110697644D01*
X59959524Y-110792882D01*
X59959524Y-110888120D01*
X59911905Y-111030977D01*
X59340477Y-111602405D01*
X59959524Y-111602405D01*
X57188096Y-97702405D02*
X57188096Y-98511929D01*
X57235715Y-98607167D01*
X57283334Y-98654786D01*
X57378572Y-98702405D01*
X57569048Y-98702405D01*
X57664286Y-98654786D01*
X57711905Y-98607167D01*
X57759524Y-98511929D01*
X57759524Y-97702405D01*
X58759524Y-98702405D02*
X58188096Y-98702405D01*
X58473810Y-98702405D02*
X58473810Y-97702405D01*
X58378572Y-97845263D01*
X58283334Y-97940501D01*
X58188096Y-97988120D01*
X65282381Y-113333358D02*
X65996667Y-113333358D01*
X66139524Y-113380977D01*
X66234762Y-113476215D01*
X66282381Y-113619072D01*
X66282381Y-113714310D01*
X65615715Y-112428596D02*
X66282381Y-112428596D01*
X65234762Y-112666691D02*
X65949048Y-112904786D01*
X65949048Y-112285739D01*
X109683346Y-74257155D02*
X109635727Y-74304774D01*
X109492870Y-74352393D01*
X109397632Y-74352393D01*
X109254774Y-74304774D01*
X109159536Y-74209536D01*
X109111917Y-74114298D01*
X109064298Y-73923822D01*
X109064298Y-73780965D01*
X109111917Y-73590489D01*
X109159536Y-73495251D01*
X109254774Y-73400013D01*
X109397632Y-73352393D01*
X109492870Y-73352393D01*
X109635727Y-73400013D01*
X109683346Y-73447632D01*
X110635727Y-74352393D02*
X110064298Y-74352393D01*
X110350013Y-74352393D02*
X110350013Y-73352393D01*
X110254774Y-73495251D01*
X110159536Y-73590489D01*
X110064298Y-73638108D01*
X113983346Y-87957155D02*
X113935727Y-88004774D01*
X113792870Y-88052393D01*
X113697632Y-88052393D01*
X113554774Y-88004774D01*
X113459536Y-87909536D01*
X113411917Y-87814298D01*
X113364298Y-87623822D01*
X113364298Y-87480965D01*
X113411917Y-87290489D01*
X113459536Y-87195251D01*
X113554774Y-87100013D01*
X113697632Y-87052393D01*
X113792870Y-87052393D01*
X113935727Y-87100013D01*
X113983346Y-87147632D01*
X114364298Y-87147632D02*
X114411917Y-87100013D01*
X114507155Y-87052393D01*
X114745251Y-87052393D01*
X114840489Y-87100013D01*
X114888108Y-87147632D01*
X114935727Y-87242870D01*
X114935727Y-87338108D01*
X114888108Y-87480965D01*
X114316679Y-88052393D01*
X114935727Y-88052393D01*
X117983346Y-74877155D02*
X117935727Y-74924774D01*
X117792870Y-74972393D01*
X117697632Y-74972393D01*
X117554774Y-74924774D01*
X117459536Y-74829536D01*
X117411917Y-74734298D01*
X117364298Y-74543822D01*
X117364298Y-74400965D01*
X117411917Y-74210489D01*
X117459536Y-74115251D01*
X117554774Y-74020013D01*
X117697632Y-73972393D01*
X117792870Y-73972393D01*
X117935727Y-74020013D01*
X117983346Y-74067632D01*
X118316679Y-73972393D02*
X118935727Y-73972393D01*
X118602393Y-74353346D01*
X118745251Y-74353346D01*
X118840489Y-74400965D01*
X118888108Y-74448584D01*
X118935727Y-74543822D01*
X118935727Y-74781917D01*
X118888108Y-74877155D01*
X118840489Y-74924774D01*
X118745251Y-74972393D01*
X118459536Y-74972393D01*
X118364298Y-74924774D01*
X118316679Y-74877155D01*
X117983346Y-87957155D02*
X117935727Y-88004774D01*
X117792870Y-88052393D01*
X117697632Y-88052393D01*
X117554774Y-88004774D01*
X117459536Y-87909536D01*
X117411917Y-87814298D01*
X117364298Y-87623822D01*
X117364298Y-87480965D01*
X117411917Y-87290489D01*
X117459536Y-87195251D01*
X117554774Y-87100013D01*
X117697632Y-87052393D01*
X117792870Y-87052393D01*
X117935727Y-87100013D01*
X117983346Y-87147632D01*
X118840489Y-87385727D02*
X118840489Y-88052393D01*
X118602393Y-87004774D02*
X118364298Y-87719060D01*
X118983346Y-87719060D01*
X125507393Y-81183346D02*
X126221679Y-81183346D01*
X126364536Y-81230965D01*
X126459774Y-81326203D01*
X126507393Y-81469060D01*
X126507393Y-81564298D01*
X126507393Y-80183346D02*
X126507393Y-80754774D01*
X126507393Y-80469060D02*
X125507393Y-80469060D01*
X125650251Y-80564298D01*
X125745489Y-80659536D01*
X125793108Y-80754774D01*
X97016679Y-72682393D02*
X97016679Y-73396679D01*
X96969060Y-73539536D01*
X96873822Y-73634774D01*
X96730965Y-73682393D01*
X96635727Y-73682393D01*
X97445251Y-72777632D02*
X97492870Y-72730013D01*
X97588108Y-72682393D01*
X97826203Y-72682393D01*
X97921441Y-72730013D01*
X97969060Y-72777632D01*
X98016679Y-72872870D01*
X98016679Y-72968108D01*
X97969060Y-73110965D01*
X97397632Y-73682393D01*
X98016679Y-73682393D01*
X130972393Y-90133346D02*
X131686679Y-90133346D01*
X131829536Y-90180965D01*
X131924774Y-90276203D01*
X131972393Y-90419060D01*
X131972393Y-90514298D01*
X130972393Y-89752393D02*
X130972393Y-89133346D01*
X131353346Y-89466679D01*
X131353346Y-89323822D01*
X131400965Y-89228584D01*
X131448584Y-89180965D01*
X131543822Y-89133346D01*
X131781917Y-89133346D01*
X131877155Y-89180965D01*
X131924774Y-89228584D01*
X131972393Y-89323822D01*
X131972393Y-89609536D01*
X131924774Y-89704774D01*
X131877155Y-89752393D01*
X105102393Y-89866679D02*
X104626203Y-90200013D01*
X105102393Y-90438108D02*
X104102393Y-90438108D01*
X104102393Y-90057155D01*
X104150013Y-89961917D01*
X104197632Y-89914298D01*
X104292870Y-89866679D01*
X104435727Y-89866679D01*
X104530965Y-89914298D01*
X104578584Y-89961917D01*
X104626203Y-90057155D01*
X104626203Y-90438108D01*
X105102393Y-88914298D02*
X105102393Y-89485727D01*
X105102393Y-89200013D02*
X104102393Y-89200013D01*
X104245251Y-89295251D01*
X104340489Y-89390489D01*
X104388108Y-89485727D01*
X107502393Y-89966679D02*
X107026203Y-90300013D01*
X107502393Y-90538108D02*
X106502393Y-90538108D01*
X106502393Y-90157155D01*
X106550013Y-90061917D01*
X106597632Y-90014298D01*
X106692870Y-89966679D01*
X106835727Y-89966679D01*
X106930965Y-90014298D01*
X106978584Y-90061917D01*
X107026203Y-90157155D01*
X107026203Y-90538108D01*
X106597632Y-89585727D02*
X106550013Y-89538108D01*
X106502393Y-89442870D01*
X106502393Y-89204774D01*
X106550013Y-89109536D01*
X106597632Y-89061917D01*
X106692870Y-89014298D01*
X106788108Y-89014298D01*
X106930965Y-89061917D01*
X107502393Y-89633346D01*
X107502393Y-89014298D01*
X122583346Y-77852393D02*
X122250013Y-77376203D01*
X122011917Y-77852393D02*
X122011917Y-76852393D01*
X122392870Y-76852393D01*
X122488108Y-76900013D01*
X122535727Y-76947632D01*
X122583346Y-77042870D01*
X122583346Y-77185727D01*
X122535727Y-77280965D01*
X122488108Y-77328584D01*
X122392870Y-77376203D01*
X122011917Y-77376203D01*
X122916679Y-76852393D02*
X123535727Y-76852393D01*
X123202393Y-77233346D01*
X123345251Y-77233346D01*
X123440489Y-77280965D01*
X123488108Y-77328584D01*
X123535727Y-77423822D01*
X123535727Y-77661917D01*
X123488108Y-77757155D01*
X123440489Y-77804774D01*
X123345251Y-77852393D01*
X123059536Y-77852393D01*
X122964298Y-77804774D01*
X122916679Y-77757155D01*
X122383346Y-84202393D02*
X122050013Y-83726203D01*
X121811917Y-84202393D02*
X121811917Y-83202393D01*
X122192870Y-83202393D01*
X122288108Y-83250013D01*
X122335727Y-83297632D01*
X122383346Y-83392870D01*
X122383346Y-83535727D01*
X122335727Y-83630965D01*
X122288108Y-83678584D01*
X122192870Y-83726203D01*
X121811917Y-83726203D01*
X123240489Y-83535727D02*
X123240489Y-84202393D01*
X123002393Y-83154774D02*
X122764298Y-83869060D01*
X123383346Y-83869060D01*
X111288108Y-76152393D02*
X111288108Y-76961917D01*
X111335727Y-77057155D01*
X111383346Y-77104774D01*
X111478584Y-77152393D01*
X111669060Y-77152393D01*
X111764298Y-77104774D01*
X111811917Y-77057155D01*
X111859536Y-76961917D01*
X111859536Y-76152393D01*
X112288108Y-76247632D02*
X112335727Y-76200013D01*
X112430965Y-76152393D01*
X112669060Y-76152393D01*
X112764298Y-76200013D01*
X112811917Y-76247632D01*
X112859536Y-76342870D01*
X112859536Y-76438108D01*
X112811917Y-76580965D01*
X112240489Y-77152393D01*
X112859536Y-77152393D01*
X111054774Y-89847632D02*
X110959536Y-89800013D01*
X110864298Y-89704774D01*
X110721441Y-89561917D01*
X110626203Y-89514298D01*
X110530965Y-89514298D01*
X110578584Y-89752393D02*
X110483346Y-89704774D01*
X110388108Y-89609536D01*
X110340489Y-89419060D01*
X110340489Y-89085727D01*
X110388108Y-88895251D01*
X110483346Y-88800013D01*
X110578584Y-88752393D01*
X110769060Y-88752393D01*
X110864298Y-88800013D01*
X110959536Y-88895251D01*
X111007155Y-89085727D01*
X111007155Y-89419060D01*
X110959536Y-89609536D01*
X110864298Y-89704774D01*
X110769060Y-89752393D01*
X110578584Y-89752393D01*
X111959536Y-89752393D02*
X111388108Y-89752393D01*
X111673822Y-89752393D02*
X111673822Y-88752393D01*
X111578584Y-88895251D01*
X111483346Y-88990489D01*
X111388108Y-89038108D01*
X102054774Y-89947632D02*
X101959536Y-89900013D01*
X101864298Y-89804774D01*
X101721441Y-89661917D01*
X101626203Y-89614298D01*
X101530965Y-89614298D01*
X101578584Y-89852393D02*
X101483346Y-89804774D01*
X101388108Y-89709536D01*
X101340489Y-89519060D01*
X101340489Y-89185727D01*
X101388108Y-88995251D01*
X101483346Y-88900013D01*
X101578584Y-88852393D01*
X101769060Y-88852393D01*
X101864298Y-88900013D01*
X101959536Y-88995251D01*
X102007155Y-89185727D01*
X102007155Y-89519060D01*
X101959536Y-89709536D01*
X101864298Y-89804774D01*
X101769060Y-89852393D01*
X101578584Y-89852393D01*
X102388108Y-88947632D02*
X102435727Y-88900013D01*
X102530965Y-88852393D01*
X102769060Y-88852393D01*
X102864298Y-88900013D01*
X102911917Y-88947632D01*
X102959536Y-89042870D01*
X102959536Y-89138108D01*
X102911917Y-89280965D01*
X102340489Y-89852393D01*
X102959536Y-89852393D01*
X100188108Y-75952393D02*
X100188108Y-76761917D01*
X100235727Y-76857155D01*
X100283346Y-76904774D01*
X100378584Y-76952393D01*
X100569060Y-76952393D01*
X100664298Y-76904774D01*
X100711917Y-76857155D01*
X100759536Y-76761917D01*
X100759536Y-75952393D01*
X101759536Y-76952393D02*
X101188108Y-76952393D01*
X101473822Y-76952393D02*
X101473822Y-75952393D01*
X101378584Y-76095251D01*
X101283346Y-76190489D01*
X101188108Y-76238108D01*
X108282393Y-91583346D02*
X108996679Y-91583346D01*
X109139536Y-91630965D01*
X109234774Y-91726203D01*
X109282393Y-91869060D01*
X109282393Y-91964298D01*
X108615727Y-90678584D02*
X109282393Y-90678584D01*
X108234774Y-90916679D02*
X108949060Y-91154774D01*
X108949060Y-90535727D01*
X66683334Y-74257155D02*
X66635715Y-74304774D01*
X66492858Y-74352393D01*
X66397620Y-74352393D01*
X66254762Y-74304774D01*
X66159524Y-74209536D01*
X66111905Y-74114298D01*
X66064286Y-73923822D01*
X66064286Y-73780965D01*
X66111905Y-73590489D01*
X66159524Y-73495251D01*
X66254762Y-73400013D01*
X66397620Y-73352393D01*
X66492858Y-73352393D01*
X66635715Y-73400013D01*
X66683334Y-73447632D01*
X67635715Y-74352393D02*
X67064286Y-74352393D01*
X67350001Y-74352393D02*
X67350001Y-73352393D01*
X67254762Y-73495251D01*
X67159524Y-73590489D01*
X67064286Y-73638108D01*
X70983334Y-87957155D02*
X70935715Y-88004774D01*
X70792858Y-88052393D01*
X70697620Y-88052393D01*
X70554762Y-88004774D01*
X70459524Y-87909536D01*
X70411905Y-87814298D01*
X70364286Y-87623822D01*
X70364286Y-87480965D01*
X70411905Y-87290489D01*
X70459524Y-87195251D01*
X70554762Y-87100013D01*
X70697620Y-87052393D01*
X70792858Y-87052393D01*
X70935715Y-87100013D01*
X70983334Y-87147632D01*
X71364286Y-87147632D02*
X71411905Y-87100013D01*
X71507143Y-87052393D01*
X71745239Y-87052393D01*
X71840477Y-87100013D01*
X71888096Y-87147632D01*
X71935715Y-87242870D01*
X71935715Y-87338108D01*
X71888096Y-87480965D01*
X71316667Y-88052393D01*
X71935715Y-88052393D01*
X74983334Y-74877155D02*
X74935715Y-74924774D01*
X74792858Y-74972393D01*
X74697620Y-74972393D01*
X74554762Y-74924774D01*
X74459524Y-74829536D01*
X74411905Y-74734298D01*
X74364286Y-74543822D01*
X74364286Y-74400965D01*
X74411905Y-74210489D01*
X74459524Y-74115251D01*
X74554762Y-74020013D01*
X74697620Y-73972393D01*
X74792858Y-73972393D01*
X74935715Y-74020013D01*
X74983334Y-74067632D01*
X75316667Y-73972393D02*
X75935715Y-73972393D01*
X75602381Y-74353346D01*
X75745239Y-74353346D01*
X75840477Y-74400965D01*
X75888096Y-74448584D01*
X75935715Y-74543822D01*
X75935715Y-74781917D01*
X75888096Y-74877155D01*
X75840477Y-74924774D01*
X75745239Y-74972393D01*
X75459524Y-74972393D01*
X75364286Y-74924774D01*
X75316667Y-74877155D01*
X74983334Y-87957155D02*
X74935715Y-88004774D01*
X74792858Y-88052393D01*
X74697620Y-88052393D01*
X74554762Y-88004774D01*
X74459524Y-87909536D01*
X74411905Y-87814298D01*
X74364286Y-87623822D01*
X74364286Y-87480965D01*
X74411905Y-87290489D01*
X74459524Y-87195251D01*
X74554762Y-87100013D01*
X74697620Y-87052393D01*
X74792858Y-87052393D01*
X74935715Y-87100013D01*
X74983334Y-87147632D01*
X75840477Y-87385727D02*
X75840477Y-88052393D01*
X75602381Y-87004774D02*
X75364286Y-87719060D01*
X75983334Y-87719060D01*
X82507381Y-81183346D02*
X83221667Y-81183346D01*
X83364524Y-81230965D01*
X83459762Y-81326203D01*
X83507381Y-81469060D01*
X83507381Y-81564298D01*
X83507381Y-80183346D02*
X83507381Y-80754774D01*
X83507381Y-80469060D02*
X82507381Y-80469060D01*
X82650239Y-80564298D01*
X82745477Y-80659536D01*
X82793096Y-80754774D01*
X54016667Y-72682393D02*
X54016667Y-73396679D01*
X53969048Y-73539536D01*
X53873810Y-73634774D01*
X53730953Y-73682393D01*
X53635715Y-73682393D01*
X54445239Y-72777632D02*
X54492858Y-72730013D01*
X54588096Y-72682393D01*
X54826191Y-72682393D01*
X54921429Y-72730013D01*
X54969048Y-72777632D01*
X55016667Y-72872870D01*
X55016667Y-72968108D01*
X54969048Y-73110965D01*
X54397620Y-73682393D01*
X55016667Y-73682393D01*
X87972381Y-90133346D02*
X88686667Y-90133346D01*
X88829524Y-90180965D01*
X88924762Y-90276203D01*
X88972381Y-90419060D01*
X88972381Y-90514298D01*
X87972381Y-89752393D02*
X87972381Y-89133346D01*
X88353334Y-89466679D01*
X88353334Y-89323822D01*
X88400953Y-89228584D01*
X88448572Y-89180965D01*
X88543810Y-89133346D01*
X88781905Y-89133346D01*
X88877143Y-89180965D01*
X88924762Y-89228584D01*
X88972381Y-89323822D01*
X88972381Y-89609536D01*
X88924762Y-89704774D01*
X88877143Y-89752393D01*
X62102381Y-89866679D02*
X61626191Y-90200013D01*
X62102381Y-90438108D02*
X61102381Y-90438108D01*
X61102381Y-90057155D01*
X61150001Y-89961917D01*
X61197620Y-89914298D01*
X61292858Y-89866679D01*
X61435715Y-89866679D01*
X61530953Y-89914298D01*
X61578572Y-89961917D01*
X61626191Y-90057155D01*
X61626191Y-90438108D01*
X62102381Y-88914298D02*
X62102381Y-89485727D01*
X62102381Y-89200013D02*
X61102381Y-89200013D01*
X61245239Y-89295251D01*
X61340477Y-89390489D01*
X61388096Y-89485727D01*
X64502381Y-89966679D02*
X64026191Y-90300013D01*
X64502381Y-90538108D02*
X63502381Y-90538108D01*
X63502381Y-90157155D01*
X63550001Y-90061917D01*
X63597620Y-90014298D01*
X63692858Y-89966679D01*
X63835715Y-89966679D01*
X63930953Y-90014298D01*
X63978572Y-90061917D01*
X64026191Y-90157155D01*
X64026191Y-90538108D01*
X63597620Y-89585727D02*
X63550001Y-89538108D01*
X63502381Y-89442870D01*
X63502381Y-89204774D01*
X63550001Y-89109536D01*
X63597620Y-89061917D01*
X63692858Y-89014298D01*
X63788096Y-89014298D01*
X63930953Y-89061917D01*
X64502381Y-89633346D01*
X64502381Y-89014298D01*
X79583334Y-77852393D02*
X79250001Y-77376203D01*
X79011905Y-77852393D02*
X79011905Y-76852393D01*
X79392858Y-76852393D01*
X79488096Y-76900013D01*
X79535715Y-76947632D01*
X79583334Y-77042870D01*
X79583334Y-77185727D01*
X79535715Y-77280965D01*
X79488096Y-77328584D01*
X79392858Y-77376203D01*
X79011905Y-77376203D01*
X79916667Y-76852393D02*
X80535715Y-76852393D01*
X80202381Y-77233346D01*
X80345239Y-77233346D01*
X80440477Y-77280965D01*
X80488096Y-77328584D01*
X80535715Y-77423822D01*
X80535715Y-77661917D01*
X80488096Y-77757155D01*
X80440477Y-77804774D01*
X80345239Y-77852393D01*
X80059524Y-77852393D01*
X79964286Y-77804774D01*
X79916667Y-77757155D01*
X79383334Y-84202393D02*
X79050001Y-83726203D01*
X78811905Y-84202393D02*
X78811905Y-83202393D01*
X79192858Y-83202393D01*
X79288096Y-83250013D01*
X79335715Y-83297632D01*
X79383334Y-83392870D01*
X79383334Y-83535727D01*
X79335715Y-83630965D01*
X79288096Y-83678584D01*
X79192858Y-83726203D01*
X78811905Y-83726203D01*
X80240477Y-83535727D02*
X80240477Y-84202393D01*
X80002381Y-83154774D02*
X79764286Y-83869060D01*
X80383334Y-83869060D01*
X68288096Y-76152393D02*
X68288096Y-76961917D01*
X68335715Y-77057155D01*
X68383334Y-77104774D01*
X68478572Y-77152393D01*
X68669048Y-77152393D01*
X68764286Y-77104774D01*
X68811905Y-77057155D01*
X68859524Y-76961917D01*
X68859524Y-76152393D01*
X69288096Y-76247632D02*
X69335715Y-76200013D01*
X69430953Y-76152393D01*
X69669048Y-76152393D01*
X69764286Y-76200013D01*
X69811905Y-76247632D01*
X69859524Y-76342870D01*
X69859524Y-76438108D01*
X69811905Y-76580965D01*
X69240477Y-77152393D01*
X69859524Y-77152393D01*
X68054762Y-89847632D02*
X67959524Y-89800013D01*
X67864286Y-89704774D01*
X67721429Y-89561917D01*
X67626191Y-89514298D01*
X67530953Y-89514298D01*
X67578572Y-89752393D02*
X67483334Y-89704774D01*
X67388096Y-89609536D01*
X67340477Y-89419060D01*
X67340477Y-89085727D01*
X67388096Y-88895251D01*
X67483334Y-88800013D01*
X67578572Y-88752393D01*
X67769048Y-88752393D01*
X67864286Y-88800013D01*
X67959524Y-88895251D01*
X68007143Y-89085727D01*
X68007143Y-89419060D01*
X67959524Y-89609536D01*
X67864286Y-89704774D01*
X67769048Y-89752393D01*
X67578572Y-89752393D01*
X68959524Y-89752393D02*
X68388096Y-89752393D01*
X68673810Y-89752393D02*
X68673810Y-88752393D01*
X68578572Y-88895251D01*
X68483334Y-88990489D01*
X68388096Y-89038108D01*
X59054762Y-89947632D02*
X58959524Y-89900013D01*
X58864286Y-89804774D01*
X58721429Y-89661917D01*
X58626191Y-89614298D01*
X58530953Y-89614298D01*
X58578572Y-89852393D02*
X58483334Y-89804774D01*
X58388096Y-89709536D01*
X58340477Y-89519060D01*
X58340477Y-89185727D01*
X58388096Y-88995251D01*
X58483334Y-88900013D01*
X58578572Y-88852393D01*
X58769048Y-88852393D01*
X58864286Y-88900013D01*
X58959524Y-88995251D01*
X59007143Y-89185727D01*
X59007143Y-89519060D01*
X58959524Y-89709536D01*
X58864286Y-89804774D01*
X58769048Y-89852393D01*
X58578572Y-89852393D01*
X59388096Y-88947632D02*
X59435715Y-88900013D01*
X59530953Y-88852393D01*
X59769048Y-88852393D01*
X59864286Y-88900013D01*
X59911905Y-88947632D01*
X59959524Y-89042870D01*
X59959524Y-89138108D01*
X59911905Y-89280965D01*
X59340477Y-89852393D01*
X59959524Y-89852393D01*
X57188096Y-75952393D02*
X57188096Y-76761917D01*
X57235715Y-76857155D01*
X57283334Y-76904774D01*
X57378572Y-76952393D01*
X57569048Y-76952393D01*
X57664286Y-76904774D01*
X57711905Y-76857155D01*
X57759524Y-76761917D01*
X57759524Y-75952393D01*
X58759524Y-76952393D02*
X58188096Y-76952393D01*
X58473810Y-76952393D02*
X58473810Y-75952393D01*
X58378572Y-76095251D01*
X58283334Y-76190489D01*
X58188096Y-76238108D01*
X65282381Y-91583346D02*
X65996667Y-91583346D01*
X66139524Y-91630965D01*
X66234762Y-91726203D01*
X66282381Y-91869060D01*
X66282381Y-91964298D01*
X65615715Y-90678584D02*
X66282381Y-90678584D01*
X65234762Y-90916679D02*
X65949048Y-91154774D01*
X65949048Y-90535727D01*
X109683346Y-52507143D02*
X109635727Y-52554762D01*
X109492870Y-52602381D01*
X109397632Y-52602381D01*
X109254774Y-52554762D01*
X109159536Y-52459524D01*
X109111917Y-52364286D01*
X109064298Y-52173810D01*
X109064298Y-52030953D01*
X109111917Y-51840477D01*
X109159536Y-51745239D01*
X109254774Y-51650001D01*
X109397632Y-51602381D01*
X109492870Y-51602381D01*
X109635727Y-51650001D01*
X109683346Y-51697620D01*
X110635727Y-52602381D02*
X110064298Y-52602381D01*
X110350013Y-52602381D02*
X110350013Y-51602381D01*
X110254774Y-51745239D01*
X110159536Y-51840477D01*
X110064298Y-51888096D01*
X113983346Y-66207143D02*
X113935727Y-66254762D01*
X113792870Y-66302381D01*
X113697632Y-66302381D01*
X113554774Y-66254762D01*
X113459536Y-66159524D01*
X113411917Y-66064286D01*
X113364298Y-65873810D01*
X113364298Y-65730953D01*
X113411917Y-65540477D01*
X113459536Y-65445239D01*
X113554774Y-65350001D01*
X113697632Y-65302381D01*
X113792870Y-65302381D01*
X113935727Y-65350001D01*
X113983346Y-65397620D01*
X114364298Y-65397620D02*
X114411917Y-65350001D01*
X114507155Y-65302381D01*
X114745251Y-65302381D01*
X114840489Y-65350001D01*
X114888108Y-65397620D01*
X114935727Y-65492858D01*
X114935727Y-65588096D01*
X114888108Y-65730953D01*
X114316679Y-66302381D01*
X114935727Y-66302381D01*
X117983346Y-53127143D02*
X117935727Y-53174762D01*
X117792870Y-53222381D01*
X117697632Y-53222381D01*
X117554774Y-53174762D01*
X117459536Y-53079524D01*
X117411917Y-52984286D01*
X117364298Y-52793810D01*
X117364298Y-52650953D01*
X117411917Y-52460477D01*
X117459536Y-52365239D01*
X117554774Y-52270001D01*
X117697632Y-52222381D01*
X117792870Y-52222381D01*
X117935727Y-52270001D01*
X117983346Y-52317620D01*
X118316679Y-52222381D02*
X118935727Y-52222381D01*
X118602393Y-52603334D01*
X118745251Y-52603334D01*
X118840489Y-52650953D01*
X118888108Y-52698572D01*
X118935727Y-52793810D01*
X118935727Y-53031905D01*
X118888108Y-53127143D01*
X118840489Y-53174762D01*
X118745251Y-53222381D01*
X118459536Y-53222381D01*
X118364298Y-53174762D01*
X118316679Y-53127143D01*
X117983346Y-66207143D02*
X117935727Y-66254762D01*
X117792870Y-66302381D01*
X117697632Y-66302381D01*
X117554774Y-66254762D01*
X117459536Y-66159524D01*
X117411917Y-66064286D01*
X117364298Y-65873810D01*
X117364298Y-65730953D01*
X117411917Y-65540477D01*
X117459536Y-65445239D01*
X117554774Y-65350001D01*
X117697632Y-65302381D01*
X117792870Y-65302381D01*
X117935727Y-65350001D01*
X117983346Y-65397620D01*
X118840489Y-65635715D02*
X118840489Y-66302381D01*
X118602393Y-65254762D02*
X118364298Y-65969048D01*
X118983346Y-65969048D01*
X125507393Y-59433334D02*
X126221679Y-59433334D01*
X126364536Y-59480953D01*
X126459774Y-59576191D01*
X126507393Y-59719048D01*
X126507393Y-59814286D01*
X126507393Y-58433334D02*
X126507393Y-59004762D01*
X126507393Y-58719048D02*
X125507393Y-58719048D01*
X125650251Y-58814286D01*
X125745489Y-58909524D01*
X125793108Y-59004762D01*
X97016679Y-50932381D02*
X97016679Y-51646667D01*
X96969060Y-51789524D01*
X96873822Y-51884762D01*
X96730965Y-51932381D01*
X96635727Y-51932381D01*
X97445251Y-51027620D02*
X97492870Y-50980001D01*
X97588108Y-50932381D01*
X97826203Y-50932381D01*
X97921441Y-50980001D01*
X97969060Y-51027620D01*
X98016679Y-51122858D01*
X98016679Y-51218096D01*
X97969060Y-51360953D01*
X97397632Y-51932381D01*
X98016679Y-51932381D01*
X130972393Y-68383334D02*
X131686679Y-68383334D01*
X131829536Y-68430953D01*
X131924774Y-68526191D01*
X131972393Y-68669048D01*
X131972393Y-68764286D01*
X130972393Y-68002381D02*
X130972393Y-67383334D01*
X131353346Y-67716667D01*
X131353346Y-67573810D01*
X131400965Y-67478572D01*
X131448584Y-67430953D01*
X131543822Y-67383334D01*
X131781917Y-67383334D01*
X131877155Y-67430953D01*
X131924774Y-67478572D01*
X131972393Y-67573810D01*
X131972393Y-67859524D01*
X131924774Y-67954762D01*
X131877155Y-68002381D01*
X105102393Y-68116667D02*
X104626203Y-68450001D01*
X105102393Y-68688096D02*
X104102393Y-68688096D01*
X104102393Y-68307143D01*
X104150013Y-68211905D01*
X104197632Y-68164286D01*
X104292870Y-68116667D01*
X104435727Y-68116667D01*
X104530965Y-68164286D01*
X104578584Y-68211905D01*
X104626203Y-68307143D01*
X104626203Y-68688096D01*
X105102393Y-67164286D02*
X105102393Y-67735715D01*
X105102393Y-67450001D02*
X104102393Y-67450001D01*
X104245251Y-67545239D01*
X104340489Y-67640477D01*
X104388108Y-67735715D01*
X107502393Y-68216667D02*
X107026203Y-68550001D01*
X107502393Y-68788096D02*
X106502393Y-68788096D01*
X106502393Y-68407143D01*
X106550013Y-68311905D01*
X106597632Y-68264286D01*
X106692870Y-68216667D01*
X106835727Y-68216667D01*
X106930965Y-68264286D01*
X106978584Y-68311905D01*
X107026203Y-68407143D01*
X107026203Y-68788096D01*
X106597632Y-67835715D02*
X106550013Y-67788096D01*
X106502393Y-67692858D01*
X106502393Y-67454762D01*
X106550013Y-67359524D01*
X106597632Y-67311905D01*
X106692870Y-67264286D01*
X106788108Y-67264286D01*
X106930965Y-67311905D01*
X107502393Y-67883334D01*
X107502393Y-67264286D01*
X122583346Y-56102381D02*
X122250013Y-55626191D01*
X122011917Y-56102381D02*
X122011917Y-55102381D01*
X122392870Y-55102381D01*
X122488108Y-55150001D01*
X122535727Y-55197620D01*
X122583346Y-55292858D01*
X122583346Y-55435715D01*
X122535727Y-55530953D01*
X122488108Y-55578572D01*
X122392870Y-55626191D01*
X122011917Y-55626191D01*
X122916679Y-55102381D02*
X123535727Y-55102381D01*
X123202393Y-55483334D01*
X123345251Y-55483334D01*
X123440489Y-55530953D01*
X123488108Y-55578572D01*
X123535727Y-55673810D01*
X123535727Y-55911905D01*
X123488108Y-56007143D01*
X123440489Y-56054762D01*
X123345251Y-56102381D01*
X123059536Y-56102381D01*
X122964298Y-56054762D01*
X122916679Y-56007143D01*
X122383346Y-62452381D02*
X122050013Y-61976191D01*
X121811917Y-62452381D02*
X121811917Y-61452381D01*
X122192870Y-61452381D01*
X122288108Y-61500001D01*
X122335727Y-61547620D01*
X122383346Y-61642858D01*
X122383346Y-61785715D01*
X122335727Y-61880953D01*
X122288108Y-61928572D01*
X122192870Y-61976191D01*
X121811917Y-61976191D01*
X123240489Y-61785715D02*
X123240489Y-62452381D01*
X123002393Y-61404762D02*
X122764298Y-62119048D01*
X123383346Y-62119048D01*
X111288108Y-54402381D02*
X111288108Y-55211905D01*
X111335727Y-55307143D01*
X111383346Y-55354762D01*
X111478584Y-55402381D01*
X111669060Y-55402381D01*
X111764298Y-55354762D01*
X111811917Y-55307143D01*
X111859536Y-55211905D01*
X111859536Y-54402381D01*
X112288108Y-54497620D02*
X112335727Y-54450001D01*
X112430965Y-54402381D01*
X112669060Y-54402381D01*
X112764298Y-54450001D01*
X112811917Y-54497620D01*
X112859536Y-54592858D01*
X112859536Y-54688096D01*
X112811917Y-54830953D01*
X112240489Y-55402381D01*
X112859536Y-55402381D01*
X111054774Y-68097620D02*
X110959536Y-68050001D01*
X110864298Y-67954762D01*
X110721441Y-67811905D01*
X110626203Y-67764286D01*
X110530965Y-67764286D01*
X110578584Y-68002381D02*
X110483346Y-67954762D01*
X110388108Y-67859524D01*
X110340489Y-67669048D01*
X110340489Y-67335715D01*
X110388108Y-67145239D01*
X110483346Y-67050001D01*
X110578584Y-67002381D01*
X110769060Y-67002381D01*
X110864298Y-67050001D01*
X110959536Y-67145239D01*
X111007155Y-67335715D01*
X111007155Y-67669048D01*
X110959536Y-67859524D01*
X110864298Y-67954762D01*
X110769060Y-68002381D01*
X110578584Y-68002381D01*
X111959536Y-68002381D02*
X111388108Y-68002381D01*
X111673822Y-68002381D02*
X111673822Y-67002381D01*
X111578584Y-67145239D01*
X111483346Y-67240477D01*
X111388108Y-67288096D01*
X102054774Y-68197620D02*
X101959536Y-68150001D01*
X101864298Y-68054762D01*
X101721441Y-67911905D01*
X101626203Y-67864286D01*
X101530965Y-67864286D01*
X101578584Y-68102381D02*
X101483346Y-68054762D01*
X101388108Y-67959524D01*
X101340489Y-67769048D01*
X101340489Y-67435715D01*
X101388108Y-67245239D01*
X101483346Y-67150001D01*
X101578584Y-67102381D01*
X101769060Y-67102381D01*
X101864298Y-67150001D01*
X101959536Y-67245239D01*
X102007155Y-67435715D01*
X102007155Y-67769048D01*
X101959536Y-67959524D01*
X101864298Y-68054762D01*
X101769060Y-68102381D01*
X101578584Y-68102381D01*
X102388108Y-67197620D02*
X102435727Y-67150001D01*
X102530965Y-67102381D01*
X102769060Y-67102381D01*
X102864298Y-67150001D01*
X102911917Y-67197620D01*
X102959536Y-67292858D01*
X102959536Y-67388096D01*
X102911917Y-67530953D01*
X102340489Y-68102381D01*
X102959536Y-68102381D01*
X100188108Y-54202381D02*
X100188108Y-55011905D01*
X100235727Y-55107143D01*
X100283346Y-55154762D01*
X100378584Y-55202381D01*
X100569060Y-55202381D01*
X100664298Y-55154762D01*
X100711917Y-55107143D01*
X100759536Y-55011905D01*
X100759536Y-54202381D01*
X101759536Y-55202381D02*
X101188108Y-55202381D01*
X101473822Y-55202381D02*
X101473822Y-54202381D01*
X101378584Y-54345239D01*
X101283346Y-54440477D01*
X101188108Y-54488096D01*
X108282393Y-69833334D02*
X108996679Y-69833334D01*
X109139536Y-69880953D01*
X109234774Y-69976191D01*
X109282393Y-70119048D01*
X109282393Y-70214286D01*
X108615727Y-68928572D02*
X109282393Y-68928572D01*
X108234774Y-69166667D02*
X108949060Y-69404762D01*
X108949060Y-68785715D01*
X66683334Y-52507143D02*
X66635715Y-52554762D01*
X66492858Y-52602381D01*
X66397620Y-52602381D01*
X66254762Y-52554762D01*
X66159524Y-52459524D01*
X66111905Y-52364286D01*
X66064286Y-52173810D01*
X66064286Y-52030953D01*
X66111905Y-51840477D01*
X66159524Y-51745239D01*
X66254762Y-51650001D01*
X66397620Y-51602381D01*
X66492858Y-51602381D01*
X66635715Y-51650001D01*
X66683334Y-51697620D01*
X67635715Y-52602381D02*
X67064286Y-52602381D01*
X67350001Y-52602381D02*
X67350001Y-51602381D01*
X67254762Y-51745239D01*
X67159524Y-51840477D01*
X67064286Y-51888096D01*
X70983334Y-66207143D02*
X70935715Y-66254762D01*
X70792858Y-66302381D01*
X70697620Y-66302381D01*
X70554762Y-66254762D01*
X70459524Y-66159524D01*
X70411905Y-66064286D01*
X70364286Y-65873810D01*
X70364286Y-65730953D01*
X70411905Y-65540477D01*
X70459524Y-65445239D01*
X70554762Y-65350001D01*
X70697620Y-65302381D01*
X70792858Y-65302381D01*
X70935715Y-65350001D01*
X70983334Y-65397620D01*
X71364286Y-65397620D02*
X71411905Y-65350001D01*
X71507143Y-65302381D01*
X71745239Y-65302381D01*
X71840477Y-65350001D01*
X71888096Y-65397620D01*
X71935715Y-65492858D01*
X71935715Y-65588096D01*
X71888096Y-65730953D01*
X71316667Y-66302381D01*
X71935715Y-66302381D01*
X74983334Y-53127143D02*
X74935715Y-53174762D01*
X74792858Y-53222381D01*
X74697620Y-53222381D01*
X74554762Y-53174762D01*
X74459524Y-53079524D01*
X74411905Y-52984286D01*
X74364286Y-52793810D01*
X74364286Y-52650953D01*
X74411905Y-52460477D01*
X74459524Y-52365239D01*
X74554762Y-52270001D01*
X74697620Y-52222381D01*
X74792858Y-52222381D01*
X74935715Y-52270001D01*
X74983334Y-52317620D01*
X75316667Y-52222381D02*
X75935715Y-52222381D01*
X75602381Y-52603334D01*
X75745239Y-52603334D01*
X75840477Y-52650953D01*
X75888096Y-52698572D01*
X75935715Y-52793810D01*
X75935715Y-53031905D01*
X75888096Y-53127143D01*
X75840477Y-53174762D01*
X75745239Y-53222381D01*
X75459524Y-53222381D01*
X75364286Y-53174762D01*
X75316667Y-53127143D01*
X74983334Y-66207143D02*
X74935715Y-66254762D01*
X74792858Y-66302381D01*
X74697620Y-66302381D01*
X74554762Y-66254762D01*
X74459524Y-66159524D01*
X74411905Y-66064286D01*
X74364286Y-65873810D01*
X74364286Y-65730953D01*
X74411905Y-65540477D01*
X74459524Y-65445239D01*
X74554762Y-65350001D01*
X74697620Y-65302381D01*
X74792858Y-65302381D01*
X74935715Y-65350001D01*
X74983334Y-65397620D01*
X75840477Y-65635715D02*
X75840477Y-66302381D01*
X75602381Y-65254762D02*
X75364286Y-65969048D01*
X75983334Y-65969048D01*
X82507381Y-59433334D02*
X83221667Y-59433334D01*
X83364524Y-59480953D01*
X83459762Y-59576191D01*
X83507381Y-59719048D01*
X83507381Y-59814286D01*
X83507381Y-58433334D02*
X83507381Y-59004762D01*
X83507381Y-58719048D02*
X82507381Y-58719048D01*
X82650239Y-58814286D01*
X82745477Y-58909524D01*
X82793096Y-59004762D01*
X54016667Y-50932381D02*
X54016667Y-51646667D01*
X53969048Y-51789524D01*
X53873810Y-51884762D01*
X53730953Y-51932381D01*
X53635715Y-51932381D01*
X54445239Y-51027620D02*
X54492858Y-50980001D01*
X54588096Y-50932381D01*
X54826191Y-50932381D01*
X54921429Y-50980001D01*
X54969048Y-51027620D01*
X55016667Y-51122858D01*
X55016667Y-51218096D01*
X54969048Y-51360953D01*
X54397620Y-51932381D01*
X55016667Y-51932381D01*
X87972381Y-68383334D02*
X88686667Y-68383334D01*
X88829524Y-68430953D01*
X88924762Y-68526191D01*
X88972381Y-68669048D01*
X88972381Y-68764286D01*
X87972381Y-68002381D02*
X87972381Y-67383334D01*
X88353334Y-67716667D01*
X88353334Y-67573810D01*
X88400953Y-67478572D01*
X88448572Y-67430953D01*
X88543810Y-67383334D01*
X88781905Y-67383334D01*
X88877143Y-67430953D01*
X88924762Y-67478572D01*
X88972381Y-67573810D01*
X88972381Y-67859524D01*
X88924762Y-67954762D01*
X88877143Y-68002381D01*
X62102381Y-68116667D02*
X61626191Y-68450001D01*
X62102381Y-68688096D02*
X61102381Y-68688096D01*
X61102381Y-68307143D01*
X61150001Y-68211905D01*
X61197620Y-68164286D01*
X61292858Y-68116667D01*
X61435715Y-68116667D01*
X61530953Y-68164286D01*
X61578572Y-68211905D01*
X61626191Y-68307143D01*
X61626191Y-68688096D01*
X62102381Y-67164286D02*
X62102381Y-67735715D01*
X62102381Y-67450001D02*
X61102381Y-67450001D01*
X61245239Y-67545239D01*
X61340477Y-67640477D01*
X61388096Y-67735715D01*
X64502381Y-68216667D02*
X64026191Y-68550001D01*
X64502381Y-68788096D02*
X63502381Y-68788096D01*
X63502381Y-68407143D01*
X63550001Y-68311905D01*
X63597620Y-68264286D01*
X63692858Y-68216667D01*
X63835715Y-68216667D01*
X63930953Y-68264286D01*
X63978572Y-68311905D01*
X64026191Y-68407143D01*
X64026191Y-68788096D01*
X63597620Y-67835715D02*
X63550001Y-67788096D01*
X63502381Y-67692858D01*
X63502381Y-67454762D01*
X63550001Y-67359524D01*
X63597620Y-67311905D01*
X63692858Y-67264286D01*
X63788096Y-67264286D01*
X63930953Y-67311905D01*
X64502381Y-67883334D01*
X64502381Y-67264286D01*
X79583334Y-56102381D02*
X79250001Y-55626191D01*
X79011905Y-56102381D02*
X79011905Y-55102381D01*
X79392858Y-55102381D01*
X79488096Y-55150001D01*
X79535715Y-55197620D01*
X79583334Y-55292858D01*
X79583334Y-55435715D01*
X79535715Y-55530953D01*
X79488096Y-55578572D01*
X79392858Y-55626191D01*
X79011905Y-55626191D01*
X79916667Y-55102381D02*
X80535715Y-55102381D01*
X80202381Y-55483334D01*
X80345239Y-55483334D01*
X80440477Y-55530953D01*
X80488096Y-55578572D01*
X80535715Y-55673810D01*
X80535715Y-55911905D01*
X80488096Y-56007143D01*
X80440477Y-56054762D01*
X80345239Y-56102381D01*
X80059524Y-56102381D01*
X79964286Y-56054762D01*
X79916667Y-56007143D01*
X79383334Y-62452381D02*
X79050001Y-61976191D01*
X78811905Y-62452381D02*
X78811905Y-61452381D01*
X79192858Y-61452381D01*
X79288096Y-61500001D01*
X79335715Y-61547620D01*
X79383334Y-61642858D01*
X79383334Y-61785715D01*
X79335715Y-61880953D01*
X79288096Y-61928572D01*
X79192858Y-61976191D01*
X78811905Y-61976191D01*
X80240477Y-61785715D02*
X80240477Y-62452381D01*
X80002381Y-61404762D02*
X79764286Y-62119048D01*
X80383334Y-62119048D01*
X68288096Y-54402381D02*
X68288096Y-55211905D01*
X68335715Y-55307143D01*
X68383334Y-55354762D01*
X68478572Y-55402381D01*
X68669048Y-55402381D01*
X68764286Y-55354762D01*
X68811905Y-55307143D01*
X68859524Y-55211905D01*
X68859524Y-54402381D01*
X69288096Y-54497620D02*
X69335715Y-54450001D01*
X69430953Y-54402381D01*
X69669048Y-54402381D01*
X69764286Y-54450001D01*
X69811905Y-54497620D01*
X69859524Y-54592858D01*
X69859524Y-54688096D01*
X69811905Y-54830953D01*
X69240477Y-55402381D01*
X69859524Y-55402381D01*
X68054762Y-68097620D02*
X67959524Y-68050001D01*
X67864286Y-67954762D01*
X67721429Y-67811905D01*
X67626191Y-67764286D01*
X67530953Y-67764286D01*
X67578572Y-68002381D02*
X67483334Y-67954762D01*
X67388096Y-67859524D01*
X67340477Y-67669048D01*
X67340477Y-67335715D01*
X67388096Y-67145239D01*
X67483334Y-67050001D01*
X67578572Y-67002381D01*
X67769048Y-67002381D01*
X67864286Y-67050001D01*
X67959524Y-67145239D01*
X68007143Y-67335715D01*
X68007143Y-67669048D01*
X67959524Y-67859524D01*
X67864286Y-67954762D01*
X67769048Y-68002381D01*
X67578572Y-68002381D01*
X68959524Y-68002381D02*
X68388096Y-68002381D01*
X68673810Y-68002381D02*
X68673810Y-67002381D01*
X68578572Y-67145239D01*
X68483334Y-67240477D01*
X68388096Y-67288096D01*
X59054762Y-68197620D02*
X58959524Y-68150001D01*
X58864286Y-68054762D01*
X58721429Y-67911905D01*
X58626191Y-67864286D01*
X58530953Y-67864286D01*
X58578572Y-68102381D02*
X58483334Y-68054762D01*
X58388096Y-67959524D01*
X58340477Y-67769048D01*
X58340477Y-67435715D01*
X58388096Y-67245239D01*
X58483334Y-67150001D01*
X58578572Y-67102381D01*
X58769048Y-67102381D01*
X58864286Y-67150001D01*
X58959524Y-67245239D01*
X59007143Y-67435715D01*
X59007143Y-67769048D01*
X58959524Y-67959524D01*
X58864286Y-68054762D01*
X58769048Y-68102381D01*
X58578572Y-68102381D01*
X59388096Y-67197620D02*
X59435715Y-67150001D01*
X59530953Y-67102381D01*
X59769048Y-67102381D01*
X59864286Y-67150001D01*
X59911905Y-67197620D01*
X59959524Y-67292858D01*
X59959524Y-67388096D01*
X59911905Y-67530953D01*
X59340477Y-68102381D01*
X59959524Y-68102381D01*
X57188096Y-54202381D02*
X57188096Y-55011905D01*
X57235715Y-55107143D01*
X57283334Y-55154762D01*
X57378572Y-55202381D01*
X57569048Y-55202381D01*
X57664286Y-55154762D01*
X57711905Y-55107143D01*
X57759524Y-55011905D01*
X57759524Y-54202381D01*
X58759524Y-55202381D02*
X58188096Y-55202381D01*
X58473810Y-55202381D02*
X58473810Y-54202381D01*
X58378572Y-54345239D01*
X58283334Y-54440477D01*
X58188096Y-54488096D01*
X65282381Y-69833334D02*
X65996667Y-69833334D01*
X66139524Y-69880953D01*
X66234762Y-69976191D01*
X66282381Y-70119048D01*
X66282381Y-70214286D01*
X65615715Y-68928572D02*
X66282381Y-68928572D01*
X65234762Y-69166667D02*
X65949048Y-69404762D01*
X65949048Y-68785715D01*
M02*
