G04 #@! TF.GenerationSoftware,KiCad,Pcbnew,5.1.7-a382d34a8~88~ubuntu20.04.1*
G04 #@! TF.CreationDate,2020-12-13T09:41:47+11:00*
G04 #@! TF.ProjectId,esp32-prog-panel,65737033-322d-4707-926f-672d70616e65,rev?*
G04 #@! TF.SameCoordinates,Original*
G04 #@! TF.FileFunction,Soldermask,Top*
G04 #@! TF.FilePolarity,Negative*
%FSLAX46Y46*%
G04 Gerber Fmt 4.6, Leading zero omitted, Abs format (unit mm)*
G04 Created by KiCad (PCBNEW 5.1.7-a382d34a8~88~ubuntu20.04.1) date 2020-12-13 09:41:47*
%MOMM*%
%LPD*%
G01*
G04 APERTURE LIST*
%ADD10C,1.500000*%
%ADD11C,2.000000*%
%ADD12O,1.600000X1.000000*%
%ADD13C,0.650000*%
%ADD14O,2.100000X1.000000*%
%ADD15R,1.450000X0.300000*%
%ADD16R,1.450000X0.600000*%
%ADD17R,1.700000X1.700000*%
%ADD18O,1.700000X1.700000*%
%ADD19R,2.000000X3.800000*%
%ADD20R,2.000000X1.500000*%
%ADD21R,0.900000X0.800000*%
G04 APERTURE END LIST*
D10*
X46000012Y-140000024D03*
X140000012Y-47000024D03*
X46000012Y-47000024D03*
D11*
X46000012Y-137000024D03*
X140000012Y-50000024D03*
X46000012Y-50000024D03*
G36*
G01*
X110275013Y-118825037D02*
X110275013Y-119775037D01*
G75*
G02*
X110025013Y-120025037I-250000J0D01*
G01*
X109350013Y-120025037D01*
G75*
G02*
X109100013Y-119775037I0J250000D01*
G01*
X109100013Y-118825037D01*
G75*
G02*
X109350013Y-118575037I250000J0D01*
G01*
X110025013Y-118575037D01*
G75*
G02*
X110275013Y-118825037I0J-250000D01*
G01*
G37*
G36*
G01*
X108200013Y-118825037D02*
X108200013Y-119775037D01*
G75*
G02*
X107950013Y-120025037I-250000J0D01*
G01*
X107275013Y-120025037D01*
G75*
G02*
X107025013Y-119775037I0J250000D01*
G01*
X107025013Y-118825037D01*
G75*
G02*
X107275013Y-118575037I250000J0D01*
G01*
X107950013Y-118575037D01*
G75*
G02*
X108200013Y-118825037I0J-250000D01*
G01*
G37*
G36*
G01*
X112625013Y-129775037D02*
X112625013Y-128825037D01*
G75*
G02*
X112875013Y-128575037I250000J0D01*
G01*
X113550013Y-128575037D01*
G75*
G02*
X113800013Y-128825037I0J-250000D01*
G01*
X113800013Y-129775037D01*
G75*
G02*
X113550013Y-130025037I-250000J0D01*
G01*
X112875013Y-130025037D01*
G75*
G02*
X112625013Y-129775037I0J250000D01*
G01*
G37*
G36*
G01*
X114700013Y-129775037D02*
X114700013Y-128825037D01*
G75*
G02*
X114950013Y-128575037I250000J0D01*
G01*
X115625013Y-128575037D01*
G75*
G02*
X115875013Y-128825037I0J-250000D01*
G01*
X115875013Y-129775037D01*
G75*
G02*
X115625013Y-130025037I-250000J0D01*
G01*
X114950013Y-130025037D01*
G75*
G02*
X114700013Y-129775037I0J250000D01*
G01*
G37*
G36*
G01*
X116525013Y-120175037D02*
X116525013Y-119225037D01*
G75*
G02*
X116775013Y-118975037I250000J0D01*
G01*
X117450013Y-118975037D01*
G75*
G02*
X117700013Y-119225037I0J-250000D01*
G01*
X117700013Y-120175037D01*
G75*
G02*
X117450013Y-120425037I-250000J0D01*
G01*
X116775013Y-120425037D01*
G75*
G02*
X116525013Y-120175037I0J250000D01*
G01*
G37*
G36*
G01*
X118600013Y-120175037D02*
X118600013Y-119225037D01*
G75*
G02*
X118850013Y-118975037I250000J0D01*
G01*
X119525013Y-118975037D01*
G75*
G02*
X119775013Y-119225037I0J-250000D01*
G01*
X119775013Y-120175037D01*
G75*
G02*
X119525013Y-120425037I-250000J0D01*
G01*
X118850013Y-120425037D01*
G75*
G02*
X118600013Y-120175037I0J250000D01*
G01*
G37*
G36*
G01*
X116525013Y-129775037D02*
X116525013Y-128825037D01*
G75*
G02*
X116775013Y-128575037I250000J0D01*
G01*
X117450013Y-128575037D01*
G75*
G02*
X117700013Y-128825037I0J-250000D01*
G01*
X117700013Y-129775037D01*
G75*
G02*
X117450013Y-130025037I-250000J0D01*
G01*
X116775013Y-130025037D01*
G75*
G02*
X116525013Y-129775037I0J250000D01*
G01*
G37*
G36*
G01*
X118600013Y-129775037D02*
X118600013Y-128825037D01*
G75*
G02*
X118850013Y-128575037I250000J0D01*
G01*
X119525013Y-128575037D01*
G75*
G02*
X119775013Y-128825037I0J-250000D01*
G01*
X119775013Y-129775037D01*
G75*
G02*
X119525013Y-130025037I-250000J0D01*
G01*
X118850013Y-130025037D01*
G75*
G02*
X118600013Y-129775037I0J250000D01*
G01*
G37*
D12*
X132750013Y-120030037D03*
D13*
X129100013Y-121460037D03*
D12*
X132750013Y-128670037D03*
D13*
X129100013Y-127240037D03*
D14*
X128570013Y-128670037D03*
X128570013Y-120030037D03*
D15*
X127655013Y-124600037D03*
X127655013Y-122600037D03*
X127655013Y-123100037D03*
X127655013Y-123600037D03*
X127655013Y-124100037D03*
X127655013Y-125100037D03*
X127655013Y-125600037D03*
X127655013Y-126100037D03*
D16*
X127655013Y-121100037D03*
X127655013Y-121900037D03*
X127655013Y-126800037D03*
X127655013Y-127600037D03*
X127655013Y-127600037D03*
X127655013Y-126800037D03*
X127655013Y-121900037D03*
X127655013Y-121100037D03*
D17*
X97350013Y-119500037D03*
D18*
X97350013Y-122040037D03*
X97350013Y-124580037D03*
X97350013Y-127120037D03*
X97350013Y-129660037D03*
X97350013Y-132200037D03*
D17*
X128750013Y-133300037D03*
D18*
X126210013Y-133300037D03*
X123670013Y-133300037D03*
X121130013Y-133300037D03*
X118590013Y-133300037D03*
X116050013Y-133300037D03*
G36*
G01*
X105100014Y-131900037D02*
X104200012Y-131900037D01*
G75*
G02*
X103950013Y-131650038I0J249999D01*
G01*
X103950013Y-130950036D01*
G75*
G02*
X104200012Y-130700037I249999J0D01*
G01*
X105100014Y-130700037D01*
G75*
G02*
X105350013Y-130950036I0J-249999D01*
G01*
X105350013Y-131650038D01*
G75*
G02*
X105100014Y-131900037I-249999J0D01*
G01*
G37*
G36*
G01*
X105100014Y-129900037D02*
X104200012Y-129900037D01*
G75*
G02*
X103950013Y-129650038I0J249999D01*
G01*
X103950013Y-128950036D01*
G75*
G02*
X104200012Y-128700037I249999J0D01*
G01*
X105100014Y-128700037D01*
G75*
G02*
X105350013Y-128950036I0J-249999D01*
G01*
X105350013Y-129650038D01*
G75*
G02*
X105100014Y-129900037I-249999J0D01*
G01*
G37*
G36*
G01*
X106600012Y-128700037D02*
X107500014Y-128700037D01*
G75*
G02*
X107750013Y-128950036I0J-249999D01*
G01*
X107750013Y-129650038D01*
G75*
G02*
X107500014Y-129900037I-249999J0D01*
G01*
X106600012Y-129900037D01*
G75*
G02*
X106350013Y-129650038I0J249999D01*
G01*
X106350013Y-128950036D01*
G75*
G02*
X106600012Y-128700037I249999J0D01*
G01*
G37*
G36*
G01*
X106600012Y-130700037D02*
X107500014Y-130700037D01*
G75*
G02*
X107750013Y-130950036I0J-249999D01*
G01*
X107750013Y-131650038D01*
G75*
G02*
X107500014Y-131900037I-249999J0D01*
G01*
X106600012Y-131900037D01*
G75*
G02*
X106350013Y-131650038I0J249999D01*
G01*
X106350013Y-130950036D01*
G75*
G02*
X106600012Y-130700037I249999J0D01*
G01*
G37*
G36*
G01*
X124150013Y-122150036D02*
X124150013Y-123050038D01*
G75*
G02*
X123900014Y-123300037I-249999J0D01*
G01*
X123200012Y-123300037D01*
G75*
G02*
X122950013Y-123050038I0J249999D01*
G01*
X122950013Y-122150036D01*
G75*
G02*
X123200012Y-121900037I249999J0D01*
G01*
X123900014Y-121900037D01*
G75*
G02*
X124150013Y-122150036I0J-249999D01*
G01*
G37*
G36*
G01*
X122150013Y-122150036D02*
X122150013Y-123050038D01*
G75*
G02*
X121900014Y-123300037I-249999J0D01*
G01*
X121200012Y-123300037D01*
G75*
G02*
X120950013Y-123050038I0J249999D01*
G01*
X120950013Y-122150036D01*
G75*
G02*
X121200012Y-121900037I249999J0D01*
G01*
X121900014Y-121900037D01*
G75*
G02*
X122150013Y-122150036I0J-249999D01*
G01*
G37*
G36*
G01*
X124150013Y-125150036D02*
X124150013Y-126050038D01*
G75*
G02*
X123900014Y-126300037I-249999J0D01*
G01*
X123200012Y-126300037D01*
G75*
G02*
X122950013Y-126050038I0J249999D01*
G01*
X122950013Y-125150036D01*
G75*
G02*
X123200012Y-124900037I249999J0D01*
G01*
X123900014Y-124900037D01*
G75*
G02*
X124150013Y-125150036I0J-249999D01*
G01*
G37*
G36*
G01*
X122150013Y-125150036D02*
X122150013Y-126050038D01*
G75*
G02*
X121900014Y-126300037I-249999J0D01*
G01*
X121200012Y-126300037D01*
G75*
G02*
X120950013Y-126050038I0J249999D01*
G01*
X120950013Y-125150036D01*
G75*
G02*
X121200012Y-124900037I249999J0D01*
G01*
X121900014Y-124900037D01*
G75*
G02*
X122150013Y-125150036I0J-249999D01*
G01*
G37*
D19*
X112500013Y-124500037D03*
D20*
X118800013Y-124500037D03*
X118800013Y-122200037D03*
X118800013Y-126800037D03*
D21*
X109050013Y-129350037D03*
X109050013Y-131250037D03*
X111050013Y-130300037D03*
X102250013Y-131250037D03*
X102250013Y-129350037D03*
X100250013Y-130300037D03*
G36*
G01*
X109645013Y-120950037D02*
X109945013Y-120950037D01*
G75*
G02*
X110095013Y-121100037I0J-150000D01*
G01*
X110095013Y-122550037D01*
G75*
G02*
X109945013Y-122700037I-150000J0D01*
G01*
X109645013Y-122700037D01*
G75*
G02*
X109495013Y-122550037I0J150000D01*
G01*
X109495013Y-121100037D01*
G75*
G02*
X109645013Y-120950037I150000J0D01*
G01*
G37*
G36*
G01*
X108375013Y-120950037D02*
X108675013Y-120950037D01*
G75*
G02*
X108825013Y-121100037I0J-150000D01*
G01*
X108825013Y-122550037D01*
G75*
G02*
X108675013Y-122700037I-150000J0D01*
G01*
X108375013Y-122700037D01*
G75*
G02*
X108225013Y-122550037I0J150000D01*
G01*
X108225013Y-121100037D01*
G75*
G02*
X108375013Y-120950037I150000J0D01*
G01*
G37*
G36*
G01*
X107105013Y-120950037D02*
X107405013Y-120950037D01*
G75*
G02*
X107555013Y-121100037I0J-150000D01*
G01*
X107555013Y-122550037D01*
G75*
G02*
X107405013Y-122700037I-150000J0D01*
G01*
X107105013Y-122700037D01*
G75*
G02*
X106955013Y-122550037I0J150000D01*
G01*
X106955013Y-121100037D01*
G75*
G02*
X107105013Y-120950037I150000J0D01*
G01*
G37*
G36*
G01*
X105835013Y-120950037D02*
X106135013Y-120950037D01*
G75*
G02*
X106285013Y-121100037I0J-150000D01*
G01*
X106285013Y-122550037D01*
G75*
G02*
X106135013Y-122700037I-150000J0D01*
G01*
X105835013Y-122700037D01*
G75*
G02*
X105685013Y-122550037I0J150000D01*
G01*
X105685013Y-121100037D01*
G75*
G02*
X105835013Y-120950037I150000J0D01*
G01*
G37*
G36*
G01*
X104565013Y-120950037D02*
X104865013Y-120950037D01*
G75*
G02*
X105015013Y-121100037I0J-150000D01*
G01*
X105015013Y-122550037D01*
G75*
G02*
X104865013Y-122700037I-150000J0D01*
G01*
X104565013Y-122700037D01*
G75*
G02*
X104415013Y-122550037I0J150000D01*
G01*
X104415013Y-121100037D01*
G75*
G02*
X104565013Y-120950037I150000J0D01*
G01*
G37*
G36*
G01*
X103295013Y-120950037D02*
X103595013Y-120950037D01*
G75*
G02*
X103745013Y-121100037I0J-150000D01*
G01*
X103745013Y-122550037D01*
G75*
G02*
X103595013Y-122700037I-150000J0D01*
G01*
X103295013Y-122700037D01*
G75*
G02*
X103145013Y-122550037I0J150000D01*
G01*
X103145013Y-121100037D01*
G75*
G02*
X103295013Y-120950037I150000J0D01*
G01*
G37*
G36*
G01*
X102025013Y-120950037D02*
X102325013Y-120950037D01*
G75*
G02*
X102475013Y-121100037I0J-150000D01*
G01*
X102475013Y-122550037D01*
G75*
G02*
X102325013Y-122700037I-150000J0D01*
G01*
X102025013Y-122700037D01*
G75*
G02*
X101875013Y-122550037I0J150000D01*
G01*
X101875013Y-121100037D01*
G75*
G02*
X102025013Y-120950037I150000J0D01*
G01*
G37*
G36*
G01*
X100755013Y-120950037D02*
X101055013Y-120950037D01*
G75*
G02*
X101205013Y-121100037I0J-150000D01*
G01*
X101205013Y-122550037D01*
G75*
G02*
X101055013Y-122700037I-150000J0D01*
G01*
X100755013Y-122700037D01*
G75*
G02*
X100605013Y-122550037I0J150000D01*
G01*
X100605013Y-121100037D01*
G75*
G02*
X100755013Y-120950037I150000J0D01*
G01*
G37*
G36*
G01*
X100755013Y-126100037D02*
X101055013Y-126100037D01*
G75*
G02*
X101205013Y-126250037I0J-150000D01*
G01*
X101205013Y-127700037D01*
G75*
G02*
X101055013Y-127850037I-150000J0D01*
G01*
X100755013Y-127850037D01*
G75*
G02*
X100605013Y-127700037I0J150000D01*
G01*
X100605013Y-126250037D01*
G75*
G02*
X100755013Y-126100037I150000J0D01*
G01*
G37*
G36*
G01*
X102025013Y-126100037D02*
X102325013Y-126100037D01*
G75*
G02*
X102475013Y-126250037I0J-150000D01*
G01*
X102475013Y-127700037D01*
G75*
G02*
X102325013Y-127850037I-150000J0D01*
G01*
X102025013Y-127850037D01*
G75*
G02*
X101875013Y-127700037I0J150000D01*
G01*
X101875013Y-126250037D01*
G75*
G02*
X102025013Y-126100037I150000J0D01*
G01*
G37*
G36*
G01*
X103295013Y-126100037D02*
X103595013Y-126100037D01*
G75*
G02*
X103745013Y-126250037I0J-150000D01*
G01*
X103745013Y-127700037D01*
G75*
G02*
X103595013Y-127850037I-150000J0D01*
G01*
X103295013Y-127850037D01*
G75*
G02*
X103145013Y-127700037I0J150000D01*
G01*
X103145013Y-126250037D01*
G75*
G02*
X103295013Y-126100037I150000J0D01*
G01*
G37*
G36*
G01*
X104565013Y-126100037D02*
X104865013Y-126100037D01*
G75*
G02*
X105015013Y-126250037I0J-150000D01*
G01*
X105015013Y-127700037D01*
G75*
G02*
X104865013Y-127850037I-150000J0D01*
G01*
X104565013Y-127850037D01*
G75*
G02*
X104415013Y-127700037I0J150000D01*
G01*
X104415013Y-126250037D01*
G75*
G02*
X104565013Y-126100037I150000J0D01*
G01*
G37*
G36*
G01*
X105835013Y-126100037D02*
X106135013Y-126100037D01*
G75*
G02*
X106285013Y-126250037I0J-150000D01*
G01*
X106285013Y-127700037D01*
G75*
G02*
X106135013Y-127850037I-150000J0D01*
G01*
X105835013Y-127850037D01*
G75*
G02*
X105685013Y-127700037I0J150000D01*
G01*
X105685013Y-126250037D01*
G75*
G02*
X105835013Y-126100037I150000J0D01*
G01*
G37*
G36*
G01*
X107105013Y-126100037D02*
X107405013Y-126100037D01*
G75*
G02*
X107555013Y-126250037I0J-150000D01*
G01*
X107555013Y-127700037D01*
G75*
G02*
X107405013Y-127850037I-150000J0D01*
G01*
X107105013Y-127850037D01*
G75*
G02*
X106955013Y-127700037I0J150000D01*
G01*
X106955013Y-126250037D01*
G75*
G02*
X107105013Y-126100037I150000J0D01*
G01*
G37*
G36*
G01*
X108375013Y-126100037D02*
X108675013Y-126100037D01*
G75*
G02*
X108825013Y-126250037I0J-150000D01*
G01*
X108825013Y-127700037D01*
G75*
G02*
X108675013Y-127850037I-150000J0D01*
G01*
X108375013Y-127850037D01*
G75*
G02*
X108225013Y-127700037I0J150000D01*
G01*
X108225013Y-126250037D01*
G75*
G02*
X108375013Y-126100037I150000J0D01*
G01*
G37*
G36*
G01*
X109645013Y-126100037D02*
X109945013Y-126100037D01*
G75*
G02*
X110095013Y-126250037I0J-150000D01*
G01*
X110095013Y-127700037D01*
G75*
G02*
X109945013Y-127850037I-150000J0D01*
G01*
X109645013Y-127850037D01*
G75*
G02*
X109495013Y-127700037I0J150000D01*
G01*
X109495013Y-126250037D01*
G75*
G02*
X109645013Y-126100037I150000J0D01*
G01*
G37*
D18*
X103960013Y-134750037D03*
D17*
X106500013Y-134750037D03*
G36*
G01*
X67275001Y-118825037D02*
X67275001Y-119775037D01*
G75*
G02*
X67025001Y-120025037I-250000J0D01*
G01*
X66350001Y-120025037D01*
G75*
G02*
X66100001Y-119775037I0J250000D01*
G01*
X66100001Y-118825037D01*
G75*
G02*
X66350001Y-118575037I250000J0D01*
G01*
X67025001Y-118575037D01*
G75*
G02*
X67275001Y-118825037I0J-250000D01*
G01*
G37*
G36*
G01*
X65200001Y-118825037D02*
X65200001Y-119775037D01*
G75*
G02*
X64950001Y-120025037I-250000J0D01*
G01*
X64275001Y-120025037D01*
G75*
G02*
X64025001Y-119775037I0J250000D01*
G01*
X64025001Y-118825037D01*
G75*
G02*
X64275001Y-118575037I250000J0D01*
G01*
X64950001Y-118575037D01*
G75*
G02*
X65200001Y-118825037I0J-250000D01*
G01*
G37*
G36*
G01*
X69625001Y-129775037D02*
X69625001Y-128825037D01*
G75*
G02*
X69875001Y-128575037I250000J0D01*
G01*
X70550001Y-128575037D01*
G75*
G02*
X70800001Y-128825037I0J-250000D01*
G01*
X70800001Y-129775037D01*
G75*
G02*
X70550001Y-130025037I-250000J0D01*
G01*
X69875001Y-130025037D01*
G75*
G02*
X69625001Y-129775037I0J250000D01*
G01*
G37*
G36*
G01*
X71700001Y-129775037D02*
X71700001Y-128825037D01*
G75*
G02*
X71950001Y-128575037I250000J0D01*
G01*
X72625001Y-128575037D01*
G75*
G02*
X72875001Y-128825037I0J-250000D01*
G01*
X72875001Y-129775037D01*
G75*
G02*
X72625001Y-130025037I-250000J0D01*
G01*
X71950001Y-130025037D01*
G75*
G02*
X71700001Y-129775037I0J250000D01*
G01*
G37*
G36*
G01*
X73525001Y-120175037D02*
X73525001Y-119225037D01*
G75*
G02*
X73775001Y-118975037I250000J0D01*
G01*
X74450001Y-118975037D01*
G75*
G02*
X74700001Y-119225037I0J-250000D01*
G01*
X74700001Y-120175037D01*
G75*
G02*
X74450001Y-120425037I-250000J0D01*
G01*
X73775001Y-120425037D01*
G75*
G02*
X73525001Y-120175037I0J250000D01*
G01*
G37*
G36*
G01*
X75600001Y-120175037D02*
X75600001Y-119225037D01*
G75*
G02*
X75850001Y-118975037I250000J0D01*
G01*
X76525001Y-118975037D01*
G75*
G02*
X76775001Y-119225037I0J-250000D01*
G01*
X76775001Y-120175037D01*
G75*
G02*
X76525001Y-120425037I-250000J0D01*
G01*
X75850001Y-120425037D01*
G75*
G02*
X75600001Y-120175037I0J250000D01*
G01*
G37*
G36*
G01*
X73525001Y-129775037D02*
X73525001Y-128825037D01*
G75*
G02*
X73775001Y-128575037I250000J0D01*
G01*
X74450001Y-128575037D01*
G75*
G02*
X74700001Y-128825037I0J-250000D01*
G01*
X74700001Y-129775037D01*
G75*
G02*
X74450001Y-130025037I-250000J0D01*
G01*
X73775001Y-130025037D01*
G75*
G02*
X73525001Y-129775037I0J250000D01*
G01*
G37*
G36*
G01*
X75600001Y-129775037D02*
X75600001Y-128825037D01*
G75*
G02*
X75850001Y-128575037I250000J0D01*
G01*
X76525001Y-128575037D01*
G75*
G02*
X76775001Y-128825037I0J-250000D01*
G01*
X76775001Y-129775037D01*
G75*
G02*
X76525001Y-130025037I-250000J0D01*
G01*
X75850001Y-130025037D01*
G75*
G02*
X75600001Y-129775037I0J250000D01*
G01*
G37*
D12*
X89750001Y-120030037D03*
D13*
X86100001Y-121460037D03*
D12*
X89750001Y-128670037D03*
D13*
X86100001Y-127240037D03*
D14*
X85570001Y-128670037D03*
X85570001Y-120030037D03*
D15*
X84655001Y-124600037D03*
X84655001Y-122600037D03*
X84655001Y-123100037D03*
X84655001Y-123600037D03*
X84655001Y-124100037D03*
X84655001Y-125100037D03*
X84655001Y-125600037D03*
X84655001Y-126100037D03*
D16*
X84655001Y-121100037D03*
X84655001Y-121900037D03*
X84655001Y-126800037D03*
X84655001Y-127600037D03*
X84655001Y-127600037D03*
X84655001Y-126800037D03*
X84655001Y-121900037D03*
X84655001Y-121100037D03*
D17*
X54350001Y-119500037D03*
D18*
X54350001Y-122040037D03*
X54350001Y-124580037D03*
X54350001Y-127120037D03*
X54350001Y-129660037D03*
X54350001Y-132200037D03*
D17*
X85750001Y-133300037D03*
D18*
X83210001Y-133300037D03*
X80670001Y-133300037D03*
X78130001Y-133300037D03*
X75590001Y-133300037D03*
X73050001Y-133300037D03*
G36*
G01*
X62100002Y-131900037D02*
X61200000Y-131900037D01*
G75*
G02*
X60950001Y-131650038I0J249999D01*
G01*
X60950001Y-130950036D01*
G75*
G02*
X61200000Y-130700037I249999J0D01*
G01*
X62100002Y-130700037D01*
G75*
G02*
X62350001Y-130950036I0J-249999D01*
G01*
X62350001Y-131650038D01*
G75*
G02*
X62100002Y-131900037I-249999J0D01*
G01*
G37*
G36*
G01*
X62100002Y-129900037D02*
X61200000Y-129900037D01*
G75*
G02*
X60950001Y-129650038I0J249999D01*
G01*
X60950001Y-128950036D01*
G75*
G02*
X61200000Y-128700037I249999J0D01*
G01*
X62100002Y-128700037D01*
G75*
G02*
X62350001Y-128950036I0J-249999D01*
G01*
X62350001Y-129650038D01*
G75*
G02*
X62100002Y-129900037I-249999J0D01*
G01*
G37*
G36*
G01*
X63600000Y-128700037D02*
X64500002Y-128700037D01*
G75*
G02*
X64750001Y-128950036I0J-249999D01*
G01*
X64750001Y-129650038D01*
G75*
G02*
X64500002Y-129900037I-249999J0D01*
G01*
X63600000Y-129900037D01*
G75*
G02*
X63350001Y-129650038I0J249999D01*
G01*
X63350001Y-128950036D01*
G75*
G02*
X63600000Y-128700037I249999J0D01*
G01*
G37*
G36*
G01*
X63600000Y-130700037D02*
X64500002Y-130700037D01*
G75*
G02*
X64750001Y-130950036I0J-249999D01*
G01*
X64750001Y-131650038D01*
G75*
G02*
X64500002Y-131900037I-249999J0D01*
G01*
X63600000Y-131900037D01*
G75*
G02*
X63350001Y-131650038I0J249999D01*
G01*
X63350001Y-130950036D01*
G75*
G02*
X63600000Y-130700037I249999J0D01*
G01*
G37*
G36*
G01*
X81150001Y-122150036D02*
X81150001Y-123050038D01*
G75*
G02*
X80900002Y-123300037I-249999J0D01*
G01*
X80200000Y-123300037D01*
G75*
G02*
X79950001Y-123050038I0J249999D01*
G01*
X79950001Y-122150036D01*
G75*
G02*
X80200000Y-121900037I249999J0D01*
G01*
X80900002Y-121900037D01*
G75*
G02*
X81150001Y-122150036I0J-249999D01*
G01*
G37*
G36*
G01*
X79150001Y-122150036D02*
X79150001Y-123050038D01*
G75*
G02*
X78900002Y-123300037I-249999J0D01*
G01*
X78200000Y-123300037D01*
G75*
G02*
X77950001Y-123050038I0J249999D01*
G01*
X77950001Y-122150036D01*
G75*
G02*
X78200000Y-121900037I249999J0D01*
G01*
X78900002Y-121900037D01*
G75*
G02*
X79150001Y-122150036I0J-249999D01*
G01*
G37*
G36*
G01*
X81150001Y-125150036D02*
X81150001Y-126050038D01*
G75*
G02*
X80900002Y-126300037I-249999J0D01*
G01*
X80200000Y-126300037D01*
G75*
G02*
X79950001Y-126050038I0J249999D01*
G01*
X79950001Y-125150036D01*
G75*
G02*
X80200000Y-124900037I249999J0D01*
G01*
X80900002Y-124900037D01*
G75*
G02*
X81150001Y-125150036I0J-249999D01*
G01*
G37*
G36*
G01*
X79150001Y-125150036D02*
X79150001Y-126050038D01*
G75*
G02*
X78900002Y-126300037I-249999J0D01*
G01*
X78200000Y-126300037D01*
G75*
G02*
X77950001Y-126050038I0J249999D01*
G01*
X77950001Y-125150036D01*
G75*
G02*
X78200000Y-124900037I249999J0D01*
G01*
X78900002Y-124900037D01*
G75*
G02*
X79150001Y-125150036I0J-249999D01*
G01*
G37*
D19*
X69500001Y-124500037D03*
D20*
X75800001Y-124500037D03*
X75800001Y-122200037D03*
X75800001Y-126800037D03*
D21*
X66050001Y-129350037D03*
X66050001Y-131250037D03*
X68050001Y-130300037D03*
X59250001Y-131250037D03*
X59250001Y-129350037D03*
X57250001Y-130300037D03*
G36*
G01*
X66645001Y-120950037D02*
X66945001Y-120950037D01*
G75*
G02*
X67095001Y-121100037I0J-150000D01*
G01*
X67095001Y-122550037D01*
G75*
G02*
X66945001Y-122700037I-150000J0D01*
G01*
X66645001Y-122700037D01*
G75*
G02*
X66495001Y-122550037I0J150000D01*
G01*
X66495001Y-121100037D01*
G75*
G02*
X66645001Y-120950037I150000J0D01*
G01*
G37*
G36*
G01*
X65375001Y-120950037D02*
X65675001Y-120950037D01*
G75*
G02*
X65825001Y-121100037I0J-150000D01*
G01*
X65825001Y-122550037D01*
G75*
G02*
X65675001Y-122700037I-150000J0D01*
G01*
X65375001Y-122700037D01*
G75*
G02*
X65225001Y-122550037I0J150000D01*
G01*
X65225001Y-121100037D01*
G75*
G02*
X65375001Y-120950037I150000J0D01*
G01*
G37*
G36*
G01*
X64105001Y-120950037D02*
X64405001Y-120950037D01*
G75*
G02*
X64555001Y-121100037I0J-150000D01*
G01*
X64555001Y-122550037D01*
G75*
G02*
X64405001Y-122700037I-150000J0D01*
G01*
X64105001Y-122700037D01*
G75*
G02*
X63955001Y-122550037I0J150000D01*
G01*
X63955001Y-121100037D01*
G75*
G02*
X64105001Y-120950037I150000J0D01*
G01*
G37*
G36*
G01*
X62835001Y-120950037D02*
X63135001Y-120950037D01*
G75*
G02*
X63285001Y-121100037I0J-150000D01*
G01*
X63285001Y-122550037D01*
G75*
G02*
X63135001Y-122700037I-150000J0D01*
G01*
X62835001Y-122700037D01*
G75*
G02*
X62685001Y-122550037I0J150000D01*
G01*
X62685001Y-121100037D01*
G75*
G02*
X62835001Y-120950037I150000J0D01*
G01*
G37*
G36*
G01*
X61565001Y-120950037D02*
X61865001Y-120950037D01*
G75*
G02*
X62015001Y-121100037I0J-150000D01*
G01*
X62015001Y-122550037D01*
G75*
G02*
X61865001Y-122700037I-150000J0D01*
G01*
X61565001Y-122700037D01*
G75*
G02*
X61415001Y-122550037I0J150000D01*
G01*
X61415001Y-121100037D01*
G75*
G02*
X61565001Y-120950037I150000J0D01*
G01*
G37*
G36*
G01*
X60295001Y-120950037D02*
X60595001Y-120950037D01*
G75*
G02*
X60745001Y-121100037I0J-150000D01*
G01*
X60745001Y-122550037D01*
G75*
G02*
X60595001Y-122700037I-150000J0D01*
G01*
X60295001Y-122700037D01*
G75*
G02*
X60145001Y-122550037I0J150000D01*
G01*
X60145001Y-121100037D01*
G75*
G02*
X60295001Y-120950037I150000J0D01*
G01*
G37*
G36*
G01*
X59025001Y-120950037D02*
X59325001Y-120950037D01*
G75*
G02*
X59475001Y-121100037I0J-150000D01*
G01*
X59475001Y-122550037D01*
G75*
G02*
X59325001Y-122700037I-150000J0D01*
G01*
X59025001Y-122700037D01*
G75*
G02*
X58875001Y-122550037I0J150000D01*
G01*
X58875001Y-121100037D01*
G75*
G02*
X59025001Y-120950037I150000J0D01*
G01*
G37*
G36*
G01*
X57755001Y-120950037D02*
X58055001Y-120950037D01*
G75*
G02*
X58205001Y-121100037I0J-150000D01*
G01*
X58205001Y-122550037D01*
G75*
G02*
X58055001Y-122700037I-150000J0D01*
G01*
X57755001Y-122700037D01*
G75*
G02*
X57605001Y-122550037I0J150000D01*
G01*
X57605001Y-121100037D01*
G75*
G02*
X57755001Y-120950037I150000J0D01*
G01*
G37*
G36*
G01*
X57755001Y-126100037D02*
X58055001Y-126100037D01*
G75*
G02*
X58205001Y-126250037I0J-150000D01*
G01*
X58205001Y-127700037D01*
G75*
G02*
X58055001Y-127850037I-150000J0D01*
G01*
X57755001Y-127850037D01*
G75*
G02*
X57605001Y-127700037I0J150000D01*
G01*
X57605001Y-126250037D01*
G75*
G02*
X57755001Y-126100037I150000J0D01*
G01*
G37*
G36*
G01*
X59025001Y-126100037D02*
X59325001Y-126100037D01*
G75*
G02*
X59475001Y-126250037I0J-150000D01*
G01*
X59475001Y-127700037D01*
G75*
G02*
X59325001Y-127850037I-150000J0D01*
G01*
X59025001Y-127850037D01*
G75*
G02*
X58875001Y-127700037I0J150000D01*
G01*
X58875001Y-126250037D01*
G75*
G02*
X59025001Y-126100037I150000J0D01*
G01*
G37*
G36*
G01*
X60295001Y-126100037D02*
X60595001Y-126100037D01*
G75*
G02*
X60745001Y-126250037I0J-150000D01*
G01*
X60745001Y-127700037D01*
G75*
G02*
X60595001Y-127850037I-150000J0D01*
G01*
X60295001Y-127850037D01*
G75*
G02*
X60145001Y-127700037I0J150000D01*
G01*
X60145001Y-126250037D01*
G75*
G02*
X60295001Y-126100037I150000J0D01*
G01*
G37*
G36*
G01*
X61565001Y-126100037D02*
X61865001Y-126100037D01*
G75*
G02*
X62015001Y-126250037I0J-150000D01*
G01*
X62015001Y-127700037D01*
G75*
G02*
X61865001Y-127850037I-150000J0D01*
G01*
X61565001Y-127850037D01*
G75*
G02*
X61415001Y-127700037I0J150000D01*
G01*
X61415001Y-126250037D01*
G75*
G02*
X61565001Y-126100037I150000J0D01*
G01*
G37*
G36*
G01*
X62835001Y-126100037D02*
X63135001Y-126100037D01*
G75*
G02*
X63285001Y-126250037I0J-150000D01*
G01*
X63285001Y-127700037D01*
G75*
G02*
X63135001Y-127850037I-150000J0D01*
G01*
X62835001Y-127850037D01*
G75*
G02*
X62685001Y-127700037I0J150000D01*
G01*
X62685001Y-126250037D01*
G75*
G02*
X62835001Y-126100037I150000J0D01*
G01*
G37*
G36*
G01*
X64105001Y-126100037D02*
X64405001Y-126100037D01*
G75*
G02*
X64555001Y-126250037I0J-150000D01*
G01*
X64555001Y-127700037D01*
G75*
G02*
X64405001Y-127850037I-150000J0D01*
G01*
X64105001Y-127850037D01*
G75*
G02*
X63955001Y-127700037I0J150000D01*
G01*
X63955001Y-126250037D01*
G75*
G02*
X64105001Y-126100037I150000J0D01*
G01*
G37*
G36*
G01*
X65375001Y-126100037D02*
X65675001Y-126100037D01*
G75*
G02*
X65825001Y-126250037I0J-150000D01*
G01*
X65825001Y-127700037D01*
G75*
G02*
X65675001Y-127850037I-150000J0D01*
G01*
X65375001Y-127850037D01*
G75*
G02*
X65225001Y-127700037I0J150000D01*
G01*
X65225001Y-126250037D01*
G75*
G02*
X65375001Y-126100037I150000J0D01*
G01*
G37*
G36*
G01*
X66645001Y-126100037D02*
X66945001Y-126100037D01*
G75*
G02*
X67095001Y-126250037I0J-150000D01*
G01*
X67095001Y-127700037D01*
G75*
G02*
X66945001Y-127850037I-150000J0D01*
G01*
X66645001Y-127850037D01*
G75*
G02*
X66495001Y-127700037I0J150000D01*
G01*
X66495001Y-126250037D01*
G75*
G02*
X66645001Y-126100037I150000J0D01*
G01*
G37*
D18*
X60960001Y-134750037D03*
D17*
X63500001Y-134750037D03*
G36*
G01*
X110275013Y-97075025D02*
X110275013Y-98025025D01*
G75*
G02*
X110025013Y-98275025I-250000J0D01*
G01*
X109350013Y-98275025D01*
G75*
G02*
X109100013Y-98025025I0J250000D01*
G01*
X109100013Y-97075025D01*
G75*
G02*
X109350013Y-96825025I250000J0D01*
G01*
X110025013Y-96825025D01*
G75*
G02*
X110275013Y-97075025I0J-250000D01*
G01*
G37*
G36*
G01*
X108200013Y-97075025D02*
X108200013Y-98025025D01*
G75*
G02*
X107950013Y-98275025I-250000J0D01*
G01*
X107275013Y-98275025D01*
G75*
G02*
X107025013Y-98025025I0J250000D01*
G01*
X107025013Y-97075025D01*
G75*
G02*
X107275013Y-96825025I250000J0D01*
G01*
X107950013Y-96825025D01*
G75*
G02*
X108200013Y-97075025I0J-250000D01*
G01*
G37*
G36*
G01*
X112625013Y-108025025D02*
X112625013Y-107075025D01*
G75*
G02*
X112875013Y-106825025I250000J0D01*
G01*
X113550013Y-106825025D01*
G75*
G02*
X113800013Y-107075025I0J-250000D01*
G01*
X113800013Y-108025025D01*
G75*
G02*
X113550013Y-108275025I-250000J0D01*
G01*
X112875013Y-108275025D01*
G75*
G02*
X112625013Y-108025025I0J250000D01*
G01*
G37*
G36*
G01*
X114700013Y-108025025D02*
X114700013Y-107075025D01*
G75*
G02*
X114950013Y-106825025I250000J0D01*
G01*
X115625013Y-106825025D01*
G75*
G02*
X115875013Y-107075025I0J-250000D01*
G01*
X115875013Y-108025025D01*
G75*
G02*
X115625013Y-108275025I-250000J0D01*
G01*
X114950013Y-108275025D01*
G75*
G02*
X114700013Y-108025025I0J250000D01*
G01*
G37*
G36*
G01*
X116525013Y-98425025D02*
X116525013Y-97475025D01*
G75*
G02*
X116775013Y-97225025I250000J0D01*
G01*
X117450013Y-97225025D01*
G75*
G02*
X117700013Y-97475025I0J-250000D01*
G01*
X117700013Y-98425025D01*
G75*
G02*
X117450013Y-98675025I-250000J0D01*
G01*
X116775013Y-98675025D01*
G75*
G02*
X116525013Y-98425025I0J250000D01*
G01*
G37*
G36*
G01*
X118600013Y-98425025D02*
X118600013Y-97475025D01*
G75*
G02*
X118850013Y-97225025I250000J0D01*
G01*
X119525013Y-97225025D01*
G75*
G02*
X119775013Y-97475025I0J-250000D01*
G01*
X119775013Y-98425025D01*
G75*
G02*
X119525013Y-98675025I-250000J0D01*
G01*
X118850013Y-98675025D01*
G75*
G02*
X118600013Y-98425025I0J250000D01*
G01*
G37*
G36*
G01*
X116525013Y-108025025D02*
X116525013Y-107075025D01*
G75*
G02*
X116775013Y-106825025I250000J0D01*
G01*
X117450013Y-106825025D01*
G75*
G02*
X117700013Y-107075025I0J-250000D01*
G01*
X117700013Y-108025025D01*
G75*
G02*
X117450013Y-108275025I-250000J0D01*
G01*
X116775013Y-108275025D01*
G75*
G02*
X116525013Y-108025025I0J250000D01*
G01*
G37*
G36*
G01*
X118600013Y-108025025D02*
X118600013Y-107075025D01*
G75*
G02*
X118850013Y-106825025I250000J0D01*
G01*
X119525013Y-106825025D01*
G75*
G02*
X119775013Y-107075025I0J-250000D01*
G01*
X119775013Y-108025025D01*
G75*
G02*
X119525013Y-108275025I-250000J0D01*
G01*
X118850013Y-108275025D01*
G75*
G02*
X118600013Y-108025025I0J250000D01*
G01*
G37*
D12*
X132750013Y-98280025D03*
D13*
X129100013Y-99710025D03*
D12*
X132750013Y-106920025D03*
D13*
X129100013Y-105490025D03*
D14*
X128570013Y-106920025D03*
X128570013Y-98280025D03*
D15*
X127655013Y-102850025D03*
X127655013Y-100850025D03*
X127655013Y-101350025D03*
X127655013Y-101850025D03*
X127655013Y-102350025D03*
X127655013Y-103350025D03*
X127655013Y-103850025D03*
X127655013Y-104350025D03*
D16*
X127655013Y-99350025D03*
X127655013Y-100150025D03*
X127655013Y-105050025D03*
X127655013Y-105850025D03*
X127655013Y-105850025D03*
X127655013Y-105050025D03*
X127655013Y-100150025D03*
X127655013Y-99350025D03*
D17*
X97350013Y-97750025D03*
D18*
X97350013Y-100290025D03*
X97350013Y-102830025D03*
X97350013Y-105370025D03*
X97350013Y-107910025D03*
X97350013Y-110450025D03*
D17*
X128750013Y-111550025D03*
D18*
X126210013Y-111550025D03*
X123670013Y-111550025D03*
X121130013Y-111550025D03*
X118590013Y-111550025D03*
X116050013Y-111550025D03*
G36*
G01*
X105100014Y-110150025D02*
X104200012Y-110150025D01*
G75*
G02*
X103950013Y-109900026I0J249999D01*
G01*
X103950013Y-109200024D01*
G75*
G02*
X104200012Y-108950025I249999J0D01*
G01*
X105100014Y-108950025D01*
G75*
G02*
X105350013Y-109200024I0J-249999D01*
G01*
X105350013Y-109900026D01*
G75*
G02*
X105100014Y-110150025I-249999J0D01*
G01*
G37*
G36*
G01*
X105100014Y-108150025D02*
X104200012Y-108150025D01*
G75*
G02*
X103950013Y-107900026I0J249999D01*
G01*
X103950013Y-107200024D01*
G75*
G02*
X104200012Y-106950025I249999J0D01*
G01*
X105100014Y-106950025D01*
G75*
G02*
X105350013Y-107200024I0J-249999D01*
G01*
X105350013Y-107900026D01*
G75*
G02*
X105100014Y-108150025I-249999J0D01*
G01*
G37*
G36*
G01*
X106600012Y-106950025D02*
X107500014Y-106950025D01*
G75*
G02*
X107750013Y-107200024I0J-249999D01*
G01*
X107750013Y-107900026D01*
G75*
G02*
X107500014Y-108150025I-249999J0D01*
G01*
X106600012Y-108150025D01*
G75*
G02*
X106350013Y-107900026I0J249999D01*
G01*
X106350013Y-107200024D01*
G75*
G02*
X106600012Y-106950025I249999J0D01*
G01*
G37*
G36*
G01*
X106600012Y-108950025D02*
X107500014Y-108950025D01*
G75*
G02*
X107750013Y-109200024I0J-249999D01*
G01*
X107750013Y-109900026D01*
G75*
G02*
X107500014Y-110150025I-249999J0D01*
G01*
X106600012Y-110150025D01*
G75*
G02*
X106350013Y-109900026I0J249999D01*
G01*
X106350013Y-109200024D01*
G75*
G02*
X106600012Y-108950025I249999J0D01*
G01*
G37*
G36*
G01*
X124150013Y-100400024D02*
X124150013Y-101300026D01*
G75*
G02*
X123900014Y-101550025I-249999J0D01*
G01*
X123200012Y-101550025D01*
G75*
G02*
X122950013Y-101300026I0J249999D01*
G01*
X122950013Y-100400024D01*
G75*
G02*
X123200012Y-100150025I249999J0D01*
G01*
X123900014Y-100150025D01*
G75*
G02*
X124150013Y-100400024I0J-249999D01*
G01*
G37*
G36*
G01*
X122150013Y-100400024D02*
X122150013Y-101300026D01*
G75*
G02*
X121900014Y-101550025I-249999J0D01*
G01*
X121200012Y-101550025D01*
G75*
G02*
X120950013Y-101300026I0J249999D01*
G01*
X120950013Y-100400024D01*
G75*
G02*
X121200012Y-100150025I249999J0D01*
G01*
X121900014Y-100150025D01*
G75*
G02*
X122150013Y-100400024I0J-249999D01*
G01*
G37*
G36*
G01*
X124150013Y-103400024D02*
X124150013Y-104300026D01*
G75*
G02*
X123900014Y-104550025I-249999J0D01*
G01*
X123200012Y-104550025D01*
G75*
G02*
X122950013Y-104300026I0J249999D01*
G01*
X122950013Y-103400024D01*
G75*
G02*
X123200012Y-103150025I249999J0D01*
G01*
X123900014Y-103150025D01*
G75*
G02*
X124150013Y-103400024I0J-249999D01*
G01*
G37*
G36*
G01*
X122150013Y-103400024D02*
X122150013Y-104300026D01*
G75*
G02*
X121900014Y-104550025I-249999J0D01*
G01*
X121200012Y-104550025D01*
G75*
G02*
X120950013Y-104300026I0J249999D01*
G01*
X120950013Y-103400024D01*
G75*
G02*
X121200012Y-103150025I249999J0D01*
G01*
X121900014Y-103150025D01*
G75*
G02*
X122150013Y-103400024I0J-249999D01*
G01*
G37*
D19*
X112500013Y-102750025D03*
D20*
X118800013Y-102750025D03*
X118800013Y-100450025D03*
X118800013Y-105050025D03*
D21*
X109050013Y-107600025D03*
X109050013Y-109500025D03*
X111050013Y-108550025D03*
X102250013Y-109500025D03*
X102250013Y-107600025D03*
X100250013Y-108550025D03*
G36*
G01*
X109645013Y-99200025D02*
X109945013Y-99200025D01*
G75*
G02*
X110095013Y-99350025I0J-150000D01*
G01*
X110095013Y-100800025D01*
G75*
G02*
X109945013Y-100950025I-150000J0D01*
G01*
X109645013Y-100950025D01*
G75*
G02*
X109495013Y-100800025I0J150000D01*
G01*
X109495013Y-99350025D01*
G75*
G02*
X109645013Y-99200025I150000J0D01*
G01*
G37*
G36*
G01*
X108375013Y-99200025D02*
X108675013Y-99200025D01*
G75*
G02*
X108825013Y-99350025I0J-150000D01*
G01*
X108825013Y-100800025D01*
G75*
G02*
X108675013Y-100950025I-150000J0D01*
G01*
X108375013Y-100950025D01*
G75*
G02*
X108225013Y-100800025I0J150000D01*
G01*
X108225013Y-99350025D01*
G75*
G02*
X108375013Y-99200025I150000J0D01*
G01*
G37*
G36*
G01*
X107105013Y-99200025D02*
X107405013Y-99200025D01*
G75*
G02*
X107555013Y-99350025I0J-150000D01*
G01*
X107555013Y-100800025D01*
G75*
G02*
X107405013Y-100950025I-150000J0D01*
G01*
X107105013Y-100950025D01*
G75*
G02*
X106955013Y-100800025I0J150000D01*
G01*
X106955013Y-99350025D01*
G75*
G02*
X107105013Y-99200025I150000J0D01*
G01*
G37*
G36*
G01*
X105835013Y-99200025D02*
X106135013Y-99200025D01*
G75*
G02*
X106285013Y-99350025I0J-150000D01*
G01*
X106285013Y-100800025D01*
G75*
G02*
X106135013Y-100950025I-150000J0D01*
G01*
X105835013Y-100950025D01*
G75*
G02*
X105685013Y-100800025I0J150000D01*
G01*
X105685013Y-99350025D01*
G75*
G02*
X105835013Y-99200025I150000J0D01*
G01*
G37*
G36*
G01*
X104565013Y-99200025D02*
X104865013Y-99200025D01*
G75*
G02*
X105015013Y-99350025I0J-150000D01*
G01*
X105015013Y-100800025D01*
G75*
G02*
X104865013Y-100950025I-150000J0D01*
G01*
X104565013Y-100950025D01*
G75*
G02*
X104415013Y-100800025I0J150000D01*
G01*
X104415013Y-99350025D01*
G75*
G02*
X104565013Y-99200025I150000J0D01*
G01*
G37*
G36*
G01*
X103295013Y-99200025D02*
X103595013Y-99200025D01*
G75*
G02*
X103745013Y-99350025I0J-150000D01*
G01*
X103745013Y-100800025D01*
G75*
G02*
X103595013Y-100950025I-150000J0D01*
G01*
X103295013Y-100950025D01*
G75*
G02*
X103145013Y-100800025I0J150000D01*
G01*
X103145013Y-99350025D01*
G75*
G02*
X103295013Y-99200025I150000J0D01*
G01*
G37*
G36*
G01*
X102025013Y-99200025D02*
X102325013Y-99200025D01*
G75*
G02*
X102475013Y-99350025I0J-150000D01*
G01*
X102475013Y-100800025D01*
G75*
G02*
X102325013Y-100950025I-150000J0D01*
G01*
X102025013Y-100950025D01*
G75*
G02*
X101875013Y-100800025I0J150000D01*
G01*
X101875013Y-99350025D01*
G75*
G02*
X102025013Y-99200025I150000J0D01*
G01*
G37*
G36*
G01*
X100755013Y-99200025D02*
X101055013Y-99200025D01*
G75*
G02*
X101205013Y-99350025I0J-150000D01*
G01*
X101205013Y-100800025D01*
G75*
G02*
X101055013Y-100950025I-150000J0D01*
G01*
X100755013Y-100950025D01*
G75*
G02*
X100605013Y-100800025I0J150000D01*
G01*
X100605013Y-99350025D01*
G75*
G02*
X100755013Y-99200025I150000J0D01*
G01*
G37*
G36*
G01*
X100755013Y-104350025D02*
X101055013Y-104350025D01*
G75*
G02*
X101205013Y-104500025I0J-150000D01*
G01*
X101205013Y-105950025D01*
G75*
G02*
X101055013Y-106100025I-150000J0D01*
G01*
X100755013Y-106100025D01*
G75*
G02*
X100605013Y-105950025I0J150000D01*
G01*
X100605013Y-104500025D01*
G75*
G02*
X100755013Y-104350025I150000J0D01*
G01*
G37*
G36*
G01*
X102025013Y-104350025D02*
X102325013Y-104350025D01*
G75*
G02*
X102475013Y-104500025I0J-150000D01*
G01*
X102475013Y-105950025D01*
G75*
G02*
X102325013Y-106100025I-150000J0D01*
G01*
X102025013Y-106100025D01*
G75*
G02*
X101875013Y-105950025I0J150000D01*
G01*
X101875013Y-104500025D01*
G75*
G02*
X102025013Y-104350025I150000J0D01*
G01*
G37*
G36*
G01*
X103295013Y-104350025D02*
X103595013Y-104350025D01*
G75*
G02*
X103745013Y-104500025I0J-150000D01*
G01*
X103745013Y-105950025D01*
G75*
G02*
X103595013Y-106100025I-150000J0D01*
G01*
X103295013Y-106100025D01*
G75*
G02*
X103145013Y-105950025I0J150000D01*
G01*
X103145013Y-104500025D01*
G75*
G02*
X103295013Y-104350025I150000J0D01*
G01*
G37*
G36*
G01*
X104565013Y-104350025D02*
X104865013Y-104350025D01*
G75*
G02*
X105015013Y-104500025I0J-150000D01*
G01*
X105015013Y-105950025D01*
G75*
G02*
X104865013Y-106100025I-150000J0D01*
G01*
X104565013Y-106100025D01*
G75*
G02*
X104415013Y-105950025I0J150000D01*
G01*
X104415013Y-104500025D01*
G75*
G02*
X104565013Y-104350025I150000J0D01*
G01*
G37*
G36*
G01*
X105835013Y-104350025D02*
X106135013Y-104350025D01*
G75*
G02*
X106285013Y-104500025I0J-150000D01*
G01*
X106285013Y-105950025D01*
G75*
G02*
X106135013Y-106100025I-150000J0D01*
G01*
X105835013Y-106100025D01*
G75*
G02*
X105685013Y-105950025I0J150000D01*
G01*
X105685013Y-104500025D01*
G75*
G02*
X105835013Y-104350025I150000J0D01*
G01*
G37*
G36*
G01*
X107105013Y-104350025D02*
X107405013Y-104350025D01*
G75*
G02*
X107555013Y-104500025I0J-150000D01*
G01*
X107555013Y-105950025D01*
G75*
G02*
X107405013Y-106100025I-150000J0D01*
G01*
X107105013Y-106100025D01*
G75*
G02*
X106955013Y-105950025I0J150000D01*
G01*
X106955013Y-104500025D01*
G75*
G02*
X107105013Y-104350025I150000J0D01*
G01*
G37*
G36*
G01*
X108375013Y-104350025D02*
X108675013Y-104350025D01*
G75*
G02*
X108825013Y-104500025I0J-150000D01*
G01*
X108825013Y-105950025D01*
G75*
G02*
X108675013Y-106100025I-150000J0D01*
G01*
X108375013Y-106100025D01*
G75*
G02*
X108225013Y-105950025I0J150000D01*
G01*
X108225013Y-104500025D01*
G75*
G02*
X108375013Y-104350025I150000J0D01*
G01*
G37*
G36*
G01*
X109645013Y-104350025D02*
X109945013Y-104350025D01*
G75*
G02*
X110095013Y-104500025I0J-150000D01*
G01*
X110095013Y-105950025D01*
G75*
G02*
X109945013Y-106100025I-150000J0D01*
G01*
X109645013Y-106100025D01*
G75*
G02*
X109495013Y-105950025I0J150000D01*
G01*
X109495013Y-104500025D01*
G75*
G02*
X109645013Y-104350025I150000J0D01*
G01*
G37*
D18*
X103960013Y-113000025D03*
D17*
X106500013Y-113000025D03*
G36*
G01*
X67275001Y-97075025D02*
X67275001Y-98025025D01*
G75*
G02*
X67025001Y-98275025I-250000J0D01*
G01*
X66350001Y-98275025D01*
G75*
G02*
X66100001Y-98025025I0J250000D01*
G01*
X66100001Y-97075025D01*
G75*
G02*
X66350001Y-96825025I250000J0D01*
G01*
X67025001Y-96825025D01*
G75*
G02*
X67275001Y-97075025I0J-250000D01*
G01*
G37*
G36*
G01*
X65200001Y-97075025D02*
X65200001Y-98025025D01*
G75*
G02*
X64950001Y-98275025I-250000J0D01*
G01*
X64275001Y-98275025D01*
G75*
G02*
X64025001Y-98025025I0J250000D01*
G01*
X64025001Y-97075025D01*
G75*
G02*
X64275001Y-96825025I250000J0D01*
G01*
X64950001Y-96825025D01*
G75*
G02*
X65200001Y-97075025I0J-250000D01*
G01*
G37*
G36*
G01*
X69625001Y-108025025D02*
X69625001Y-107075025D01*
G75*
G02*
X69875001Y-106825025I250000J0D01*
G01*
X70550001Y-106825025D01*
G75*
G02*
X70800001Y-107075025I0J-250000D01*
G01*
X70800001Y-108025025D01*
G75*
G02*
X70550001Y-108275025I-250000J0D01*
G01*
X69875001Y-108275025D01*
G75*
G02*
X69625001Y-108025025I0J250000D01*
G01*
G37*
G36*
G01*
X71700001Y-108025025D02*
X71700001Y-107075025D01*
G75*
G02*
X71950001Y-106825025I250000J0D01*
G01*
X72625001Y-106825025D01*
G75*
G02*
X72875001Y-107075025I0J-250000D01*
G01*
X72875001Y-108025025D01*
G75*
G02*
X72625001Y-108275025I-250000J0D01*
G01*
X71950001Y-108275025D01*
G75*
G02*
X71700001Y-108025025I0J250000D01*
G01*
G37*
G36*
G01*
X73525001Y-98425025D02*
X73525001Y-97475025D01*
G75*
G02*
X73775001Y-97225025I250000J0D01*
G01*
X74450001Y-97225025D01*
G75*
G02*
X74700001Y-97475025I0J-250000D01*
G01*
X74700001Y-98425025D01*
G75*
G02*
X74450001Y-98675025I-250000J0D01*
G01*
X73775001Y-98675025D01*
G75*
G02*
X73525001Y-98425025I0J250000D01*
G01*
G37*
G36*
G01*
X75600001Y-98425025D02*
X75600001Y-97475025D01*
G75*
G02*
X75850001Y-97225025I250000J0D01*
G01*
X76525001Y-97225025D01*
G75*
G02*
X76775001Y-97475025I0J-250000D01*
G01*
X76775001Y-98425025D01*
G75*
G02*
X76525001Y-98675025I-250000J0D01*
G01*
X75850001Y-98675025D01*
G75*
G02*
X75600001Y-98425025I0J250000D01*
G01*
G37*
G36*
G01*
X73525001Y-108025025D02*
X73525001Y-107075025D01*
G75*
G02*
X73775001Y-106825025I250000J0D01*
G01*
X74450001Y-106825025D01*
G75*
G02*
X74700001Y-107075025I0J-250000D01*
G01*
X74700001Y-108025025D01*
G75*
G02*
X74450001Y-108275025I-250000J0D01*
G01*
X73775001Y-108275025D01*
G75*
G02*
X73525001Y-108025025I0J250000D01*
G01*
G37*
G36*
G01*
X75600001Y-108025025D02*
X75600001Y-107075025D01*
G75*
G02*
X75850001Y-106825025I250000J0D01*
G01*
X76525001Y-106825025D01*
G75*
G02*
X76775001Y-107075025I0J-250000D01*
G01*
X76775001Y-108025025D01*
G75*
G02*
X76525001Y-108275025I-250000J0D01*
G01*
X75850001Y-108275025D01*
G75*
G02*
X75600001Y-108025025I0J250000D01*
G01*
G37*
D12*
X89750001Y-98280025D03*
D13*
X86100001Y-99710025D03*
D12*
X89750001Y-106920025D03*
D13*
X86100001Y-105490025D03*
D14*
X85570001Y-106920025D03*
X85570001Y-98280025D03*
D15*
X84655001Y-102850025D03*
X84655001Y-100850025D03*
X84655001Y-101350025D03*
X84655001Y-101850025D03*
X84655001Y-102350025D03*
X84655001Y-103350025D03*
X84655001Y-103850025D03*
X84655001Y-104350025D03*
D16*
X84655001Y-99350025D03*
X84655001Y-100150025D03*
X84655001Y-105050025D03*
X84655001Y-105850025D03*
X84655001Y-105850025D03*
X84655001Y-105050025D03*
X84655001Y-100150025D03*
X84655001Y-99350025D03*
D17*
X54350001Y-97750025D03*
D18*
X54350001Y-100290025D03*
X54350001Y-102830025D03*
X54350001Y-105370025D03*
X54350001Y-107910025D03*
X54350001Y-110450025D03*
D17*
X85750001Y-111550025D03*
D18*
X83210001Y-111550025D03*
X80670001Y-111550025D03*
X78130001Y-111550025D03*
X75590001Y-111550025D03*
X73050001Y-111550025D03*
G36*
G01*
X62100002Y-110150025D02*
X61200000Y-110150025D01*
G75*
G02*
X60950001Y-109900026I0J249999D01*
G01*
X60950001Y-109200024D01*
G75*
G02*
X61200000Y-108950025I249999J0D01*
G01*
X62100002Y-108950025D01*
G75*
G02*
X62350001Y-109200024I0J-249999D01*
G01*
X62350001Y-109900026D01*
G75*
G02*
X62100002Y-110150025I-249999J0D01*
G01*
G37*
G36*
G01*
X62100002Y-108150025D02*
X61200000Y-108150025D01*
G75*
G02*
X60950001Y-107900026I0J249999D01*
G01*
X60950001Y-107200024D01*
G75*
G02*
X61200000Y-106950025I249999J0D01*
G01*
X62100002Y-106950025D01*
G75*
G02*
X62350001Y-107200024I0J-249999D01*
G01*
X62350001Y-107900026D01*
G75*
G02*
X62100002Y-108150025I-249999J0D01*
G01*
G37*
G36*
G01*
X63600000Y-106950025D02*
X64500002Y-106950025D01*
G75*
G02*
X64750001Y-107200024I0J-249999D01*
G01*
X64750001Y-107900026D01*
G75*
G02*
X64500002Y-108150025I-249999J0D01*
G01*
X63600000Y-108150025D01*
G75*
G02*
X63350001Y-107900026I0J249999D01*
G01*
X63350001Y-107200024D01*
G75*
G02*
X63600000Y-106950025I249999J0D01*
G01*
G37*
G36*
G01*
X63600000Y-108950025D02*
X64500002Y-108950025D01*
G75*
G02*
X64750001Y-109200024I0J-249999D01*
G01*
X64750001Y-109900026D01*
G75*
G02*
X64500002Y-110150025I-249999J0D01*
G01*
X63600000Y-110150025D01*
G75*
G02*
X63350001Y-109900026I0J249999D01*
G01*
X63350001Y-109200024D01*
G75*
G02*
X63600000Y-108950025I249999J0D01*
G01*
G37*
G36*
G01*
X81150001Y-100400024D02*
X81150001Y-101300026D01*
G75*
G02*
X80900002Y-101550025I-249999J0D01*
G01*
X80200000Y-101550025D01*
G75*
G02*
X79950001Y-101300026I0J249999D01*
G01*
X79950001Y-100400024D01*
G75*
G02*
X80200000Y-100150025I249999J0D01*
G01*
X80900002Y-100150025D01*
G75*
G02*
X81150001Y-100400024I0J-249999D01*
G01*
G37*
G36*
G01*
X79150001Y-100400024D02*
X79150001Y-101300026D01*
G75*
G02*
X78900002Y-101550025I-249999J0D01*
G01*
X78200000Y-101550025D01*
G75*
G02*
X77950001Y-101300026I0J249999D01*
G01*
X77950001Y-100400024D01*
G75*
G02*
X78200000Y-100150025I249999J0D01*
G01*
X78900002Y-100150025D01*
G75*
G02*
X79150001Y-100400024I0J-249999D01*
G01*
G37*
G36*
G01*
X81150001Y-103400024D02*
X81150001Y-104300026D01*
G75*
G02*
X80900002Y-104550025I-249999J0D01*
G01*
X80200000Y-104550025D01*
G75*
G02*
X79950001Y-104300026I0J249999D01*
G01*
X79950001Y-103400024D01*
G75*
G02*
X80200000Y-103150025I249999J0D01*
G01*
X80900002Y-103150025D01*
G75*
G02*
X81150001Y-103400024I0J-249999D01*
G01*
G37*
G36*
G01*
X79150001Y-103400024D02*
X79150001Y-104300026D01*
G75*
G02*
X78900002Y-104550025I-249999J0D01*
G01*
X78200000Y-104550025D01*
G75*
G02*
X77950001Y-104300026I0J249999D01*
G01*
X77950001Y-103400024D01*
G75*
G02*
X78200000Y-103150025I249999J0D01*
G01*
X78900002Y-103150025D01*
G75*
G02*
X79150001Y-103400024I0J-249999D01*
G01*
G37*
D19*
X69500001Y-102750025D03*
D20*
X75800001Y-102750025D03*
X75800001Y-100450025D03*
X75800001Y-105050025D03*
D21*
X66050001Y-107600025D03*
X66050001Y-109500025D03*
X68050001Y-108550025D03*
X59250001Y-109500025D03*
X59250001Y-107600025D03*
X57250001Y-108550025D03*
G36*
G01*
X66645001Y-99200025D02*
X66945001Y-99200025D01*
G75*
G02*
X67095001Y-99350025I0J-150000D01*
G01*
X67095001Y-100800025D01*
G75*
G02*
X66945001Y-100950025I-150000J0D01*
G01*
X66645001Y-100950025D01*
G75*
G02*
X66495001Y-100800025I0J150000D01*
G01*
X66495001Y-99350025D01*
G75*
G02*
X66645001Y-99200025I150000J0D01*
G01*
G37*
G36*
G01*
X65375001Y-99200025D02*
X65675001Y-99200025D01*
G75*
G02*
X65825001Y-99350025I0J-150000D01*
G01*
X65825001Y-100800025D01*
G75*
G02*
X65675001Y-100950025I-150000J0D01*
G01*
X65375001Y-100950025D01*
G75*
G02*
X65225001Y-100800025I0J150000D01*
G01*
X65225001Y-99350025D01*
G75*
G02*
X65375001Y-99200025I150000J0D01*
G01*
G37*
G36*
G01*
X64105001Y-99200025D02*
X64405001Y-99200025D01*
G75*
G02*
X64555001Y-99350025I0J-150000D01*
G01*
X64555001Y-100800025D01*
G75*
G02*
X64405001Y-100950025I-150000J0D01*
G01*
X64105001Y-100950025D01*
G75*
G02*
X63955001Y-100800025I0J150000D01*
G01*
X63955001Y-99350025D01*
G75*
G02*
X64105001Y-99200025I150000J0D01*
G01*
G37*
G36*
G01*
X62835001Y-99200025D02*
X63135001Y-99200025D01*
G75*
G02*
X63285001Y-99350025I0J-150000D01*
G01*
X63285001Y-100800025D01*
G75*
G02*
X63135001Y-100950025I-150000J0D01*
G01*
X62835001Y-100950025D01*
G75*
G02*
X62685001Y-100800025I0J150000D01*
G01*
X62685001Y-99350025D01*
G75*
G02*
X62835001Y-99200025I150000J0D01*
G01*
G37*
G36*
G01*
X61565001Y-99200025D02*
X61865001Y-99200025D01*
G75*
G02*
X62015001Y-99350025I0J-150000D01*
G01*
X62015001Y-100800025D01*
G75*
G02*
X61865001Y-100950025I-150000J0D01*
G01*
X61565001Y-100950025D01*
G75*
G02*
X61415001Y-100800025I0J150000D01*
G01*
X61415001Y-99350025D01*
G75*
G02*
X61565001Y-99200025I150000J0D01*
G01*
G37*
G36*
G01*
X60295001Y-99200025D02*
X60595001Y-99200025D01*
G75*
G02*
X60745001Y-99350025I0J-150000D01*
G01*
X60745001Y-100800025D01*
G75*
G02*
X60595001Y-100950025I-150000J0D01*
G01*
X60295001Y-100950025D01*
G75*
G02*
X60145001Y-100800025I0J150000D01*
G01*
X60145001Y-99350025D01*
G75*
G02*
X60295001Y-99200025I150000J0D01*
G01*
G37*
G36*
G01*
X59025001Y-99200025D02*
X59325001Y-99200025D01*
G75*
G02*
X59475001Y-99350025I0J-150000D01*
G01*
X59475001Y-100800025D01*
G75*
G02*
X59325001Y-100950025I-150000J0D01*
G01*
X59025001Y-100950025D01*
G75*
G02*
X58875001Y-100800025I0J150000D01*
G01*
X58875001Y-99350025D01*
G75*
G02*
X59025001Y-99200025I150000J0D01*
G01*
G37*
G36*
G01*
X57755001Y-99200025D02*
X58055001Y-99200025D01*
G75*
G02*
X58205001Y-99350025I0J-150000D01*
G01*
X58205001Y-100800025D01*
G75*
G02*
X58055001Y-100950025I-150000J0D01*
G01*
X57755001Y-100950025D01*
G75*
G02*
X57605001Y-100800025I0J150000D01*
G01*
X57605001Y-99350025D01*
G75*
G02*
X57755001Y-99200025I150000J0D01*
G01*
G37*
G36*
G01*
X57755001Y-104350025D02*
X58055001Y-104350025D01*
G75*
G02*
X58205001Y-104500025I0J-150000D01*
G01*
X58205001Y-105950025D01*
G75*
G02*
X58055001Y-106100025I-150000J0D01*
G01*
X57755001Y-106100025D01*
G75*
G02*
X57605001Y-105950025I0J150000D01*
G01*
X57605001Y-104500025D01*
G75*
G02*
X57755001Y-104350025I150000J0D01*
G01*
G37*
G36*
G01*
X59025001Y-104350025D02*
X59325001Y-104350025D01*
G75*
G02*
X59475001Y-104500025I0J-150000D01*
G01*
X59475001Y-105950025D01*
G75*
G02*
X59325001Y-106100025I-150000J0D01*
G01*
X59025001Y-106100025D01*
G75*
G02*
X58875001Y-105950025I0J150000D01*
G01*
X58875001Y-104500025D01*
G75*
G02*
X59025001Y-104350025I150000J0D01*
G01*
G37*
G36*
G01*
X60295001Y-104350025D02*
X60595001Y-104350025D01*
G75*
G02*
X60745001Y-104500025I0J-150000D01*
G01*
X60745001Y-105950025D01*
G75*
G02*
X60595001Y-106100025I-150000J0D01*
G01*
X60295001Y-106100025D01*
G75*
G02*
X60145001Y-105950025I0J150000D01*
G01*
X60145001Y-104500025D01*
G75*
G02*
X60295001Y-104350025I150000J0D01*
G01*
G37*
G36*
G01*
X61565001Y-104350025D02*
X61865001Y-104350025D01*
G75*
G02*
X62015001Y-104500025I0J-150000D01*
G01*
X62015001Y-105950025D01*
G75*
G02*
X61865001Y-106100025I-150000J0D01*
G01*
X61565001Y-106100025D01*
G75*
G02*
X61415001Y-105950025I0J150000D01*
G01*
X61415001Y-104500025D01*
G75*
G02*
X61565001Y-104350025I150000J0D01*
G01*
G37*
G36*
G01*
X62835001Y-104350025D02*
X63135001Y-104350025D01*
G75*
G02*
X63285001Y-104500025I0J-150000D01*
G01*
X63285001Y-105950025D01*
G75*
G02*
X63135001Y-106100025I-150000J0D01*
G01*
X62835001Y-106100025D01*
G75*
G02*
X62685001Y-105950025I0J150000D01*
G01*
X62685001Y-104500025D01*
G75*
G02*
X62835001Y-104350025I150000J0D01*
G01*
G37*
G36*
G01*
X64105001Y-104350025D02*
X64405001Y-104350025D01*
G75*
G02*
X64555001Y-104500025I0J-150000D01*
G01*
X64555001Y-105950025D01*
G75*
G02*
X64405001Y-106100025I-150000J0D01*
G01*
X64105001Y-106100025D01*
G75*
G02*
X63955001Y-105950025I0J150000D01*
G01*
X63955001Y-104500025D01*
G75*
G02*
X64105001Y-104350025I150000J0D01*
G01*
G37*
G36*
G01*
X65375001Y-104350025D02*
X65675001Y-104350025D01*
G75*
G02*
X65825001Y-104500025I0J-150000D01*
G01*
X65825001Y-105950025D01*
G75*
G02*
X65675001Y-106100025I-150000J0D01*
G01*
X65375001Y-106100025D01*
G75*
G02*
X65225001Y-105950025I0J150000D01*
G01*
X65225001Y-104500025D01*
G75*
G02*
X65375001Y-104350025I150000J0D01*
G01*
G37*
G36*
G01*
X66645001Y-104350025D02*
X66945001Y-104350025D01*
G75*
G02*
X67095001Y-104500025I0J-150000D01*
G01*
X67095001Y-105950025D01*
G75*
G02*
X66945001Y-106100025I-150000J0D01*
G01*
X66645001Y-106100025D01*
G75*
G02*
X66495001Y-105950025I0J150000D01*
G01*
X66495001Y-104500025D01*
G75*
G02*
X66645001Y-104350025I150000J0D01*
G01*
G37*
D18*
X60960001Y-113000025D03*
D17*
X63500001Y-113000025D03*
G36*
G01*
X110275013Y-75325013D02*
X110275013Y-76275013D01*
G75*
G02*
X110025013Y-76525013I-250000J0D01*
G01*
X109350013Y-76525013D01*
G75*
G02*
X109100013Y-76275013I0J250000D01*
G01*
X109100013Y-75325013D01*
G75*
G02*
X109350013Y-75075013I250000J0D01*
G01*
X110025013Y-75075013D01*
G75*
G02*
X110275013Y-75325013I0J-250000D01*
G01*
G37*
G36*
G01*
X108200013Y-75325013D02*
X108200013Y-76275013D01*
G75*
G02*
X107950013Y-76525013I-250000J0D01*
G01*
X107275013Y-76525013D01*
G75*
G02*
X107025013Y-76275013I0J250000D01*
G01*
X107025013Y-75325013D01*
G75*
G02*
X107275013Y-75075013I250000J0D01*
G01*
X107950013Y-75075013D01*
G75*
G02*
X108200013Y-75325013I0J-250000D01*
G01*
G37*
G36*
G01*
X112625013Y-86275013D02*
X112625013Y-85325013D01*
G75*
G02*
X112875013Y-85075013I250000J0D01*
G01*
X113550013Y-85075013D01*
G75*
G02*
X113800013Y-85325013I0J-250000D01*
G01*
X113800013Y-86275013D01*
G75*
G02*
X113550013Y-86525013I-250000J0D01*
G01*
X112875013Y-86525013D01*
G75*
G02*
X112625013Y-86275013I0J250000D01*
G01*
G37*
G36*
G01*
X114700013Y-86275013D02*
X114700013Y-85325013D01*
G75*
G02*
X114950013Y-85075013I250000J0D01*
G01*
X115625013Y-85075013D01*
G75*
G02*
X115875013Y-85325013I0J-250000D01*
G01*
X115875013Y-86275013D01*
G75*
G02*
X115625013Y-86525013I-250000J0D01*
G01*
X114950013Y-86525013D01*
G75*
G02*
X114700013Y-86275013I0J250000D01*
G01*
G37*
G36*
G01*
X116525013Y-76675013D02*
X116525013Y-75725013D01*
G75*
G02*
X116775013Y-75475013I250000J0D01*
G01*
X117450013Y-75475013D01*
G75*
G02*
X117700013Y-75725013I0J-250000D01*
G01*
X117700013Y-76675013D01*
G75*
G02*
X117450013Y-76925013I-250000J0D01*
G01*
X116775013Y-76925013D01*
G75*
G02*
X116525013Y-76675013I0J250000D01*
G01*
G37*
G36*
G01*
X118600013Y-76675013D02*
X118600013Y-75725013D01*
G75*
G02*
X118850013Y-75475013I250000J0D01*
G01*
X119525013Y-75475013D01*
G75*
G02*
X119775013Y-75725013I0J-250000D01*
G01*
X119775013Y-76675013D01*
G75*
G02*
X119525013Y-76925013I-250000J0D01*
G01*
X118850013Y-76925013D01*
G75*
G02*
X118600013Y-76675013I0J250000D01*
G01*
G37*
G36*
G01*
X116525013Y-86275013D02*
X116525013Y-85325013D01*
G75*
G02*
X116775013Y-85075013I250000J0D01*
G01*
X117450013Y-85075013D01*
G75*
G02*
X117700013Y-85325013I0J-250000D01*
G01*
X117700013Y-86275013D01*
G75*
G02*
X117450013Y-86525013I-250000J0D01*
G01*
X116775013Y-86525013D01*
G75*
G02*
X116525013Y-86275013I0J250000D01*
G01*
G37*
G36*
G01*
X118600013Y-86275013D02*
X118600013Y-85325013D01*
G75*
G02*
X118850013Y-85075013I250000J0D01*
G01*
X119525013Y-85075013D01*
G75*
G02*
X119775013Y-85325013I0J-250000D01*
G01*
X119775013Y-86275013D01*
G75*
G02*
X119525013Y-86525013I-250000J0D01*
G01*
X118850013Y-86525013D01*
G75*
G02*
X118600013Y-86275013I0J250000D01*
G01*
G37*
D12*
X132750013Y-76530013D03*
D13*
X129100013Y-77960013D03*
D12*
X132750013Y-85170013D03*
D13*
X129100013Y-83740013D03*
D14*
X128570013Y-85170013D03*
X128570013Y-76530013D03*
D15*
X127655013Y-81100013D03*
X127655013Y-79100013D03*
X127655013Y-79600013D03*
X127655013Y-80100013D03*
X127655013Y-80600013D03*
X127655013Y-81600013D03*
X127655013Y-82100013D03*
X127655013Y-82600013D03*
D16*
X127655013Y-77600013D03*
X127655013Y-78400013D03*
X127655013Y-83300013D03*
X127655013Y-84100013D03*
X127655013Y-84100013D03*
X127655013Y-83300013D03*
X127655013Y-78400013D03*
X127655013Y-77600013D03*
D17*
X97350013Y-76000013D03*
D18*
X97350013Y-78540013D03*
X97350013Y-81080013D03*
X97350013Y-83620013D03*
X97350013Y-86160013D03*
X97350013Y-88700013D03*
D17*
X128750013Y-89800013D03*
D18*
X126210013Y-89800013D03*
X123670013Y-89800013D03*
X121130013Y-89800013D03*
X118590013Y-89800013D03*
X116050013Y-89800013D03*
G36*
G01*
X105100014Y-88400013D02*
X104200012Y-88400013D01*
G75*
G02*
X103950013Y-88150014I0J249999D01*
G01*
X103950013Y-87450012D01*
G75*
G02*
X104200012Y-87200013I249999J0D01*
G01*
X105100014Y-87200013D01*
G75*
G02*
X105350013Y-87450012I0J-249999D01*
G01*
X105350013Y-88150014D01*
G75*
G02*
X105100014Y-88400013I-249999J0D01*
G01*
G37*
G36*
G01*
X105100014Y-86400013D02*
X104200012Y-86400013D01*
G75*
G02*
X103950013Y-86150014I0J249999D01*
G01*
X103950013Y-85450012D01*
G75*
G02*
X104200012Y-85200013I249999J0D01*
G01*
X105100014Y-85200013D01*
G75*
G02*
X105350013Y-85450012I0J-249999D01*
G01*
X105350013Y-86150014D01*
G75*
G02*
X105100014Y-86400013I-249999J0D01*
G01*
G37*
G36*
G01*
X106600012Y-85200013D02*
X107500014Y-85200013D01*
G75*
G02*
X107750013Y-85450012I0J-249999D01*
G01*
X107750013Y-86150014D01*
G75*
G02*
X107500014Y-86400013I-249999J0D01*
G01*
X106600012Y-86400013D01*
G75*
G02*
X106350013Y-86150014I0J249999D01*
G01*
X106350013Y-85450012D01*
G75*
G02*
X106600012Y-85200013I249999J0D01*
G01*
G37*
G36*
G01*
X106600012Y-87200013D02*
X107500014Y-87200013D01*
G75*
G02*
X107750013Y-87450012I0J-249999D01*
G01*
X107750013Y-88150014D01*
G75*
G02*
X107500014Y-88400013I-249999J0D01*
G01*
X106600012Y-88400013D01*
G75*
G02*
X106350013Y-88150014I0J249999D01*
G01*
X106350013Y-87450012D01*
G75*
G02*
X106600012Y-87200013I249999J0D01*
G01*
G37*
G36*
G01*
X124150013Y-78650012D02*
X124150013Y-79550014D01*
G75*
G02*
X123900014Y-79800013I-249999J0D01*
G01*
X123200012Y-79800013D01*
G75*
G02*
X122950013Y-79550014I0J249999D01*
G01*
X122950013Y-78650012D01*
G75*
G02*
X123200012Y-78400013I249999J0D01*
G01*
X123900014Y-78400013D01*
G75*
G02*
X124150013Y-78650012I0J-249999D01*
G01*
G37*
G36*
G01*
X122150013Y-78650012D02*
X122150013Y-79550014D01*
G75*
G02*
X121900014Y-79800013I-249999J0D01*
G01*
X121200012Y-79800013D01*
G75*
G02*
X120950013Y-79550014I0J249999D01*
G01*
X120950013Y-78650012D01*
G75*
G02*
X121200012Y-78400013I249999J0D01*
G01*
X121900014Y-78400013D01*
G75*
G02*
X122150013Y-78650012I0J-249999D01*
G01*
G37*
G36*
G01*
X124150013Y-81650012D02*
X124150013Y-82550014D01*
G75*
G02*
X123900014Y-82800013I-249999J0D01*
G01*
X123200012Y-82800013D01*
G75*
G02*
X122950013Y-82550014I0J249999D01*
G01*
X122950013Y-81650012D01*
G75*
G02*
X123200012Y-81400013I249999J0D01*
G01*
X123900014Y-81400013D01*
G75*
G02*
X124150013Y-81650012I0J-249999D01*
G01*
G37*
G36*
G01*
X122150013Y-81650012D02*
X122150013Y-82550014D01*
G75*
G02*
X121900014Y-82800013I-249999J0D01*
G01*
X121200012Y-82800013D01*
G75*
G02*
X120950013Y-82550014I0J249999D01*
G01*
X120950013Y-81650012D01*
G75*
G02*
X121200012Y-81400013I249999J0D01*
G01*
X121900014Y-81400013D01*
G75*
G02*
X122150013Y-81650012I0J-249999D01*
G01*
G37*
D19*
X112500013Y-81000013D03*
D20*
X118800013Y-81000013D03*
X118800013Y-78700013D03*
X118800013Y-83300013D03*
D21*
X109050013Y-85850013D03*
X109050013Y-87750013D03*
X111050013Y-86800013D03*
X102250013Y-87750013D03*
X102250013Y-85850013D03*
X100250013Y-86800013D03*
G36*
G01*
X109645013Y-77450013D02*
X109945013Y-77450013D01*
G75*
G02*
X110095013Y-77600013I0J-150000D01*
G01*
X110095013Y-79050013D01*
G75*
G02*
X109945013Y-79200013I-150000J0D01*
G01*
X109645013Y-79200013D01*
G75*
G02*
X109495013Y-79050013I0J150000D01*
G01*
X109495013Y-77600013D01*
G75*
G02*
X109645013Y-77450013I150000J0D01*
G01*
G37*
G36*
G01*
X108375013Y-77450013D02*
X108675013Y-77450013D01*
G75*
G02*
X108825013Y-77600013I0J-150000D01*
G01*
X108825013Y-79050013D01*
G75*
G02*
X108675013Y-79200013I-150000J0D01*
G01*
X108375013Y-79200013D01*
G75*
G02*
X108225013Y-79050013I0J150000D01*
G01*
X108225013Y-77600013D01*
G75*
G02*
X108375013Y-77450013I150000J0D01*
G01*
G37*
G36*
G01*
X107105013Y-77450013D02*
X107405013Y-77450013D01*
G75*
G02*
X107555013Y-77600013I0J-150000D01*
G01*
X107555013Y-79050013D01*
G75*
G02*
X107405013Y-79200013I-150000J0D01*
G01*
X107105013Y-79200013D01*
G75*
G02*
X106955013Y-79050013I0J150000D01*
G01*
X106955013Y-77600013D01*
G75*
G02*
X107105013Y-77450013I150000J0D01*
G01*
G37*
G36*
G01*
X105835013Y-77450013D02*
X106135013Y-77450013D01*
G75*
G02*
X106285013Y-77600013I0J-150000D01*
G01*
X106285013Y-79050013D01*
G75*
G02*
X106135013Y-79200013I-150000J0D01*
G01*
X105835013Y-79200013D01*
G75*
G02*
X105685013Y-79050013I0J150000D01*
G01*
X105685013Y-77600013D01*
G75*
G02*
X105835013Y-77450013I150000J0D01*
G01*
G37*
G36*
G01*
X104565013Y-77450013D02*
X104865013Y-77450013D01*
G75*
G02*
X105015013Y-77600013I0J-150000D01*
G01*
X105015013Y-79050013D01*
G75*
G02*
X104865013Y-79200013I-150000J0D01*
G01*
X104565013Y-79200013D01*
G75*
G02*
X104415013Y-79050013I0J150000D01*
G01*
X104415013Y-77600013D01*
G75*
G02*
X104565013Y-77450013I150000J0D01*
G01*
G37*
G36*
G01*
X103295013Y-77450013D02*
X103595013Y-77450013D01*
G75*
G02*
X103745013Y-77600013I0J-150000D01*
G01*
X103745013Y-79050013D01*
G75*
G02*
X103595013Y-79200013I-150000J0D01*
G01*
X103295013Y-79200013D01*
G75*
G02*
X103145013Y-79050013I0J150000D01*
G01*
X103145013Y-77600013D01*
G75*
G02*
X103295013Y-77450013I150000J0D01*
G01*
G37*
G36*
G01*
X102025013Y-77450013D02*
X102325013Y-77450013D01*
G75*
G02*
X102475013Y-77600013I0J-150000D01*
G01*
X102475013Y-79050013D01*
G75*
G02*
X102325013Y-79200013I-150000J0D01*
G01*
X102025013Y-79200013D01*
G75*
G02*
X101875013Y-79050013I0J150000D01*
G01*
X101875013Y-77600013D01*
G75*
G02*
X102025013Y-77450013I150000J0D01*
G01*
G37*
G36*
G01*
X100755013Y-77450013D02*
X101055013Y-77450013D01*
G75*
G02*
X101205013Y-77600013I0J-150000D01*
G01*
X101205013Y-79050013D01*
G75*
G02*
X101055013Y-79200013I-150000J0D01*
G01*
X100755013Y-79200013D01*
G75*
G02*
X100605013Y-79050013I0J150000D01*
G01*
X100605013Y-77600013D01*
G75*
G02*
X100755013Y-77450013I150000J0D01*
G01*
G37*
G36*
G01*
X100755013Y-82600013D02*
X101055013Y-82600013D01*
G75*
G02*
X101205013Y-82750013I0J-150000D01*
G01*
X101205013Y-84200013D01*
G75*
G02*
X101055013Y-84350013I-150000J0D01*
G01*
X100755013Y-84350013D01*
G75*
G02*
X100605013Y-84200013I0J150000D01*
G01*
X100605013Y-82750013D01*
G75*
G02*
X100755013Y-82600013I150000J0D01*
G01*
G37*
G36*
G01*
X102025013Y-82600013D02*
X102325013Y-82600013D01*
G75*
G02*
X102475013Y-82750013I0J-150000D01*
G01*
X102475013Y-84200013D01*
G75*
G02*
X102325013Y-84350013I-150000J0D01*
G01*
X102025013Y-84350013D01*
G75*
G02*
X101875013Y-84200013I0J150000D01*
G01*
X101875013Y-82750013D01*
G75*
G02*
X102025013Y-82600013I150000J0D01*
G01*
G37*
G36*
G01*
X103295013Y-82600013D02*
X103595013Y-82600013D01*
G75*
G02*
X103745013Y-82750013I0J-150000D01*
G01*
X103745013Y-84200013D01*
G75*
G02*
X103595013Y-84350013I-150000J0D01*
G01*
X103295013Y-84350013D01*
G75*
G02*
X103145013Y-84200013I0J150000D01*
G01*
X103145013Y-82750013D01*
G75*
G02*
X103295013Y-82600013I150000J0D01*
G01*
G37*
G36*
G01*
X104565013Y-82600013D02*
X104865013Y-82600013D01*
G75*
G02*
X105015013Y-82750013I0J-150000D01*
G01*
X105015013Y-84200013D01*
G75*
G02*
X104865013Y-84350013I-150000J0D01*
G01*
X104565013Y-84350013D01*
G75*
G02*
X104415013Y-84200013I0J150000D01*
G01*
X104415013Y-82750013D01*
G75*
G02*
X104565013Y-82600013I150000J0D01*
G01*
G37*
G36*
G01*
X105835013Y-82600013D02*
X106135013Y-82600013D01*
G75*
G02*
X106285013Y-82750013I0J-150000D01*
G01*
X106285013Y-84200013D01*
G75*
G02*
X106135013Y-84350013I-150000J0D01*
G01*
X105835013Y-84350013D01*
G75*
G02*
X105685013Y-84200013I0J150000D01*
G01*
X105685013Y-82750013D01*
G75*
G02*
X105835013Y-82600013I150000J0D01*
G01*
G37*
G36*
G01*
X107105013Y-82600013D02*
X107405013Y-82600013D01*
G75*
G02*
X107555013Y-82750013I0J-150000D01*
G01*
X107555013Y-84200013D01*
G75*
G02*
X107405013Y-84350013I-150000J0D01*
G01*
X107105013Y-84350013D01*
G75*
G02*
X106955013Y-84200013I0J150000D01*
G01*
X106955013Y-82750013D01*
G75*
G02*
X107105013Y-82600013I150000J0D01*
G01*
G37*
G36*
G01*
X108375013Y-82600013D02*
X108675013Y-82600013D01*
G75*
G02*
X108825013Y-82750013I0J-150000D01*
G01*
X108825013Y-84200013D01*
G75*
G02*
X108675013Y-84350013I-150000J0D01*
G01*
X108375013Y-84350013D01*
G75*
G02*
X108225013Y-84200013I0J150000D01*
G01*
X108225013Y-82750013D01*
G75*
G02*
X108375013Y-82600013I150000J0D01*
G01*
G37*
G36*
G01*
X109645013Y-82600013D02*
X109945013Y-82600013D01*
G75*
G02*
X110095013Y-82750013I0J-150000D01*
G01*
X110095013Y-84200013D01*
G75*
G02*
X109945013Y-84350013I-150000J0D01*
G01*
X109645013Y-84350013D01*
G75*
G02*
X109495013Y-84200013I0J150000D01*
G01*
X109495013Y-82750013D01*
G75*
G02*
X109645013Y-82600013I150000J0D01*
G01*
G37*
D18*
X103960013Y-91250013D03*
D17*
X106500013Y-91250013D03*
G36*
G01*
X67275001Y-75325013D02*
X67275001Y-76275013D01*
G75*
G02*
X67025001Y-76525013I-250000J0D01*
G01*
X66350001Y-76525013D01*
G75*
G02*
X66100001Y-76275013I0J250000D01*
G01*
X66100001Y-75325013D01*
G75*
G02*
X66350001Y-75075013I250000J0D01*
G01*
X67025001Y-75075013D01*
G75*
G02*
X67275001Y-75325013I0J-250000D01*
G01*
G37*
G36*
G01*
X65200001Y-75325013D02*
X65200001Y-76275013D01*
G75*
G02*
X64950001Y-76525013I-250000J0D01*
G01*
X64275001Y-76525013D01*
G75*
G02*
X64025001Y-76275013I0J250000D01*
G01*
X64025001Y-75325013D01*
G75*
G02*
X64275001Y-75075013I250000J0D01*
G01*
X64950001Y-75075013D01*
G75*
G02*
X65200001Y-75325013I0J-250000D01*
G01*
G37*
G36*
G01*
X69625001Y-86275013D02*
X69625001Y-85325013D01*
G75*
G02*
X69875001Y-85075013I250000J0D01*
G01*
X70550001Y-85075013D01*
G75*
G02*
X70800001Y-85325013I0J-250000D01*
G01*
X70800001Y-86275013D01*
G75*
G02*
X70550001Y-86525013I-250000J0D01*
G01*
X69875001Y-86525013D01*
G75*
G02*
X69625001Y-86275013I0J250000D01*
G01*
G37*
G36*
G01*
X71700001Y-86275013D02*
X71700001Y-85325013D01*
G75*
G02*
X71950001Y-85075013I250000J0D01*
G01*
X72625001Y-85075013D01*
G75*
G02*
X72875001Y-85325013I0J-250000D01*
G01*
X72875001Y-86275013D01*
G75*
G02*
X72625001Y-86525013I-250000J0D01*
G01*
X71950001Y-86525013D01*
G75*
G02*
X71700001Y-86275013I0J250000D01*
G01*
G37*
G36*
G01*
X73525001Y-76675013D02*
X73525001Y-75725013D01*
G75*
G02*
X73775001Y-75475013I250000J0D01*
G01*
X74450001Y-75475013D01*
G75*
G02*
X74700001Y-75725013I0J-250000D01*
G01*
X74700001Y-76675013D01*
G75*
G02*
X74450001Y-76925013I-250000J0D01*
G01*
X73775001Y-76925013D01*
G75*
G02*
X73525001Y-76675013I0J250000D01*
G01*
G37*
G36*
G01*
X75600001Y-76675013D02*
X75600001Y-75725013D01*
G75*
G02*
X75850001Y-75475013I250000J0D01*
G01*
X76525001Y-75475013D01*
G75*
G02*
X76775001Y-75725013I0J-250000D01*
G01*
X76775001Y-76675013D01*
G75*
G02*
X76525001Y-76925013I-250000J0D01*
G01*
X75850001Y-76925013D01*
G75*
G02*
X75600001Y-76675013I0J250000D01*
G01*
G37*
G36*
G01*
X73525001Y-86275013D02*
X73525001Y-85325013D01*
G75*
G02*
X73775001Y-85075013I250000J0D01*
G01*
X74450001Y-85075013D01*
G75*
G02*
X74700001Y-85325013I0J-250000D01*
G01*
X74700001Y-86275013D01*
G75*
G02*
X74450001Y-86525013I-250000J0D01*
G01*
X73775001Y-86525013D01*
G75*
G02*
X73525001Y-86275013I0J250000D01*
G01*
G37*
G36*
G01*
X75600001Y-86275013D02*
X75600001Y-85325013D01*
G75*
G02*
X75850001Y-85075013I250000J0D01*
G01*
X76525001Y-85075013D01*
G75*
G02*
X76775001Y-85325013I0J-250000D01*
G01*
X76775001Y-86275013D01*
G75*
G02*
X76525001Y-86525013I-250000J0D01*
G01*
X75850001Y-86525013D01*
G75*
G02*
X75600001Y-86275013I0J250000D01*
G01*
G37*
D12*
X89750001Y-76530013D03*
D13*
X86100001Y-77960013D03*
D12*
X89750001Y-85170013D03*
D13*
X86100001Y-83740013D03*
D14*
X85570001Y-85170013D03*
X85570001Y-76530013D03*
D15*
X84655001Y-81100013D03*
X84655001Y-79100013D03*
X84655001Y-79600013D03*
X84655001Y-80100013D03*
X84655001Y-80600013D03*
X84655001Y-81600013D03*
X84655001Y-82100013D03*
X84655001Y-82600013D03*
D16*
X84655001Y-77600013D03*
X84655001Y-78400013D03*
X84655001Y-83300013D03*
X84655001Y-84100013D03*
X84655001Y-84100013D03*
X84655001Y-83300013D03*
X84655001Y-78400013D03*
X84655001Y-77600013D03*
D17*
X54350001Y-76000013D03*
D18*
X54350001Y-78540013D03*
X54350001Y-81080013D03*
X54350001Y-83620013D03*
X54350001Y-86160013D03*
X54350001Y-88700013D03*
D17*
X85750001Y-89800013D03*
D18*
X83210001Y-89800013D03*
X80670001Y-89800013D03*
X78130001Y-89800013D03*
X75590001Y-89800013D03*
X73050001Y-89800013D03*
G36*
G01*
X62100002Y-88400013D02*
X61200000Y-88400013D01*
G75*
G02*
X60950001Y-88150014I0J249999D01*
G01*
X60950001Y-87450012D01*
G75*
G02*
X61200000Y-87200013I249999J0D01*
G01*
X62100002Y-87200013D01*
G75*
G02*
X62350001Y-87450012I0J-249999D01*
G01*
X62350001Y-88150014D01*
G75*
G02*
X62100002Y-88400013I-249999J0D01*
G01*
G37*
G36*
G01*
X62100002Y-86400013D02*
X61200000Y-86400013D01*
G75*
G02*
X60950001Y-86150014I0J249999D01*
G01*
X60950001Y-85450012D01*
G75*
G02*
X61200000Y-85200013I249999J0D01*
G01*
X62100002Y-85200013D01*
G75*
G02*
X62350001Y-85450012I0J-249999D01*
G01*
X62350001Y-86150014D01*
G75*
G02*
X62100002Y-86400013I-249999J0D01*
G01*
G37*
G36*
G01*
X63600000Y-85200013D02*
X64500002Y-85200013D01*
G75*
G02*
X64750001Y-85450012I0J-249999D01*
G01*
X64750001Y-86150014D01*
G75*
G02*
X64500002Y-86400013I-249999J0D01*
G01*
X63600000Y-86400013D01*
G75*
G02*
X63350001Y-86150014I0J249999D01*
G01*
X63350001Y-85450012D01*
G75*
G02*
X63600000Y-85200013I249999J0D01*
G01*
G37*
G36*
G01*
X63600000Y-87200013D02*
X64500002Y-87200013D01*
G75*
G02*
X64750001Y-87450012I0J-249999D01*
G01*
X64750001Y-88150014D01*
G75*
G02*
X64500002Y-88400013I-249999J0D01*
G01*
X63600000Y-88400013D01*
G75*
G02*
X63350001Y-88150014I0J249999D01*
G01*
X63350001Y-87450012D01*
G75*
G02*
X63600000Y-87200013I249999J0D01*
G01*
G37*
G36*
G01*
X81150001Y-78650012D02*
X81150001Y-79550014D01*
G75*
G02*
X80900002Y-79800013I-249999J0D01*
G01*
X80200000Y-79800013D01*
G75*
G02*
X79950001Y-79550014I0J249999D01*
G01*
X79950001Y-78650012D01*
G75*
G02*
X80200000Y-78400013I249999J0D01*
G01*
X80900002Y-78400013D01*
G75*
G02*
X81150001Y-78650012I0J-249999D01*
G01*
G37*
G36*
G01*
X79150001Y-78650012D02*
X79150001Y-79550014D01*
G75*
G02*
X78900002Y-79800013I-249999J0D01*
G01*
X78200000Y-79800013D01*
G75*
G02*
X77950001Y-79550014I0J249999D01*
G01*
X77950001Y-78650012D01*
G75*
G02*
X78200000Y-78400013I249999J0D01*
G01*
X78900002Y-78400013D01*
G75*
G02*
X79150001Y-78650012I0J-249999D01*
G01*
G37*
G36*
G01*
X81150001Y-81650012D02*
X81150001Y-82550014D01*
G75*
G02*
X80900002Y-82800013I-249999J0D01*
G01*
X80200000Y-82800013D01*
G75*
G02*
X79950001Y-82550014I0J249999D01*
G01*
X79950001Y-81650012D01*
G75*
G02*
X80200000Y-81400013I249999J0D01*
G01*
X80900002Y-81400013D01*
G75*
G02*
X81150001Y-81650012I0J-249999D01*
G01*
G37*
G36*
G01*
X79150001Y-81650012D02*
X79150001Y-82550014D01*
G75*
G02*
X78900002Y-82800013I-249999J0D01*
G01*
X78200000Y-82800013D01*
G75*
G02*
X77950001Y-82550014I0J249999D01*
G01*
X77950001Y-81650012D01*
G75*
G02*
X78200000Y-81400013I249999J0D01*
G01*
X78900002Y-81400013D01*
G75*
G02*
X79150001Y-81650012I0J-249999D01*
G01*
G37*
D19*
X69500001Y-81000013D03*
D20*
X75800001Y-81000013D03*
X75800001Y-78700013D03*
X75800001Y-83300013D03*
D21*
X66050001Y-85850013D03*
X66050001Y-87750013D03*
X68050001Y-86800013D03*
X59250001Y-87750013D03*
X59250001Y-85850013D03*
X57250001Y-86800013D03*
G36*
G01*
X66645001Y-77450013D02*
X66945001Y-77450013D01*
G75*
G02*
X67095001Y-77600013I0J-150000D01*
G01*
X67095001Y-79050013D01*
G75*
G02*
X66945001Y-79200013I-150000J0D01*
G01*
X66645001Y-79200013D01*
G75*
G02*
X66495001Y-79050013I0J150000D01*
G01*
X66495001Y-77600013D01*
G75*
G02*
X66645001Y-77450013I150000J0D01*
G01*
G37*
G36*
G01*
X65375001Y-77450013D02*
X65675001Y-77450013D01*
G75*
G02*
X65825001Y-77600013I0J-150000D01*
G01*
X65825001Y-79050013D01*
G75*
G02*
X65675001Y-79200013I-150000J0D01*
G01*
X65375001Y-79200013D01*
G75*
G02*
X65225001Y-79050013I0J150000D01*
G01*
X65225001Y-77600013D01*
G75*
G02*
X65375001Y-77450013I150000J0D01*
G01*
G37*
G36*
G01*
X64105001Y-77450013D02*
X64405001Y-77450013D01*
G75*
G02*
X64555001Y-77600013I0J-150000D01*
G01*
X64555001Y-79050013D01*
G75*
G02*
X64405001Y-79200013I-150000J0D01*
G01*
X64105001Y-79200013D01*
G75*
G02*
X63955001Y-79050013I0J150000D01*
G01*
X63955001Y-77600013D01*
G75*
G02*
X64105001Y-77450013I150000J0D01*
G01*
G37*
G36*
G01*
X62835001Y-77450013D02*
X63135001Y-77450013D01*
G75*
G02*
X63285001Y-77600013I0J-150000D01*
G01*
X63285001Y-79050013D01*
G75*
G02*
X63135001Y-79200013I-150000J0D01*
G01*
X62835001Y-79200013D01*
G75*
G02*
X62685001Y-79050013I0J150000D01*
G01*
X62685001Y-77600013D01*
G75*
G02*
X62835001Y-77450013I150000J0D01*
G01*
G37*
G36*
G01*
X61565001Y-77450013D02*
X61865001Y-77450013D01*
G75*
G02*
X62015001Y-77600013I0J-150000D01*
G01*
X62015001Y-79050013D01*
G75*
G02*
X61865001Y-79200013I-150000J0D01*
G01*
X61565001Y-79200013D01*
G75*
G02*
X61415001Y-79050013I0J150000D01*
G01*
X61415001Y-77600013D01*
G75*
G02*
X61565001Y-77450013I150000J0D01*
G01*
G37*
G36*
G01*
X60295001Y-77450013D02*
X60595001Y-77450013D01*
G75*
G02*
X60745001Y-77600013I0J-150000D01*
G01*
X60745001Y-79050013D01*
G75*
G02*
X60595001Y-79200013I-150000J0D01*
G01*
X60295001Y-79200013D01*
G75*
G02*
X60145001Y-79050013I0J150000D01*
G01*
X60145001Y-77600013D01*
G75*
G02*
X60295001Y-77450013I150000J0D01*
G01*
G37*
G36*
G01*
X59025001Y-77450013D02*
X59325001Y-77450013D01*
G75*
G02*
X59475001Y-77600013I0J-150000D01*
G01*
X59475001Y-79050013D01*
G75*
G02*
X59325001Y-79200013I-150000J0D01*
G01*
X59025001Y-79200013D01*
G75*
G02*
X58875001Y-79050013I0J150000D01*
G01*
X58875001Y-77600013D01*
G75*
G02*
X59025001Y-77450013I150000J0D01*
G01*
G37*
G36*
G01*
X57755001Y-77450013D02*
X58055001Y-77450013D01*
G75*
G02*
X58205001Y-77600013I0J-150000D01*
G01*
X58205001Y-79050013D01*
G75*
G02*
X58055001Y-79200013I-150000J0D01*
G01*
X57755001Y-79200013D01*
G75*
G02*
X57605001Y-79050013I0J150000D01*
G01*
X57605001Y-77600013D01*
G75*
G02*
X57755001Y-77450013I150000J0D01*
G01*
G37*
G36*
G01*
X57755001Y-82600013D02*
X58055001Y-82600013D01*
G75*
G02*
X58205001Y-82750013I0J-150000D01*
G01*
X58205001Y-84200013D01*
G75*
G02*
X58055001Y-84350013I-150000J0D01*
G01*
X57755001Y-84350013D01*
G75*
G02*
X57605001Y-84200013I0J150000D01*
G01*
X57605001Y-82750013D01*
G75*
G02*
X57755001Y-82600013I150000J0D01*
G01*
G37*
G36*
G01*
X59025001Y-82600013D02*
X59325001Y-82600013D01*
G75*
G02*
X59475001Y-82750013I0J-150000D01*
G01*
X59475001Y-84200013D01*
G75*
G02*
X59325001Y-84350013I-150000J0D01*
G01*
X59025001Y-84350013D01*
G75*
G02*
X58875001Y-84200013I0J150000D01*
G01*
X58875001Y-82750013D01*
G75*
G02*
X59025001Y-82600013I150000J0D01*
G01*
G37*
G36*
G01*
X60295001Y-82600013D02*
X60595001Y-82600013D01*
G75*
G02*
X60745001Y-82750013I0J-150000D01*
G01*
X60745001Y-84200013D01*
G75*
G02*
X60595001Y-84350013I-150000J0D01*
G01*
X60295001Y-84350013D01*
G75*
G02*
X60145001Y-84200013I0J150000D01*
G01*
X60145001Y-82750013D01*
G75*
G02*
X60295001Y-82600013I150000J0D01*
G01*
G37*
G36*
G01*
X61565001Y-82600013D02*
X61865001Y-82600013D01*
G75*
G02*
X62015001Y-82750013I0J-150000D01*
G01*
X62015001Y-84200013D01*
G75*
G02*
X61865001Y-84350013I-150000J0D01*
G01*
X61565001Y-84350013D01*
G75*
G02*
X61415001Y-84200013I0J150000D01*
G01*
X61415001Y-82750013D01*
G75*
G02*
X61565001Y-82600013I150000J0D01*
G01*
G37*
G36*
G01*
X62835001Y-82600013D02*
X63135001Y-82600013D01*
G75*
G02*
X63285001Y-82750013I0J-150000D01*
G01*
X63285001Y-84200013D01*
G75*
G02*
X63135001Y-84350013I-150000J0D01*
G01*
X62835001Y-84350013D01*
G75*
G02*
X62685001Y-84200013I0J150000D01*
G01*
X62685001Y-82750013D01*
G75*
G02*
X62835001Y-82600013I150000J0D01*
G01*
G37*
G36*
G01*
X64105001Y-82600013D02*
X64405001Y-82600013D01*
G75*
G02*
X64555001Y-82750013I0J-150000D01*
G01*
X64555001Y-84200013D01*
G75*
G02*
X64405001Y-84350013I-150000J0D01*
G01*
X64105001Y-84350013D01*
G75*
G02*
X63955001Y-84200013I0J150000D01*
G01*
X63955001Y-82750013D01*
G75*
G02*
X64105001Y-82600013I150000J0D01*
G01*
G37*
G36*
G01*
X65375001Y-82600013D02*
X65675001Y-82600013D01*
G75*
G02*
X65825001Y-82750013I0J-150000D01*
G01*
X65825001Y-84200013D01*
G75*
G02*
X65675001Y-84350013I-150000J0D01*
G01*
X65375001Y-84350013D01*
G75*
G02*
X65225001Y-84200013I0J150000D01*
G01*
X65225001Y-82750013D01*
G75*
G02*
X65375001Y-82600013I150000J0D01*
G01*
G37*
G36*
G01*
X66645001Y-82600013D02*
X66945001Y-82600013D01*
G75*
G02*
X67095001Y-82750013I0J-150000D01*
G01*
X67095001Y-84200013D01*
G75*
G02*
X66945001Y-84350013I-150000J0D01*
G01*
X66645001Y-84350013D01*
G75*
G02*
X66495001Y-84200013I0J150000D01*
G01*
X66495001Y-82750013D01*
G75*
G02*
X66645001Y-82600013I150000J0D01*
G01*
G37*
D18*
X60960001Y-91250013D03*
D17*
X63500001Y-91250013D03*
G36*
G01*
X110275013Y-53575001D02*
X110275013Y-54525001D01*
G75*
G02*
X110025013Y-54775001I-250000J0D01*
G01*
X109350013Y-54775001D01*
G75*
G02*
X109100013Y-54525001I0J250000D01*
G01*
X109100013Y-53575001D01*
G75*
G02*
X109350013Y-53325001I250000J0D01*
G01*
X110025013Y-53325001D01*
G75*
G02*
X110275013Y-53575001I0J-250000D01*
G01*
G37*
G36*
G01*
X108200013Y-53575001D02*
X108200013Y-54525001D01*
G75*
G02*
X107950013Y-54775001I-250000J0D01*
G01*
X107275013Y-54775001D01*
G75*
G02*
X107025013Y-54525001I0J250000D01*
G01*
X107025013Y-53575001D01*
G75*
G02*
X107275013Y-53325001I250000J0D01*
G01*
X107950013Y-53325001D01*
G75*
G02*
X108200013Y-53575001I0J-250000D01*
G01*
G37*
G36*
G01*
X112625013Y-64525001D02*
X112625013Y-63575001D01*
G75*
G02*
X112875013Y-63325001I250000J0D01*
G01*
X113550013Y-63325001D01*
G75*
G02*
X113800013Y-63575001I0J-250000D01*
G01*
X113800013Y-64525001D01*
G75*
G02*
X113550013Y-64775001I-250000J0D01*
G01*
X112875013Y-64775001D01*
G75*
G02*
X112625013Y-64525001I0J250000D01*
G01*
G37*
G36*
G01*
X114700013Y-64525001D02*
X114700013Y-63575001D01*
G75*
G02*
X114950013Y-63325001I250000J0D01*
G01*
X115625013Y-63325001D01*
G75*
G02*
X115875013Y-63575001I0J-250000D01*
G01*
X115875013Y-64525001D01*
G75*
G02*
X115625013Y-64775001I-250000J0D01*
G01*
X114950013Y-64775001D01*
G75*
G02*
X114700013Y-64525001I0J250000D01*
G01*
G37*
G36*
G01*
X116525013Y-54925001D02*
X116525013Y-53975001D01*
G75*
G02*
X116775013Y-53725001I250000J0D01*
G01*
X117450013Y-53725001D01*
G75*
G02*
X117700013Y-53975001I0J-250000D01*
G01*
X117700013Y-54925001D01*
G75*
G02*
X117450013Y-55175001I-250000J0D01*
G01*
X116775013Y-55175001D01*
G75*
G02*
X116525013Y-54925001I0J250000D01*
G01*
G37*
G36*
G01*
X118600013Y-54925001D02*
X118600013Y-53975001D01*
G75*
G02*
X118850013Y-53725001I250000J0D01*
G01*
X119525013Y-53725001D01*
G75*
G02*
X119775013Y-53975001I0J-250000D01*
G01*
X119775013Y-54925001D01*
G75*
G02*
X119525013Y-55175001I-250000J0D01*
G01*
X118850013Y-55175001D01*
G75*
G02*
X118600013Y-54925001I0J250000D01*
G01*
G37*
G36*
G01*
X116525013Y-64525001D02*
X116525013Y-63575001D01*
G75*
G02*
X116775013Y-63325001I250000J0D01*
G01*
X117450013Y-63325001D01*
G75*
G02*
X117700013Y-63575001I0J-250000D01*
G01*
X117700013Y-64525001D01*
G75*
G02*
X117450013Y-64775001I-250000J0D01*
G01*
X116775013Y-64775001D01*
G75*
G02*
X116525013Y-64525001I0J250000D01*
G01*
G37*
G36*
G01*
X118600013Y-64525001D02*
X118600013Y-63575001D01*
G75*
G02*
X118850013Y-63325001I250000J0D01*
G01*
X119525013Y-63325001D01*
G75*
G02*
X119775013Y-63575001I0J-250000D01*
G01*
X119775013Y-64525001D01*
G75*
G02*
X119525013Y-64775001I-250000J0D01*
G01*
X118850013Y-64775001D01*
G75*
G02*
X118600013Y-64525001I0J250000D01*
G01*
G37*
D12*
X132750013Y-54780001D03*
D13*
X129100013Y-56210001D03*
D12*
X132750013Y-63420001D03*
D13*
X129100013Y-61990001D03*
D14*
X128570013Y-63420001D03*
X128570013Y-54780001D03*
D15*
X127655013Y-59350001D03*
X127655013Y-57350001D03*
X127655013Y-57850001D03*
X127655013Y-58350001D03*
X127655013Y-58850001D03*
X127655013Y-59850001D03*
X127655013Y-60350001D03*
X127655013Y-60850001D03*
D16*
X127655013Y-55850001D03*
X127655013Y-56650001D03*
X127655013Y-61550001D03*
X127655013Y-62350001D03*
X127655013Y-62350001D03*
X127655013Y-61550001D03*
X127655013Y-56650001D03*
X127655013Y-55850001D03*
D17*
X97350013Y-54250001D03*
D18*
X97350013Y-56790001D03*
X97350013Y-59330001D03*
X97350013Y-61870001D03*
X97350013Y-64410001D03*
X97350013Y-66950001D03*
D17*
X128750013Y-68050001D03*
D18*
X126210013Y-68050001D03*
X123670013Y-68050001D03*
X121130013Y-68050001D03*
X118590013Y-68050001D03*
X116050013Y-68050001D03*
G36*
G01*
X105100014Y-66650001D02*
X104200012Y-66650001D01*
G75*
G02*
X103950013Y-66400002I0J249999D01*
G01*
X103950013Y-65700000D01*
G75*
G02*
X104200012Y-65450001I249999J0D01*
G01*
X105100014Y-65450001D01*
G75*
G02*
X105350013Y-65700000I0J-249999D01*
G01*
X105350013Y-66400002D01*
G75*
G02*
X105100014Y-66650001I-249999J0D01*
G01*
G37*
G36*
G01*
X105100014Y-64650001D02*
X104200012Y-64650001D01*
G75*
G02*
X103950013Y-64400002I0J249999D01*
G01*
X103950013Y-63700000D01*
G75*
G02*
X104200012Y-63450001I249999J0D01*
G01*
X105100014Y-63450001D01*
G75*
G02*
X105350013Y-63700000I0J-249999D01*
G01*
X105350013Y-64400002D01*
G75*
G02*
X105100014Y-64650001I-249999J0D01*
G01*
G37*
G36*
G01*
X106600012Y-63450001D02*
X107500014Y-63450001D01*
G75*
G02*
X107750013Y-63700000I0J-249999D01*
G01*
X107750013Y-64400002D01*
G75*
G02*
X107500014Y-64650001I-249999J0D01*
G01*
X106600012Y-64650001D01*
G75*
G02*
X106350013Y-64400002I0J249999D01*
G01*
X106350013Y-63700000D01*
G75*
G02*
X106600012Y-63450001I249999J0D01*
G01*
G37*
G36*
G01*
X106600012Y-65450001D02*
X107500014Y-65450001D01*
G75*
G02*
X107750013Y-65700000I0J-249999D01*
G01*
X107750013Y-66400002D01*
G75*
G02*
X107500014Y-66650001I-249999J0D01*
G01*
X106600012Y-66650001D01*
G75*
G02*
X106350013Y-66400002I0J249999D01*
G01*
X106350013Y-65700000D01*
G75*
G02*
X106600012Y-65450001I249999J0D01*
G01*
G37*
G36*
G01*
X124150013Y-56900000D02*
X124150013Y-57800002D01*
G75*
G02*
X123900014Y-58050001I-249999J0D01*
G01*
X123200012Y-58050001D01*
G75*
G02*
X122950013Y-57800002I0J249999D01*
G01*
X122950013Y-56900000D01*
G75*
G02*
X123200012Y-56650001I249999J0D01*
G01*
X123900014Y-56650001D01*
G75*
G02*
X124150013Y-56900000I0J-249999D01*
G01*
G37*
G36*
G01*
X122150013Y-56900000D02*
X122150013Y-57800002D01*
G75*
G02*
X121900014Y-58050001I-249999J0D01*
G01*
X121200012Y-58050001D01*
G75*
G02*
X120950013Y-57800002I0J249999D01*
G01*
X120950013Y-56900000D01*
G75*
G02*
X121200012Y-56650001I249999J0D01*
G01*
X121900014Y-56650001D01*
G75*
G02*
X122150013Y-56900000I0J-249999D01*
G01*
G37*
G36*
G01*
X124150013Y-59900000D02*
X124150013Y-60800002D01*
G75*
G02*
X123900014Y-61050001I-249999J0D01*
G01*
X123200012Y-61050001D01*
G75*
G02*
X122950013Y-60800002I0J249999D01*
G01*
X122950013Y-59900000D01*
G75*
G02*
X123200012Y-59650001I249999J0D01*
G01*
X123900014Y-59650001D01*
G75*
G02*
X124150013Y-59900000I0J-249999D01*
G01*
G37*
G36*
G01*
X122150013Y-59900000D02*
X122150013Y-60800002D01*
G75*
G02*
X121900014Y-61050001I-249999J0D01*
G01*
X121200012Y-61050001D01*
G75*
G02*
X120950013Y-60800002I0J249999D01*
G01*
X120950013Y-59900000D01*
G75*
G02*
X121200012Y-59650001I249999J0D01*
G01*
X121900014Y-59650001D01*
G75*
G02*
X122150013Y-59900000I0J-249999D01*
G01*
G37*
D19*
X112500013Y-59250001D03*
D20*
X118800013Y-59250001D03*
X118800013Y-56950001D03*
X118800013Y-61550001D03*
D21*
X109050013Y-64100001D03*
X109050013Y-66000001D03*
X111050013Y-65050001D03*
X102250013Y-66000001D03*
X102250013Y-64100001D03*
X100250013Y-65050001D03*
G36*
G01*
X109645013Y-55700001D02*
X109945013Y-55700001D01*
G75*
G02*
X110095013Y-55850001I0J-150000D01*
G01*
X110095013Y-57300001D01*
G75*
G02*
X109945013Y-57450001I-150000J0D01*
G01*
X109645013Y-57450001D01*
G75*
G02*
X109495013Y-57300001I0J150000D01*
G01*
X109495013Y-55850001D01*
G75*
G02*
X109645013Y-55700001I150000J0D01*
G01*
G37*
G36*
G01*
X108375013Y-55700001D02*
X108675013Y-55700001D01*
G75*
G02*
X108825013Y-55850001I0J-150000D01*
G01*
X108825013Y-57300001D01*
G75*
G02*
X108675013Y-57450001I-150000J0D01*
G01*
X108375013Y-57450001D01*
G75*
G02*
X108225013Y-57300001I0J150000D01*
G01*
X108225013Y-55850001D01*
G75*
G02*
X108375013Y-55700001I150000J0D01*
G01*
G37*
G36*
G01*
X107105013Y-55700001D02*
X107405013Y-55700001D01*
G75*
G02*
X107555013Y-55850001I0J-150000D01*
G01*
X107555013Y-57300001D01*
G75*
G02*
X107405013Y-57450001I-150000J0D01*
G01*
X107105013Y-57450001D01*
G75*
G02*
X106955013Y-57300001I0J150000D01*
G01*
X106955013Y-55850001D01*
G75*
G02*
X107105013Y-55700001I150000J0D01*
G01*
G37*
G36*
G01*
X105835013Y-55700001D02*
X106135013Y-55700001D01*
G75*
G02*
X106285013Y-55850001I0J-150000D01*
G01*
X106285013Y-57300001D01*
G75*
G02*
X106135013Y-57450001I-150000J0D01*
G01*
X105835013Y-57450001D01*
G75*
G02*
X105685013Y-57300001I0J150000D01*
G01*
X105685013Y-55850001D01*
G75*
G02*
X105835013Y-55700001I150000J0D01*
G01*
G37*
G36*
G01*
X104565013Y-55700001D02*
X104865013Y-55700001D01*
G75*
G02*
X105015013Y-55850001I0J-150000D01*
G01*
X105015013Y-57300001D01*
G75*
G02*
X104865013Y-57450001I-150000J0D01*
G01*
X104565013Y-57450001D01*
G75*
G02*
X104415013Y-57300001I0J150000D01*
G01*
X104415013Y-55850001D01*
G75*
G02*
X104565013Y-55700001I150000J0D01*
G01*
G37*
G36*
G01*
X103295013Y-55700001D02*
X103595013Y-55700001D01*
G75*
G02*
X103745013Y-55850001I0J-150000D01*
G01*
X103745013Y-57300001D01*
G75*
G02*
X103595013Y-57450001I-150000J0D01*
G01*
X103295013Y-57450001D01*
G75*
G02*
X103145013Y-57300001I0J150000D01*
G01*
X103145013Y-55850001D01*
G75*
G02*
X103295013Y-55700001I150000J0D01*
G01*
G37*
G36*
G01*
X102025013Y-55700001D02*
X102325013Y-55700001D01*
G75*
G02*
X102475013Y-55850001I0J-150000D01*
G01*
X102475013Y-57300001D01*
G75*
G02*
X102325013Y-57450001I-150000J0D01*
G01*
X102025013Y-57450001D01*
G75*
G02*
X101875013Y-57300001I0J150000D01*
G01*
X101875013Y-55850001D01*
G75*
G02*
X102025013Y-55700001I150000J0D01*
G01*
G37*
G36*
G01*
X100755013Y-55700001D02*
X101055013Y-55700001D01*
G75*
G02*
X101205013Y-55850001I0J-150000D01*
G01*
X101205013Y-57300001D01*
G75*
G02*
X101055013Y-57450001I-150000J0D01*
G01*
X100755013Y-57450001D01*
G75*
G02*
X100605013Y-57300001I0J150000D01*
G01*
X100605013Y-55850001D01*
G75*
G02*
X100755013Y-55700001I150000J0D01*
G01*
G37*
G36*
G01*
X100755013Y-60850001D02*
X101055013Y-60850001D01*
G75*
G02*
X101205013Y-61000001I0J-150000D01*
G01*
X101205013Y-62450001D01*
G75*
G02*
X101055013Y-62600001I-150000J0D01*
G01*
X100755013Y-62600001D01*
G75*
G02*
X100605013Y-62450001I0J150000D01*
G01*
X100605013Y-61000001D01*
G75*
G02*
X100755013Y-60850001I150000J0D01*
G01*
G37*
G36*
G01*
X102025013Y-60850001D02*
X102325013Y-60850001D01*
G75*
G02*
X102475013Y-61000001I0J-150000D01*
G01*
X102475013Y-62450001D01*
G75*
G02*
X102325013Y-62600001I-150000J0D01*
G01*
X102025013Y-62600001D01*
G75*
G02*
X101875013Y-62450001I0J150000D01*
G01*
X101875013Y-61000001D01*
G75*
G02*
X102025013Y-60850001I150000J0D01*
G01*
G37*
G36*
G01*
X103295013Y-60850001D02*
X103595013Y-60850001D01*
G75*
G02*
X103745013Y-61000001I0J-150000D01*
G01*
X103745013Y-62450001D01*
G75*
G02*
X103595013Y-62600001I-150000J0D01*
G01*
X103295013Y-62600001D01*
G75*
G02*
X103145013Y-62450001I0J150000D01*
G01*
X103145013Y-61000001D01*
G75*
G02*
X103295013Y-60850001I150000J0D01*
G01*
G37*
G36*
G01*
X104565013Y-60850001D02*
X104865013Y-60850001D01*
G75*
G02*
X105015013Y-61000001I0J-150000D01*
G01*
X105015013Y-62450001D01*
G75*
G02*
X104865013Y-62600001I-150000J0D01*
G01*
X104565013Y-62600001D01*
G75*
G02*
X104415013Y-62450001I0J150000D01*
G01*
X104415013Y-61000001D01*
G75*
G02*
X104565013Y-60850001I150000J0D01*
G01*
G37*
G36*
G01*
X105835013Y-60850001D02*
X106135013Y-60850001D01*
G75*
G02*
X106285013Y-61000001I0J-150000D01*
G01*
X106285013Y-62450001D01*
G75*
G02*
X106135013Y-62600001I-150000J0D01*
G01*
X105835013Y-62600001D01*
G75*
G02*
X105685013Y-62450001I0J150000D01*
G01*
X105685013Y-61000001D01*
G75*
G02*
X105835013Y-60850001I150000J0D01*
G01*
G37*
G36*
G01*
X107105013Y-60850001D02*
X107405013Y-60850001D01*
G75*
G02*
X107555013Y-61000001I0J-150000D01*
G01*
X107555013Y-62450001D01*
G75*
G02*
X107405013Y-62600001I-150000J0D01*
G01*
X107105013Y-62600001D01*
G75*
G02*
X106955013Y-62450001I0J150000D01*
G01*
X106955013Y-61000001D01*
G75*
G02*
X107105013Y-60850001I150000J0D01*
G01*
G37*
G36*
G01*
X108375013Y-60850001D02*
X108675013Y-60850001D01*
G75*
G02*
X108825013Y-61000001I0J-150000D01*
G01*
X108825013Y-62450001D01*
G75*
G02*
X108675013Y-62600001I-150000J0D01*
G01*
X108375013Y-62600001D01*
G75*
G02*
X108225013Y-62450001I0J150000D01*
G01*
X108225013Y-61000001D01*
G75*
G02*
X108375013Y-60850001I150000J0D01*
G01*
G37*
G36*
G01*
X109645013Y-60850001D02*
X109945013Y-60850001D01*
G75*
G02*
X110095013Y-61000001I0J-150000D01*
G01*
X110095013Y-62450001D01*
G75*
G02*
X109945013Y-62600001I-150000J0D01*
G01*
X109645013Y-62600001D01*
G75*
G02*
X109495013Y-62450001I0J150000D01*
G01*
X109495013Y-61000001D01*
G75*
G02*
X109645013Y-60850001I150000J0D01*
G01*
G37*
D18*
X103960013Y-69500001D03*
D17*
X106500013Y-69500001D03*
G36*
G01*
X67275001Y-53575001D02*
X67275001Y-54525001D01*
G75*
G02*
X67025001Y-54775001I-250000J0D01*
G01*
X66350001Y-54775001D01*
G75*
G02*
X66100001Y-54525001I0J250000D01*
G01*
X66100001Y-53575001D01*
G75*
G02*
X66350001Y-53325001I250000J0D01*
G01*
X67025001Y-53325001D01*
G75*
G02*
X67275001Y-53575001I0J-250000D01*
G01*
G37*
G36*
G01*
X65200001Y-53575001D02*
X65200001Y-54525001D01*
G75*
G02*
X64950001Y-54775001I-250000J0D01*
G01*
X64275001Y-54775001D01*
G75*
G02*
X64025001Y-54525001I0J250000D01*
G01*
X64025001Y-53575001D01*
G75*
G02*
X64275001Y-53325001I250000J0D01*
G01*
X64950001Y-53325001D01*
G75*
G02*
X65200001Y-53575001I0J-250000D01*
G01*
G37*
G36*
G01*
X69625001Y-64525001D02*
X69625001Y-63575001D01*
G75*
G02*
X69875001Y-63325001I250000J0D01*
G01*
X70550001Y-63325001D01*
G75*
G02*
X70800001Y-63575001I0J-250000D01*
G01*
X70800001Y-64525001D01*
G75*
G02*
X70550001Y-64775001I-250000J0D01*
G01*
X69875001Y-64775001D01*
G75*
G02*
X69625001Y-64525001I0J250000D01*
G01*
G37*
G36*
G01*
X71700001Y-64525001D02*
X71700001Y-63575001D01*
G75*
G02*
X71950001Y-63325001I250000J0D01*
G01*
X72625001Y-63325001D01*
G75*
G02*
X72875001Y-63575001I0J-250000D01*
G01*
X72875001Y-64525001D01*
G75*
G02*
X72625001Y-64775001I-250000J0D01*
G01*
X71950001Y-64775001D01*
G75*
G02*
X71700001Y-64525001I0J250000D01*
G01*
G37*
G36*
G01*
X73525001Y-54925001D02*
X73525001Y-53975001D01*
G75*
G02*
X73775001Y-53725001I250000J0D01*
G01*
X74450001Y-53725001D01*
G75*
G02*
X74700001Y-53975001I0J-250000D01*
G01*
X74700001Y-54925001D01*
G75*
G02*
X74450001Y-55175001I-250000J0D01*
G01*
X73775001Y-55175001D01*
G75*
G02*
X73525001Y-54925001I0J250000D01*
G01*
G37*
G36*
G01*
X75600001Y-54925001D02*
X75600001Y-53975001D01*
G75*
G02*
X75850001Y-53725001I250000J0D01*
G01*
X76525001Y-53725001D01*
G75*
G02*
X76775001Y-53975001I0J-250000D01*
G01*
X76775001Y-54925001D01*
G75*
G02*
X76525001Y-55175001I-250000J0D01*
G01*
X75850001Y-55175001D01*
G75*
G02*
X75600001Y-54925001I0J250000D01*
G01*
G37*
G36*
G01*
X73525001Y-64525001D02*
X73525001Y-63575001D01*
G75*
G02*
X73775001Y-63325001I250000J0D01*
G01*
X74450001Y-63325001D01*
G75*
G02*
X74700001Y-63575001I0J-250000D01*
G01*
X74700001Y-64525001D01*
G75*
G02*
X74450001Y-64775001I-250000J0D01*
G01*
X73775001Y-64775001D01*
G75*
G02*
X73525001Y-64525001I0J250000D01*
G01*
G37*
G36*
G01*
X75600001Y-64525001D02*
X75600001Y-63575001D01*
G75*
G02*
X75850001Y-63325001I250000J0D01*
G01*
X76525001Y-63325001D01*
G75*
G02*
X76775001Y-63575001I0J-250000D01*
G01*
X76775001Y-64525001D01*
G75*
G02*
X76525001Y-64775001I-250000J0D01*
G01*
X75850001Y-64775001D01*
G75*
G02*
X75600001Y-64525001I0J250000D01*
G01*
G37*
D12*
X89750001Y-54780001D03*
D13*
X86100001Y-56210001D03*
D12*
X89750001Y-63420001D03*
D13*
X86100001Y-61990001D03*
D14*
X85570001Y-63420001D03*
X85570001Y-54780001D03*
D15*
X84655001Y-59350001D03*
X84655001Y-57350001D03*
X84655001Y-57850001D03*
X84655001Y-58350001D03*
X84655001Y-58850001D03*
X84655001Y-59850001D03*
X84655001Y-60350001D03*
X84655001Y-60850001D03*
D16*
X84655001Y-55850001D03*
X84655001Y-56650001D03*
X84655001Y-61550001D03*
X84655001Y-62350001D03*
X84655001Y-62350001D03*
X84655001Y-61550001D03*
X84655001Y-56650001D03*
X84655001Y-55850001D03*
D17*
X54350001Y-54250001D03*
D18*
X54350001Y-56790001D03*
X54350001Y-59330001D03*
X54350001Y-61870001D03*
X54350001Y-64410001D03*
X54350001Y-66950001D03*
D17*
X85750001Y-68050001D03*
D18*
X83210001Y-68050001D03*
X80670001Y-68050001D03*
X78130001Y-68050001D03*
X75590001Y-68050001D03*
X73050001Y-68050001D03*
G36*
G01*
X62100002Y-66650001D02*
X61200000Y-66650001D01*
G75*
G02*
X60950001Y-66400002I0J249999D01*
G01*
X60950001Y-65700000D01*
G75*
G02*
X61200000Y-65450001I249999J0D01*
G01*
X62100002Y-65450001D01*
G75*
G02*
X62350001Y-65700000I0J-249999D01*
G01*
X62350001Y-66400002D01*
G75*
G02*
X62100002Y-66650001I-249999J0D01*
G01*
G37*
G36*
G01*
X62100002Y-64650001D02*
X61200000Y-64650001D01*
G75*
G02*
X60950001Y-64400002I0J249999D01*
G01*
X60950001Y-63700000D01*
G75*
G02*
X61200000Y-63450001I249999J0D01*
G01*
X62100002Y-63450001D01*
G75*
G02*
X62350001Y-63700000I0J-249999D01*
G01*
X62350001Y-64400002D01*
G75*
G02*
X62100002Y-64650001I-249999J0D01*
G01*
G37*
G36*
G01*
X63600000Y-63450001D02*
X64500002Y-63450001D01*
G75*
G02*
X64750001Y-63700000I0J-249999D01*
G01*
X64750001Y-64400002D01*
G75*
G02*
X64500002Y-64650001I-249999J0D01*
G01*
X63600000Y-64650001D01*
G75*
G02*
X63350001Y-64400002I0J249999D01*
G01*
X63350001Y-63700000D01*
G75*
G02*
X63600000Y-63450001I249999J0D01*
G01*
G37*
G36*
G01*
X63600000Y-65450001D02*
X64500002Y-65450001D01*
G75*
G02*
X64750001Y-65700000I0J-249999D01*
G01*
X64750001Y-66400002D01*
G75*
G02*
X64500002Y-66650001I-249999J0D01*
G01*
X63600000Y-66650001D01*
G75*
G02*
X63350001Y-66400002I0J249999D01*
G01*
X63350001Y-65700000D01*
G75*
G02*
X63600000Y-65450001I249999J0D01*
G01*
G37*
G36*
G01*
X81150001Y-56900000D02*
X81150001Y-57800002D01*
G75*
G02*
X80900002Y-58050001I-249999J0D01*
G01*
X80200000Y-58050001D01*
G75*
G02*
X79950001Y-57800002I0J249999D01*
G01*
X79950001Y-56900000D01*
G75*
G02*
X80200000Y-56650001I249999J0D01*
G01*
X80900002Y-56650001D01*
G75*
G02*
X81150001Y-56900000I0J-249999D01*
G01*
G37*
G36*
G01*
X79150001Y-56900000D02*
X79150001Y-57800002D01*
G75*
G02*
X78900002Y-58050001I-249999J0D01*
G01*
X78200000Y-58050001D01*
G75*
G02*
X77950001Y-57800002I0J249999D01*
G01*
X77950001Y-56900000D01*
G75*
G02*
X78200000Y-56650001I249999J0D01*
G01*
X78900002Y-56650001D01*
G75*
G02*
X79150001Y-56900000I0J-249999D01*
G01*
G37*
G36*
G01*
X81150001Y-59900000D02*
X81150001Y-60800002D01*
G75*
G02*
X80900002Y-61050001I-249999J0D01*
G01*
X80200000Y-61050001D01*
G75*
G02*
X79950001Y-60800002I0J249999D01*
G01*
X79950001Y-59900000D01*
G75*
G02*
X80200000Y-59650001I249999J0D01*
G01*
X80900002Y-59650001D01*
G75*
G02*
X81150001Y-59900000I0J-249999D01*
G01*
G37*
G36*
G01*
X79150001Y-59900000D02*
X79150001Y-60800002D01*
G75*
G02*
X78900002Y-61050001I-249999J0D01*
G01*
X78200000Y-61050001D01*
G75*
G02*
X77950001Y-60800002I0J249999D01*
G01*
X77950001Y-59900000D01*
G75*
G02*
X78200000Y-59650001I249999J0D01*
G01*
X78900002Y-59650001D01*
G75*
G02*
X79150001Y-59900000I0J-249999D01*
G01*
G37*
D19*
X69500001Y-59250001D03*
D20*
X75800001Y-59250001D03*
X75800001Y-56950001D03*
X75800001Y-61550001D03*
D21*
X66050001Y-64100001D03*
X66050001Y-66000001D03*
X68050001Y-65050001D03*
X59250001Y-66000001D03*
X59250001Y-64100001D03*
X57250001Y-65050001D03*
G36*
G01*
X66645001Y-55700001D02*
X66945001Y-55700001D01*
G75*
G02*
X67095001Y-55850001I0J-150000D01*
G01*
X67095001Y-57300001D01*
G75*
G02*
X66945001Y-57450001I-150000J0D01*
G01*
X66645001Y-57450001D01*
G75*
G02*
X66495001Y-57300001I0J150000D01*
G01*
X66495001Y-55850001D01*
G75*
G02*
X66645001Y-55700001I150000J0D01*
G01*
G37*
G36*
G01*
X65375001Y-55700001D02*
X65675001Y-55700001D01*
G75*
G02*
X65825001Y-55850001I0J-150000D01*
G01*
X65825001Y-57300001D01*
G75*
G02*
X65675001Y-57450001I-150000J0D01*
G01*
X65375001Y-57450001D01*
G75*
G02*
X65225001Y-57300001I0J150000D01*
G01*
X65225001Y-55850001D01*
G75*
G02*
X65375001Y-55700001I150000J0D01*
G01*
G37*
G36*
G01*
X64105001Y-55700001D02*
X64405001Y-55700001D01*
G75*
G02*
X64555001Y-55850001I0J-150000D01*
G01*
X64555001Y-57300001D01*
G75*
G02*
X64405001Y-57450001I-150000J0D01*
G01*
X64105001Y-57450001D01*
G75*
G02*
X63955001Y-57300001I0J150000D01*
G01*
X63955001Y-55850001D01*
G75*
G02*
X64105001Y-55700001I150000J0D01*
G01*
G37*
G36*
G01*
X62835001Y-55700001D02*
X63135001Y-55700001D01*
G75*
G02*
X63285001Y-55850001I0J-150000D01*
G01*
X63285001Y-57300001D01*
G75*
G02*
X63135001Y-57450001I-150000J0D01*
G01*
X62835001Y-57450001D01*
G75*
G02*
X62685001Y-57300001I0J150000D01*
G01*
X62685001Y-55850001D01*
G75*
G02*
X62835001Y-55700001I150000J0D01*
G01*
G37*
G36*
G01*
X61565001Y-55700001D02*
X61865001Y-55700001D01*
G75*
G02*
X62015001Y-55850001I0J-150000D01*
G01*
X62015001Y-57300001D01*
G75*
G02*
X61865001Y-57450001I-150000J0D01*
G01*
X61565001Y-57450001D01*
G75*
G02*
X61415001Y-57300001I0J150000D01*
G01*
X61415001Y-55850001D01*
G75*
G02*
X61565001Y-55700001I150000J0D01*
G01*
G37*
G36*
G01*
X60295001Y-55700001D02*
X60595001Y-55700001D01*
G75*
G02*
X60745001Y-55850001I0J-150000D01*
G01*
X60745001Y-57300001D01*
G75*
G02*
X60595001Y-57450001I-150000J0D01*
G01*
X60295001Y-57450001D01*
G75*
G02*
X60145001Y-57300001I0J150000D01*
G01*
X60145001Y-55850001D01*
G75*
G02*
X60295001Y-55700001I150000J0D01*
G01*
G37*
G36*
G01*
X59025001Y-55700001D02*
X59325001Y-55700001D01*
G75*
G02*
X59475001Y-55850001I0J-150000D01*
G01*
X59475001Y-57300001D01*
G75*
G02*
X59325001Y-57450001I-150000J0D01*
G01*
X59025001Y-57450001D01*
G75*
G02*
X58875001Y-57300001I0J150000D01*
G01*
X58875001Y-55850001D01*
G75*
G02*
X59025001Y-55700001I150000J0D01*
G01*
G37*
G36*
G01*
X57755001Y-55700001D02*
X58055001Y-55700001D01*
G75*
G02*
X58205001Y-55850001I0J-150000D01*
G01*
X58205001Y-57300001D01*
G75*
G02*
X58055001Y-57450001I-150000J0D01*
G01*
X57755001Y-57450001D01*
G75*
G02*
X57605001Y-57300001I0J150000D01*
G01*
X57605001Y-55850001D01*
G75*
G02*
X57755001Y-55700001I150000J0D01*
G01*
G37*
G36*
G01*
X57755001Y-60850001D02*
X58055001Y-60850001D01*
G75*
G02*
X58205001Y-61000001I0J-150000D01*
G01*
X58205001Y-62450001D01*
G75*
G02*
X58055001Y-62600001I-150000J0D01*
G01*
X57755001Y-62600001D01*
G75*
G02*
X57605001Y-62450001I0J150000D01*
G01*
X57605001Y-61000001D01*
G75*
G02*
X57755001Y-60850001I150000J0D01*
G01*
G37*
G36*
G01*
X59025001Y-60850001D02*
X59325001Y-60850001D01*
G75*
G02*
X59475001Y-61000001I0J-150000D01*
G01*
X59475001Y-62450001D01*
G75*
G02*
X59325001Y-62600001I-150000J0D01*
G01*
X59025001Y-62600001D01*
G75*
G02*
X58875001Y-62450001I0J150000D01*
G01*
X58875001Y-61000001D01*
G75*
G02*
X59025001Y-60850001I150000J0D01*
G01*
G37*
G36*
G01*
X60295001Y-60850001D02*
X60595001Y-60850001D01*
G75*
G02*
X60745001Y-61000001I0J-150000D01*
G01*
X60745001Y-62450001D01*
G75*
G02*
X60595001Y-62600001I-150000J0D01*
G01*
X60295001Y-62600001D01*
G75*
G02*
X60145001Y-62450001I0J150000D01*
G01*
X60145001Y-61000001D01*
G75*
G02*
X60295001Y-60850001I150000J0D01*
G01*
G37*
G36*
G01*
X61565001Y-60850001D02*
X61865001Y-60850001D01*
G75*
G02*
X62015001Y-61000001I0J-150000D01*
G01*
X62015001Y-62450001D01*
G75*
G02*
X61865001Y-62600001I-150000J0D01*
G01*
X61565001Y-62600001D01*
G75*
G02*
X61415001Y-62450001I0J150000D01*
G01*
X61415001Y-61000001D01*
G75*
G02*
X61565001Y-60850001I150000J0D01*
G01*
G37*
G36*
G01*
X62835001Y-60850001D02*
X63135001Y-60850001D01*
G75*
G02*
X63285001Y-61000001I0J-150000D01*
G01*
X63285001Y-62450001D01*
G75*
G02*
X63135001Y-62600001I-150000J0D01*
G01*
X62835001Y-62600001D01*
G75*
G02*
X62685001Y-62450001I0J150000D01*
G01*
X62685001Y-61000001D01*
G75*
G02*
X62835001Y-60850001I150000J0D01*
G01*
G37*
G36*
G01*
X64105001Y-60850001D02*
X64405001Y-60850001D01*
G75*
G02*
X64555001Y-61000001I0J-150000D01*
G01*
X64555001Y-62450001D01*
G75*
G02*
X64405001Y-62600001I-150000J0D01*
G01*
X64105001Y-62600001D01*
G75*
G02*
X63955001Y-62450001I0J150000D01*
G01*
X63955001Y-61000001D01*
G75*
G02*
X64105001Y-60850001I150000J0D01*
G01*
G37*
G36*
G01*
X65375001Y-60850001D02*
X65675001Y-60850001D01*
G75*
G02*
X65825001Y-61000001I0J-150000D01*
G01*
X65825001Y-62450001D01*
G75*
G02*
X65675001Y-62600001I-150000J0D01*
G01*
X65375001Y-62600001D01*
G75*
G02*
X65225001Y-62450001I0J150000D01*
G01*
X65225001Y-61000001D01*
G75*
G02*
X65375001Y-60850001I150000J0D01*
G01*
G37*
G36*
G01*
X66645001Y-60850001D02*
X66945001Y-60850001D01*
G75*
G02*
X67095001Y-61000001I0J-150000D01*
G01*
X67095001Y-62450001D01*
G75*
G02*
X66945001Y-62600001I-150000J0D01*
G01*
X66645001Y-62600001D01*
G75*
G02*
X66495001Y-62450001I0J150000D01*
G01*
X66495001Y-61000001D01*
G75*
G02*
X66645001Y-60850001I150000J0D01*
G01*
G37*
D18*
X60960001Y-69500001D03*
D17*
X63500001Y-69500001D03*
M02*
